<svg width="488" height="726" viewBox="0 0 488 726" fill="none" xmlns="http://www.w3.org/2000/svg">
<path d="M190.434 83.2619L191.733 84.9334C191.633 84.7462 191.542 84.5607 191.443 84.3731C191.005 83.7536 190.566 83.1331 190.118 82.5108C190.225 82.7613 190.327 83.0112 190.434 83.2619ZM197.296 93.8237C197.65 94.2552 198.012 94.6902 198.362 95.1201L198.259 94.9442L197.049 93.3179L197.296 93.8237ZM192.356 87.8101C193.144 88.7596 193.9 89.6975 194.685 90.6455C194.438 90.1551 194.172 89.6605 193.922 89.1688C193.214 88.2414 192.473 87.3025 191.746 86.3689C191.947 86.8487 192.158 87.3309 192.356 87.8101ZM204.733 104.577C205.038 104.937 205.319 105.289 205.622 105.648L205.616 105.639C205.295 105.226 204.959 104.808 204.633 104.394L204.733 104.577ZM199.628 98.6304C200.36 99.4793 201.102 100.333 201.825 101.179C201.61 100.793 201.403 100.409 201.186 100.023C200.42 99.0616 199.694 98.1149 198.916 97.1495C199.151 97.6424 199.397 98.1379 199.628 98.6304ZM194.148 92.3077C195.201 93.5023 196.213 94.6818 197.247 95.8701C196.952 95.2571 196.653 94.6441 196.352 94.0297C195.384 92.8432 194.397 91.65 193.42 90.4604C193.665 91.0768 193.906 91.6921 194.148 92.3077ZM108.027 569.516L108.3 569.101C108.331 568.784 108.365 568.469 108.398 568.153L108.186 568.538C108.131 568.864 108.081 569.19 108.027 569.516ZM212.877 115.824L213.199 116.197C213.062 116.028 212.934 115.861 212.798 115.692L212.877 115.824ZM207.37 109.511C208.074 110.299 208.756 111.078 209.442 111.86C209.258 111.553 209.08 111.248 208.895 110.941C208.21 110.11 207.508 109.274 206.823 108.443C207.011 108.8 207.185 109.154 207.37 109.511ZM201.737 103.245C202.763 104.386 203.796 105.529 204.813 106.667C204.478 106.04 204.127 105.409 203.788 104.781C202.842 103.661 201.868 102.531 200.894 101.399C201.176 102.015 201.459 102.631 201.737 103.245ZM195.88 96.8202C197.145 98.1848 198.392 99.542 199.621 100.892C199.303 100.205 199.003 99.5208 198.681 98.8321C197.471 97.4356 196.284 96.0462 195.072 94.6478C195.35 95.3733 195.608 96.096 195.88 96.8202ZM107.447 573.128C107.63 572.887 107.821 572.647 108.007 572.406L108.128 571.011C107.976 571.246 107.82 571.479 107.67 571.714C107.595 572.186 107.519 572.657 107.447 573.128ZM105.845 575.258L106.198 574.784L106.336 573.835L106.075 574.249C105.998 574.586 105.918 574.921 105.845 575.258ZM104.383 577.23L104.43 577.164L104.494 576.865L104.383 577.23ZM215.713 120.768C216.373 121.506 217.045 122.248 217.712 122.988L217.005 121.89C216.394 121.172 215.748 120.439 215.12 119.714C215.32 120.066 215.514 120.416 215.713 120.768ZM209.871 114.385C210.88 115.463 211.896 116.544 212.868 117.606C212.568 117.086 212.239 116.557 211.934 116.035C210.935 114.886 209.953 113.744 208.953 112.594C209.255 113.19 209.572 113.79 209.871 114.385ZM203.769 107.844L207.533 111.878C207.162 111.158 206.801 110.44 206.425 109.718C205.273 108.418 204.076 107.102 202.891 105.789C203.194 106.477 203.472 107.158 203.769 107.844ZM197.521 101.288C198.983 102.796 200.452 104.308 201.855 105.793C201.514 105.016 201.143 104.233 200.792 103.454C199.396 101.914 198.038 100.389 196.622 98.8414C196.92 99.6564 197.231 100.474 197.521 101.288ZM106.939 576.64C107.206 576.337 107.469 576.034 107.739 575.732C107.781 575.165 107.82 574.597 107.865 574.031C107.635 574.334 107.413 574.639 107.183 574.943C107.103 575.508 107.017 576.073 106.939 576.64ZM105.121 578.708C105.325 578.47 105.535 578.235 105.741 577.998C105.803 577.537 105.867 577.077 105.933 576.616L105.409 577.331C105.313 577.79 105.215 578.248 105.121 578.708ZM103.39 580.744L103.789 580.275C103.852 579.956 103.913 579.637 103.979 579.319C103.877 579.461 103.774 579.602 103.672 579.745C103.58 580.078 103.483 580.41 103.39 580.744ZM101.797 582.657L101.882 582.553L101.981 582.175L101.962 582.202L101.797 582.657ZM224.535 132.21C225.149 132.871 225.777 133.537 226.379 134.192C226.235 133.978 226.082 133.761 225.935 133.547C225.27 132.783 224.623 132.026 223.954 131.26L224.535 132.21ZM218.513 125.744C219.495 126.792 220.454 127.832 221.432 128.879C221.114 128.364 220.816 127.855 220.494 127.339C219.553 126.28 218.575 125.205 217.612 124.137C217.907 124.671 218.222 125.211 218.513 125.744ZM212.197 119.132C213.437 120.412 214.686 121.696 215.883 122.958C215.517 122.299 215.142 121.638 214.768 120.977C213.564 119.65 212.398 118.338 211.171 117.002C211.521 117.714 211.854 118.422 212.197 119.132ZM205.722 112.414C207.2 113.936 208.64 115.443 210.103 116.96C209.715 116.173 209.323 115.385 208.926 114.595C207.549 113.106 206.14 111.603 204.735 110.103C205.059 110.872 205.405 111.646 205.722 112.414ZM199.008 105.642C200.648 107.28 202.305 108.925 203.882 110.537C203.534 109.71 203.178 108.881 202.821 108.052C201.284 106.421 199.734 104.785 198.157 103.137C198.447 103.973 198.727 104.807 199.008 105.642ZM106.487 580.082C106.823 579.753 107.164 579.425 107.503 579.097C107.545 578.443 107.593 577.79 107.639 577.137C107.335 577.482 107.03 577.826 106.729 578.172C106.646 578.808 106.567 579.446 106.487 580.082ZM104.454 582.109C104.747 581.814 105.039 581.52 105.333 581.226C105.403 580.663 105.476 580.102 105.548 579.539C105.285 579.844 105.028 580.15 104.768 580.455C104.661 581.006 104.559 581.558 104.454 582.109ZM102.501 584.095C102.736 583.852 102.966 583.608 103.203 583.365C103.287 582.909 103.377 582.454 103.463 581.998C103.257 582.245 103.058 582.494 102.853 582.742L102.501 584.095ZM100.649 586.022C100.798 585.864 100.953 585.708 101.102 585.551C101.184 585.224 101.272 584.899 101.356 584.573L100.985 585.03C100.874 585.36 100.759 585.69 100.649 586.022ZM98.9232 587.879L99.0598 587.731C99.1044 587.592 99.1465 587.452 99.1919 587.313L99.1316 587.389C99.0637 587.553 98.9911 587.715 98.9232 587.879ZM233.737 143.727C234.359 144.383 234.924 145.016 235.535 145.668C235.438 145.53 235.35 145.396 235.252 145.258C234.632 144.56 233.989 143.854 233.364 143.154C233.486 143.344 233.616 143.537 233.737 143.727ZM227.571 137.297C228.501 138.266 229.442 139.239 230.357 140.201C230.041 139.718 229.733 139.236 229.413 138.752C228.494 137.739 227.601 136.738 226.661 135.717C226.976 136.247 227.26 136.768 227.571 137.297ZM221.032 130.493C222.322 131.816 223.543 133.109 224.813 134.424C224.417 133.759 223.993 133.086 223.59 132.419C222.413 131.147 221.212 129.864 220.021 128.586C220.363 129.223 220.699 129.858 221.032 130.493ZM214.459 123.868C215.901 125.317 217.352 126.768 218.757 128.201C218.353 127.447 217.975 126.701 217.561 125.945C216.176 124.475 214.769 122.996 213.341 121.508C213.713 122.294 214.096 123.084 214.459 123.868ZM207.504 116.879C209.185 118.549 210.803 120.192 212.456 121.849C212.062 121.014 211.652 120.174 211.246 119.336C209.688 117.712 208.115 116.083 206.538 114.451C206.865 115.262 207.185 116.07 207.504 116.879ZM200.429 109.969C202.238 111.728 204.056 113.491 205.813 115.228C205.464 114.358 205.132 113.492 204.773 112.62C203.094 110.899 201.352 109.151 199.608 107.403C199.89 108.26 200.156 109.114 200.429 109.969ZM106.075 583.512C106.49 583.157 106.898 582.799 107.317 582.445C107.354 581.735 107.388 581.026 107.429 580.315C107.056 580.682 106.687 581.049 106.317 581.417C106.232 582.115 106.153 582.814 106.075 583.512ZM103.846 585.441C104.215 585.115 104.591 584.792 104.964 584.468C105.033 583.835 105.096 583.202 105.168 582.57C104.84 582.902 104.504 583.231 104.179 583.563C104.062 584.188 103.954 584.815 103.846 585.441ZM101.685 587.363C102.005 587.075 102.33 586.789 102.653 586.502C102.746 585.955 102.836 585.406 102.932 584.86C102.644 585.159 102.353 585.458 102.068 585.758C101.935 586.292 101.814 586.828 101.685 587.363ZM99.6029 589.268C99.8627 589.028 100.121 588.787 100.384 588.548L100.703 587.205C100.475 587.451 100.248 587.698 100.02 587.943C99.8789 588.384 99.7405 588.826 99.6029 589.268ZM97.6218 591.117C97.8006 590.948 97.9738 590.776 98.1538 590.607C98.2523 590.285 98.3567 589.965 98.4582 589.643C98.3066 589.81 98.1602 589.979 98.0111 590.146C97.8816 590.47 97.7488 590.793 97.6218 591.117ZM95.7949 592.87L95.9757 592.695C96.0326 592.546 96.0865 592.396 96.1443 592.246L96.036 592.369L95.7949 592.87ZM243.504 155.683C243.996 156.201 244.495 156.723 244.99 157.242C244.846 157.045 244.707 156.85 244.562 156.653C244.083 156.125 243.585 155.59 243.094 155.057C243.236 155.268 243.364 155.473 243.504 155.683ZM236.975 148.901C237.895 149.835 238.802 150.764 239.694 151.686C239.425 151.295 239.151 150.901 238.882 150.509C237.974 149.528 237.055 148.541 236.149 147.562C236.43 148.01 236.698 148.454 236.975 148.901ZM230.427 142.263C231.653 143.506 232.89 144.753 234.105 145.991C233.676 145.312 233.236 144.628 232.799 143.946C231.662 142.74 230.471 141.509 229.289 140.283C229.667 140.943 230.056 141.606 230.427 142.263ZM223.569 135.375C225.025 136.817 226.448 138.244 227.87 139.67C227.455 138.951 227.051 138.234 226.629 137.512L222.443 133.152C222.827 133.896 223.193 134.634 223.569 135.375ZM216.522 128.457C218.182 130.08 219.84 131.704 221.47 133.315C221.023 132.449 220.543 131.572 220.085 130.703C218.577 129.155 216.989 127.573 215.418 125.999C215.79 126.819 216.16 127.639 216.522 128.457ZM209.241 121.375C211.071 123.136 212.865 124.879 214.652 126.621C214.268 125.772 213.902 124.927 213.507 124.075C211.759 122.313 210.03 120.56 208.264 118.79C208.598 119.654 208.917 120.513 209.241 121.375ZM201.774 114.262C203.749 116.136 205.719 118.008 207.652 119.862C207.3 118.941 206.916 118.011 206.551 117.086C204.739 115.285 202.829 113.442 200.942 111.608C201.219 112.493 201.509 113.38 201.774 114.262ZM110.724 583.243C135.515 565.489 165.901 549.513 196.873 533.236C310.504 473.517 431.885 409.677 311.732 238.419M105.707 586.911C106.184 586.553 106.672 586.198 107.154 585.842C107.186 585.077 107.219 584.313 107.258 583.549C106.82 583.924 106.383 584.299 105.949 584.675C105.866 585.42 105.781 586.164 105.707 586.911ZM103.281 588.762C103.726 588.42 104.173 588.078 104.623 587.738C104.689 587.037 104.762 586.339 104.837 585.64C104.431 585.997 104.032 586.356 103.63 586.715C103.511 587.396 103.39 588.078 103.281 588.762ZM100.925 590.598C101.33 590.278 101.729 589.957 102.138 589.639C102.235 589.017 102.334 588.395 102.437 587.775C102.071 588.104 101.712 588.436 101.35 588.767C101.206 589.377 101.063 589.987 100.925 590.598ZM98.6442 592.415C98.9936 592.133 99.3456 591.851 99.6976 591.569C99.8143 591.037 99.9217 590.503 100.044 589.972C99.7324 590.261 99.4157 590.547 99.1091 590.836C98.9495 591.361 98.7991 591.889 98.6442 592.415ZM96.4402 594.224C96.7234 593.989 97.013 593.755 97.2983 593.52L97.6813 592.205C97.4295 592.447 97.1743 592.688 96.9247 592.931L96.4402 594.224ZM94.3322 596.006L94.9283 595.497C95.0438 595.177 95.1673 594.859 95.2866 594.54L94.7793 595.046C94.6315 595.366 94.4774 595.685 94.3322 596.006ZM92.4199 597.653L92.6437 597.455L92.836 597.015L92.6712 597.187C92.585 597.342 92.5048 597.498 92.4199 597.653ZM253.441 167.534C253.875 167.978 254.319 168.427 254.747 168.868L254.659 168.754C254.152 168.205 253.658 167.662 253.15 167.112L253.441 167.534ZM246.856 160.803C247.791 161.76 248.725 162.717 249.667 163.676C249.346 163.225 248.998 162.762 248.674 162.31C247.809 161.391 246.907 160.456 246.022 159.529C246.301 159.954 246.581 160.38 246.856 160.803ZM240.199 154.128C241.347 155.26 242.509 156.397 243.619 157.512C243.262 156.973 242.928 156.443 242.566 155.904C241.356 154.64 240.184 153.393 238.962 152.124C239.366 152.789 239.801 153.465 240.199 154.128ZM233.121 147.13L237.441 151.402C236.977 150.642 236.504 149.879 236.031 149.116C234.706 147.757 233.331 146.375 231.969 144.998C232.364 145.713 232.732 146.417 233.121 147.13ZM225.945 140.152C227.594 141.734 229.243 143.315 230.84 144.873C230.401 144.081 229.939 143.281 229.489 142.485C227.875 140.855 226.318 139.251 224.68 137.611C225.102 138.459 225.532 139.308 225.945 140.152ZM218.508 133.022C220.324 134.76 222.13 136.491 223.93 138.221C223.494 137.343 223.067 136.468 222.62 135.587C220.932 133.91 219.182 132.205 217.443 130.506C217.81 131.348 218.151 132.183 218.508 133.022ZM210.876 125.817C212.864 127.674 214.84 129.525 216.771 131.357C216.385 130.465 215.971 129.565 215.574 128.67C213.673 126.811 211.808 124.969 209.874 123.096C210.208 124.003 210.553 124.912 210.876 125.817ZM202.987 118.469C205.109 120.438 207.213 122.398 209.306 124.355C208.972 123.433 208.633 122.509 208.286 121.584C206.311 119.679 204.262 117.742 202.224 115.81C202.487 116.698 202.735 117.583 202.987 118.469ZM105.401 590.308C105.945 589.95 106.487 589.591 107.036 589.235C107.059 588.43 107.089 587.627 107.12 586.823C106.615 587.202 106.11 587.581 105.61 587.961C105.539 588.743 105.468 589.526 105.401 590.308ZM102.791 592.046C103.303 591.701 103.814 591.355 104.331 591.011C104.393 590.269 104.461 589.528 104.529 588.786C104.058 589.147 103.581 589.506 103.115 589.868C103.006 590.594 102.895 591.32 102.791 592.046ZM100.236 593.785C100.708 593.458 101.189 593.135 101.665 592.811C101.761 592.131 101.866 591.453 101.969 590.775C101.534 591.119 101.095 591.462 100.665 591.807C100.52 592.466 100.372 593.124 100.236 593.785ZM97.7475 595.536C98.1767 595.23 98.6107 594.927 99.0454 594.622C99.1677 594.013 99.2998 593.405 99.4318 592.798C99.0353 593.119 98.6437 593.443 98.2506 593.766C98.0799 594.355 97.9097 594.945 97.7475 595.536ZM95.3414 597.273C95.7223 596.994 96.0984 596.715 96.4831 596.437C96.6245 595.916 96.7586 595.391 96.9051 594.87C96.5557 595.163 96.2161 595.458 95.8696 595.752C95.6879 596.258 95.5193 596.766 95.3414 597.273ZM93.0198 598.988C93.3327 598.753 93.6427 598.518 93.9569 598.285C94.1034 597.857 94.2549 597.431 94.4022 597.004C94.1267 597.242 93.8486 597.479 93.5752 597.717C93.3905 598.141 93.202 598.563 93.0198 598.988ZM90.8129 600.666C91.0298 600.499 91.2502 600.334 91.4684 600.167C91.5987 599.857 91.7304 599.547 91.865 599.237C91.676 599.406 91.4854 599.572 91.2998 599.74C91.136 600.048 90.9738 600.357 90.8129 600.666ZM88.7864 602.258L89.0526 602.048L89.2802 601.595L89.0797 601.783L88.7864 602.258ZM263.63 179.391L263.718 179.48L263.617 179.373L263.63 179.391ZM257.179 172.95C258.01 173.781 258.856 174.618 259.679 175.445C259.423 175.098 259.187 174.758 258.929 174.41C258.008 173.445 257.139 172.505 256.201 171.532C256.521 172.003 256.862 172.481 257.179 172.95ZM250.155 165.938C251.348 167.117 252.482 168.27 253.669 169.447C253.279 168.88 252.893 168.316 252.497 167.747C251.404 166.622 250.282 165.484 249.176 164.354C249.516 164.887 249.82 165.407 250.155 165.938ZM243.064 159.06C244.499 160.442 245.943 161.828 247.34 163.192C246.879 162.476 246.389 161.748 245.922 161.029C244.541 159.632 243.183 158.244 241.772 156.833C242.21 157.578 242.634 158.318 243.064 159.06ZM235.744 151.981C237.384 153.559 238.987 155.121 240.624 156.697C240.159 155.911 239.73 155.136 239.255 154.345C237.677 152.774 236.064 151.186 234.457 149.601C234.882 150.393 235.33 151.192 235.744 151.981ZM228.172 144.834C229.978 146.522 231.799 148.218 233.546 149.878C233.095 149.036 232.637 148.192 232.177 147.346C230.456 145.659 228.743 143.975 226.983 142.27C227.394 143.129 227.771 143.978 228.172 144.834ZM220.395 137.538C222.381 139.394 224.336 141.237 226.313 143.09C225.881 142.184 225.439 141.275 224.995 140.365C223.12 138.554 221.206 136.727 219.292 134.898C219.658 135.778 220.04 136.661 220.395 137.538ZM212.374 130.166C214.496 132.096 216.634 134.032 218.683 135.93C218.31 135.032 217.938 134.133 217.555 133.232C215.539 131.314 213.518 129.394 211.456 127.454C211.773 128.36 212.069 129.261 212.374 130.166ZM204.142 122.654C206.407 124.713 208.634 126.754 210.887 128.808C210.567 127.881 210.254 126.956 209.923 126.026C207.784 124.021 205.604 121.996 203.417 119.969C203.666 120.865 203.903 121.759 204.142 122.654ZM105.132 593.7C105.738 593.349 106.351 593.002 106.963 592.653C106.978 591.818 106.986 590.982 107.006 590.147C106.441 590.517 105.875 590.886 105.316 591.256C105.249 592.07 105.191 592.885 105.132 593.7ZM102.341 595.329C102.916 594.988 103.502 594.651 104.082 594.313C104.138 593.531 104.186 592.75 104.246 591.97C103.706 592.332 103.174 592.697 102.638 593.062C102.533 593.816 102.438 594.573 102.341 595.329ZM99.6046 596.978C100.15 596.646 100.695 596.314 101.246 595.984C101.338 595.261 101.429 594.539 101.526 593.817C101.016 594.168 100.516 594.523 100.011 594.876C99.8725 595.575 99.7375 596.276 99.6046 596.978ZM96.9217 598.632C97.4324 598.313 97.9377 597.991 98.4531 597.673C98.5767 597.016 98.707 596.36 98.8348 595.704C98.3682 596.036 97.8995 596.366 97.4376 596.699C97.2635 597.343 97.0872 597.986 96.9217 598.632ZM94.3186 600.275C94.7763 599.981 95.2408 599.688 95.7036 599.396C95.8526 598.805 96.0088 598.216 96.1664 597.627C95.7426 597.937 95.3143 598.244 94.8943 598.556C94.699 599.128 94.5071 599.701 94.3186 600.275ZM91.797 601.919C92.1995 601.652 92.6109 601.389 93.0156 601.124C93.1795 600.618 93.3357 600.109 93.5034 599.603C93.1332 599.882 92.7659 600.162 92.3991 600.442C92.1949 600.933 91.9966 601.427 91.797 601.919ZM89.3481 603.567C89.6856 603.336 90.0223 603.106 90.3641 602.877C90.5326 602.454 90.7088 602.033 90.8799 601.611C90.5747 601.85 90.2754 602.092 89.9722 602.332C89.7642 602.743 89.5515 603.153 89.3481 603.567ZM87.0528 605.147C87.2974 604.977 87.5347 604.803 87.7797 604.633C87.9232 604.333 88.0591 604.031 88.206 603.731C87.9894 603.906 87.7818 604.083 87.5674 604.258C87.3916 604.553 87.2265 604.851 87.0528 605.147ZM84.9257 606.655L85.2263 606.443C85.3146 606.286 85.4072 606.13 85.4967 605.974C85.422 606.037 85.3447 606.099 85.2692 606.163L84.9257 606.655ZM274.503 191.855L275.672 193.036L275.601 192.945C275.196 192.521 274.764 192.083 274.352 191.655L274.503 191.855ZM267.656 185.012C268.402 185.739 269.162 186.473 269.883 187.189L269.372 186.513C268.586 185.701 267.794 184.886 267.017 184.079C267.237 184.393 267.436 184.699 267.656 185.012ZM260.592 178.11C261.741 179.235 262.903 180.365 264.049 181.488C263.606 180.867 263.142 180.238 262.694 179.614C261.652 178.558 260.557 177.477 259.477 176.402C259.856 176.975 260.217 177.54 260.592 178.11ZM253.305 171.034C254.761 172.428 256.164 173.798 257.593 175.18C257.147 174.513 256.696 173.844 256.244 173.175C254.841 171.774 253.431 170.369 252.028 168.968C252.454 169.657 252.886 170.348 253.305 171.034ZM245.932 164.051C247.531 165.562 249.138 167.076 250.708 168.574C250.209 167.769 249.727 166.971 249.217 166.162C247.7 164.67 246.133 163.155 244.563 161.639C245.021 162.443 245.484 163.249 245.932 164.051ZM238.148 156.694C240.009 158.433 241.786 160.135 243.624 161.863C243.136 161.007 242.62 160.14 242.121 159.279C240.389 157.601 238.651 155.921 236.906 154.237C237.331 155.059 237.735 155.874 238.148 156.694ZM230.337 149.506C232.298 151.302 234.264 153.102 236.172 154.875C235.714 153.984 235.273 153.099 234.803 152.204C232.932 150.417 231.009 148.606 229.079 146.792C229.494 147.695 229.935 148.606 230.337 149.506ZM222.129 141.951C224.29 143.924 226.365 145.856 228.505 147.82C228.085 146.899 227.652 145.973 227.22 145.048C225.193 143.141 223.161 141.232 221.108 139.314C221.46 140.196 221.788 141.072 222.129 141.951ZM213.818 134.5C216.077 136.514 218.348 138.535 220.536 140.516C220.174 139.595 219.82 138.676 219.444 137.752C217.302 135.763 215.111 133.751 212.906 131.733C213.214 132.656 213.523 133.579 213.818 134.5ZM205.225 126.804C207.632 128.951 209.979 131.069 212.38 133.211C212.072 132.269 211.738 131.321 211.419 130.376C209.13 128.282 206.835 126.185 204.512 124.076C204.75 124.985 204.998 125.896 205.225 126.804ZM104.899 597.102C105.57 596.763 106.244 596.426 106.92 596.09C106.925 595.22 106.935 594.352 106.949 593.484C106.319 593.845 105.696 594.21 105.071 594.574C105.01 595.417 104.95 596.259 104.899 597.102ZM101.933 598.629C102.577 598.294 103.217 597.957 103.868 597.624C103.913 596.811 103.966 595.999 104.021 595.187C103.42 595.541 102.817 595.895 102.223 596.25C102.122 597.042 102.024 597.835 101.933 598.629ZM99.0216 600.162C99.6339 599.835 100.246 599.509 100.864 599.184C100.948 598.426 101.034 597.669 101.127 596.912C100.556 597.258 99.9799 597.6 99.4156 597.948C99.2789 598.684 99.1511 599.422 99.0216 600.162ZM96.1664 601.701C96.74 601.386 97.3255 601.075 97.9038 600.763C98.0231 600.064 98.1377 599.363 98.2633 598.666C97.725 599 97.1896 599.335 96.6572 599.672C96.4903 600.347 96.3281 601.024 96.1664 601.701ZM93.3569 603.271C93.8961 602.966 94.4417 602.663 94.9856 602.36C95.1363 601.717 95.296 601.075 95.4522 600.432C94.9474 600.756 94.4541 601.083 93.9548 601.409C93.7531 602.029 93.5488 602.648 93.3569 603.271ZM90.649 604.827C91.1394 604.541 91.6255 604.254 92.1218 603.97C92.2942 603.398 92.4725 602.826 92.6538 602.256C92.1948 602.56 91.7402 602.865 91.2859 603.17C91.068 603.721 90.86 604.275 90.649 604.827ZM88.0115 606.382C88.4458 606.122 88.8781 605.861 89.3162 605.602C89.5009 605.11 89.6856 604.619 89.8737 604.129C89.4822 604.396 89.0849 604.66 88.6981 604.929C88.4688 605.413 88.2361 605.897 88.0115 606.382ZM85.4721 607.922C85.8233 607.705 86.1837 607.492 86.5361 607.276C86.7216 606.867 86.9161 606.461 87.1084 606.054C86.7824 606.285 86.4524 606.516 86.1281 606.748C85.9069 607.138 85.6891 607.53 85.4721 607.922ZM83.0622 609.443L83.8422 608.949C84.0005 608.655 84.1597 608.359 84.3211 608.065L83.6328 608.574L83.0622 609.443ZM80.8158 610.896L81.1754 610.657L81.4573 610.214L81.1652 610.441L80.8158 610.896ZM278.383 197.175C279.141 197.911 279.892 198.643 280.631 199.37L280.042 198.616C279.302 197.862 278.532 197.093 277.78 196.334C277.986 196.616 278.179 196.894 278.383 197.175ZM271.267 190.282C272.435 191.416 273.617 192.557 274.786 193.691C274.399 193.165 273.975 192.623 273.583 192.095C272.41 190.918 271.279 189.76 270.101 188.579C270.491 189.147 270.881 189.716 271.267 190.282ZM263.99 183.315C265.345 184.594 266.702 185.874 268.018 187.134C267.574 186.494 267.157 185.865 266.707 185.223C265.382 183.913 264.006 182.581 262.644 181.255C263.086 181.938 263.557 182.634 263.99 183.315ZM256.333 176.08C257.947 177.602 259.551 179.12 261.157 180.638C260.66 179.87 260.155 179.1 259.649 178.328C258.089 176.811 256.569 175.311 255.004 173.791C255.466 174.561 255.881 175.314 256.333 176.08ZM248.546 168.848C250.367 170.522 252.201 172.202 253.966 173.85C253.452 172.993 252.892 172.117 252.366 171.255C250.68 169.638 248.925 167.99 247.184 166.348C247.644 167.183 248.097 168.017 248.546 168.848ZM240.545 161.463C242.531 163.281 244.444 165.065 246.403 166.87C245.925 166 245.472 165.138 244.983 164.264C243.053 162.44 241.154 160.63 239.215 158.802C239.656 159.688 240.115 160.581 240.545 161.463ZM232.284 154.006C234.415 155.923 236.551 157.842 238.63 159.733C238.167 158.796 237.677 157.85 237.202 156.908C235.231 155.071 233.171 153.192 231.13 151.323C231.524 152.221 231.9 153.112 232.284 154.006ZM223.837 146.423C226.113 148.45 228.341 150.455 230.573 152.462C230.174 151.547 229.797 150.639 229.386 149.719C227.181 147.692 225.003 145.677 222.783 143.644C223.134 144.57 223.498 145.5 223.837 146.423ZM215.129 138.729C217.536 140.848 219.934 142.962 222.292 145.057C221.931 144.096 221.546 143.127 221.172 142.162C218.932 140.128 216.596 138.049 214.276 135.978C214.565 136.896 214.853 137.814 215.129 138.729ZM206.207 130.927C208.736 133.123 211.249 135.313 213.717 137.481C213.432 136.557 213.153 135.634 212.857 134.707C210.419 132.526 208.014 130.361 205.559 128.172C205.785 129.092 205.993 130.009 206.207 130.927ZM104.729 600.508C105.46 600.184 106.189 599.859 106.926 599.537C106.919 598.648 106.92 597.76 106.921 596.872C106.232 597.216 105.541 597.56 104.86 597.907C104.814 598.773 104.769 599.64 104.729 600.508ZM101.579 601.922C102.282 601.601 102.991 601.283 103.701 600.966C103.737 600.124 103.782 599.283 103.827 598.443C103.163 598.785 102.501 599.128 101.843 599.473C101.751 600.288 101.66 601.104 101.579 601.922ZM98.4863 603.347C99.1575 603.032 99.8394 602.723 100.518 602.411C100.594 601.617 100.684 600.825 100.773 600.032C100.132 600.371 99.5023 600.714 98.868 601.056C98.7376 601.818 98.6073 602.581 98.4863 603.347ZM95.4586 604.792C96.101 604.482 96.7463 604.172 97.3964 603.865C97.5097 603.128 97.6282 602.392 97.7509 601.657C97.1399 601.989 96.537 602.325 95.9337 602.66C95.769 603.369 95.6153 604.08 95.4586 604.792ZM92.4802 606.25C93.0937 605.945 93.7008 605.638 94.3211 605.336C94.468 604.662 94.6086 603.988 94.7597 603.316C94.1925 603.635 93.6219 603.952 93.061 604.273C92.8644 604.932 92.67 605.59 92.4802 606.25ZM89.5723 607.713C90.1374 607.423 90.7076 607.136 91.2774 606.849C91.4536 606.228 91.6391 605.611 91.823 604.993C91.2931 605.3 90.7598 605.605 90.2372 605.914C90.0117 606.512 89.7875 607.111 89.5723 607.713ZM86.7552 609.173C87.2672 608.903 87.7903 608.637 88.3074 608.369C88.5019 607.817 88.6938 607.265 88.8959 606.715C88.4106 607.006 87.9304 607.297 87.4515 607.59C87.2146 608.116 86.9866 608.645 86.7552 609.173ZM83.9861 610.665C84.448 610.413 84.9108 610.162 85.3774 609.912C85.5855 609.429 85.8012 608.948 86.0126 608.466C85.5833 608.733 85.1647 609.005 84.7397 609.273C84.4871 609.736 84.2311 610.199 83.9861 610.665ZM81.366 612.117C81.7498 611.901 82.1252 611.683 82.5124 611.468C82.7106 611.081 82.9026 610.692 83.1055 610.307C82.7557 610.533 82.4113 610.76 82.0636 610.986C81.8262 611.362 81.5991 611.741 81.366 612.117ZM78.8483 613.55C79.1251 613.388 79.4096 613.229 79.6894 613.068C79.8626 612.781 80.0439 612.496 80.2184 612.209C79.9734 612.374 79.7212 612.535 79.4775 612.701C79.2695 612.984 79.0529 613.265 78.8483 613.55ZM76.5509 614.914L76.939 614.684L77.2379 614.254L76.9122 614.48C76.7912 614.624 76.6723 614.77 76.5509 614.914ZM289.469 209.543C290.215 210.259 290.976 210.983 291.703 211.69C291.466 211.394 291.213 211.09 290.976 210.793C290.255 210.066 289.497 209.322 288.757 208.586L289.469 209.543ZM282.296 202.644L285.586 205.807C285.22 205.323 284.881 204.85 284.511 204.364C283.372 203.232 282.246 202.107 281.101 200.973C281.493 201.528 281.909 202.092 282.296 202.644ZM274.853 195.59C276.181 196.834 277.523 198.083 278.815 199.311C278.346 198.654 277.879 197.999 277.403 197.338C276.137 196.102 274.83 194.844 273.536 193.594C273.984 194.263 274.413 194.924 274.853 195.59ZM267.069 188.28C268.714 189.815 270.308 191.325 271.938 192.852C271.404 192.058 270.836 191.251 270.293 190.453C268.744 188.961 267.23 187.484 265.654 185.98C266.136 186.751 266.595 187.513 267.069 188.28ZM259.237 181.077C261.025 182.713 262.82 184.354 264.568 185.972C264.049 185.145 263.552 184.325 263.023 183.494C261.284 181.842 259.514 180.176 257.746 178.511C258.242 179.366 258.753 180.226 259.237 181.077ZM251.094 173.633C253.071 175.425 254.998 177.193 256.942 178.97C256.421 178.07 255.905 177.173 255.372 176.269C253.514 174.528 251.63 172.776 249.726 171.013C250.191 171.89 250.64 172.761 251.094 173.633ZM242.74 166.127C244.882 168.046 247.017 169.961 249.122 171.863C248.63 170.928 248.091 169.977 247.584 169.038C245.546 167.154 243.503 165.267 241.443 163.373C241.884 164.294 242.313 165.211 242.74 166.127ZM234.203 158.533C236.464 160.53 238.706 162.517 240.916 164.489C240.468 163.544 240.045 162.607 239.584 161.658C237.449 159.709 235.233 157.723 233.031 155.743C233.424 156.674 233.822 157.607 234.203 158.533ZM225.38 150.766C227.796 152.885 230.179 154.987 232.565 157.092C232.166 156.132 231.734 155.164 231.32 154.2C229.007 152.116 226.731 150.05 224.379 147.948C224.72 148.889 225.052 149.828 225.38 150.766ZM216.368 142.953C218.891 145.125 221.421 147.301 223.874 149.44C223.538 148.499 223.218 147.562 222.871 146.617C220.48 144.489 218.029 142.332 215.577 140.174C215.853 141.103 216.103 142.026 216.368 142.953ZM207.127 134.985C209.793 137.269 212.382 139.517 215.017 141.786C214.741 140.835 214.454 139.881 214.166 138.927C211.636 136.703 209.092 134.473 206.511 132.225C206.722 133.146 206.927 134.066 207.127 134.985ZM104.604 603.921C105.39 603.616 106.184 603.315 106.978 603.014C106.961 602.102 106.937 601.19 106.926 600.28C106.177 600.609 105.434 600.941 104.691 601.273C104.656 602.154 104.631 603.038 104.604 603.921ZM101.284 605.225C102.046 604.922 102.815 604.621 103.585 604.321C103.611 603.457 103.63 602.592 103.664 601.729C102.936 602.057 102.219 602.389 101.499 602.719C101.421 603.553 101.354 604.389 101.284 605.225ZM98.012 606.552C98.752 606.248 99.4908 605.943 100.238 605.642C100.305 604.829 100.376 604.016 100.449 603.202C99.751 603.526 99.0543 603.85 98.3635 604.176C98.2434 604.967 98.1228 605.758 98.012 606.552ZM94.8026 607.887C95.51 607.588 96.2173 607.288 96.9336 606.992C97.038 606.225 97.156 605.461 97.2732 604.698C96.6045 605.016 95.9324 605.333 95.2713 605.654C95.1113 606.397 94.9525 607.141 94.8026 607.887ZM91.6607 609.23C92.3324 608.937 93.0147 608.648 93.6941 608.358C93.8354 607.644 93.9789 606.931 94.1305 606.219C93.4864 606.535 92.8458 606.854 92.2097 607.174C92.0187 607.857 91.8424 608.544 91.6607 609.23ZM88.5677 610.599C89.2054 610.312 89.8542 610.028 90.4991 609.744C90.6715 609.084 90.8451 608.424 91.0252 607.766C90.4193 608.073 89.8287 608.386 89.23 608.696C89.0071 609.33 88.78 609.962 88.5677 610.599ZM85.5642 611.976C86.1582 611.7 86.7497 611.424 87.3483 611.151C87.5474 610.549 87.7572 609.95 87.9656 609.351C87.4005 609.648 86.8427 609.948 86.2839 610.247C86.0372 610.821 85.802 611.399 85.5642 611.976ZM82.6206 613.365C83.1709 613.1 83.7161 612.835 84.2731 612.573C84.4867 612.043 84.6977 611.513 84.918 610.986C84.4153 611.259 83.9075 611.531 83.4099 611.806C83.1467 612.326 82.8779 612.843 82.6206 613.365ZM79.7887 614.74C80.2604 614.505 80.7432 614.275 81.2196 614.042C81.4446 613.577 81.6798 613.115 81.9138 612.653C81.4633 612.907 81.0115 613.16 80.5661 613.416C80.3012 613.856 80.046 614.298 79.7887 614.74ZM77.0434 616.13C77.4446 615.923 77.8535 615.72 78.2581 615.515C78.4751 615.137 78.6916 614.758 78.9111 614.381C78.5405 614.599 78.1719 614.818 77.8034 615.038C77.5508 615.402 77.2931 615.765 77.0434 616.13ZM74.4501 617.489C74.7443 617.332 75.0377 617.175 75.3341 617.019C75.5192 616.742 75.7026 616.465 75.8899 616.189C75.613 616.359 75.3417 616.532 75.0657 616.703C74.8551 616.963 74.6568 617.228 74.4501 617.489ZM72.058 618.774C72.2058 618.693 72.3476 618.61 72.4966 618.529C72.6066 618.386 72.7208 618.244 72.8312 618.101C72.7046 618.183 72.5832 618.266 72.4563 618.348C72.3242 618.49 72.1888 618.631 72.058 618.774ZM300.897 222.095C301.6 222.769 302.319 223.451 303.013 224.12C302.808 223.867 302.622 223.624 302.417 223.371C301.69 222.645 300.927 221.903 300.184 221.17C300.419 221.477 300.665 221.789 300.897 222.095ZM293.579 215.091C294.623 216.083 295.625 217.054 296.662 218.042C296.29 217.562 295.929 217.086 295.554 216.604C294.51 215.579 293.493 214.567 292.443 213.537C292.818 214.054 293.206 214.576 293.579 215.091ZM285.943 207.93C287.288 209.185 288.643 210.446 289.966 211.691C289.476 211.024 288.966 210.349 288.468 209.679C287.209 208.459 285.912 207.222 284.633 205.992C285.081 206.643 285.501 207.281 285.943 207.93ZM278.124 200.65C279.766 202.164 281.361 203.655 282.976 205.156C282.437 204.378 281.868 203.588 281.318 202.806C279.765 201.323 278.219 199.843 276.634 198.345C277.135 199.115 277.634 199.884 278.124 200.65ZM270.241 193.439C271.988 195.035 273.739 196.632 275.467 198.218C274.929 197.394 274.419 196.58 273.87 195.751C272.141 194.123 270.394 192.485 268.648 190.85C269.17 191.709 269.731 192.584 270.241 193.439ZM261.937 185.922C263.903 187.685 265.854 189.442 267.774 191.182C267.225 190.277 266.657 189.364 266.095 188.453C264.275 186.762 262.402 185.047 260.531 183.332C261.019 184.202 261.462 185.056 261.937 185.922ZM253.496 178.361C255.633 180.268 257.743 182.163 259.859 184.061C259.341 183.132 258.806 182.195 258.272 181.261C256.206 179.366 254.179 177.489 252.083 175.581C252.559 176.509 253.034 177.437 253.496 178.361ZM244.863 170.751C247.109 172.716 249.367 174.688 251.553 176.625C251.078 175.689 250.613 174.757 250.125 173.815C247.986 171.879 245.791 169.917 243.601 167.956C244.028 168.89 244.448 169.821 244.863 170.751ZM235.951 162.941C238.39 165.062 240.759 167.15 243.158 169.254C242.719 168.282 242.233 167.295 241.778 166.318C239.479 164.263 237.181 162.209 234.837 160.132C235.215 161.07 235.586 162.007 235.951 162.941ZM226.859 155.105C229.382 157.272 231.896 159.434 234.366 161.576C233.989 160.624 233.626 159.677 233.234 158.721C230.817 156.585 228.379 154.44 225.918 152.283C226.243 153.227 226.548 154.165 226.859 155.105ZM217.547 147.142C220.204 149.399 222.826 151.641 225.429 153.872C225.102 152.904 224.753 151.93 224.413 150.959C221.898 148.761 219.33 146.539 216.75 144.311C217.013 145.254 217.295 146.202 217.547 147.142ZM207.976 139.041C210.748 141.376 213.476 143.691 216.203 146.004C215.943 145.053 215.67 144.099 215.398 143.145C212.728 140.839 210.095 138.552 207.387 136.229C207.587 137.167 207.788 138.105 207.976 139.041ZM104.517 607.355C105.363 607.07 106.211 606.787 107.064 606.506C107.035 605.574 107.013 604.644 106.992 603.715C106.186 604.024 105.381 604.334 104.582 604.646C104.555 605.548 104.532 606.451 104.517 607.355ZM101.031 608.549C101.856 608.264 102.675 607.974 103.507 607.692C103.521 606.809 103.54 605.927 103.564 605.046C102.781 605.354 101.994 605.66 101.22 605.971C101.152 606.829 101.089 607.689 101.031 608.549ZM97.5972 609.758C98.3941 609.473 99.1932 609.188 99.9994 608.907C100.055 608.07 100.11 607.233 100.174 606.398C99.4131 606.706 98.6523 607.014 97.9003 607.325C97.7916 608.134 97.6974 608.947 97.5972 609.758ZM94.2099 610.982C94.978 610.699 95.7601 610.42 96.5375 610.14C96.6317 609.348 96.7294 608.557 96.8313 607.767C96.0976 608.073 95.3736 608.383 94.6485 608.693C94.4977 609.455 94.3492 610.217 94.2099 610.982ZM90.8935 612.229C91.6293 611.949 92.3707 611.671 93.1141 611.394C93.247 610.648 93.3951 609.905 93.5403 609.163C92.8326 609.468 92.1333 609.777 91.434 610.085C91.2476 610.798 91.0697 611.513 90.8935 612.229ZM87.6379 613.492C88.3478 613.213 89.0513 612.933 89.7693 612.656C89.9336 611.969 90.0975 611.282 90.2724 610.598C89.6028 610.896 88.9341 611.194 88.273 611.494C88.0569 612.159 87.8459 612.825 87.6379 613.492ZM84.4459 614.77C85.1146 614.498 85.7825 614.225 86.4584 613.956C86.6541 613.32 86.8583 612.687 87.063 612.053C86.4338 612.342 85.8011 612.63 85.1791 612.922C84.9303 613.537 84.6833 614.152 84.4459 614.77ZM81.3401 616.048C81.9575 615.789 82.5871 615.534 83.2112 615.276C83.4307 614.698 83.6498 614.12 83.8778 613.543C83.2868 613.826 82.7009 614.109 82.1158 614.394C81.8526 614.944 81.5974 615.496 81.3401 616.048ZM78.2955 617.359C78.8631 617.112 79.4372 616.867 80.0108 616.621C80.2481 616.1 80.4969 615.582 80.741 615.063C80.1993 615.332 79.6699 615.606 79.1345 615.876C78.8508 616.37 78.5697 616.863 78.2955 617.359ZM75.3625 618.667C75.8711 618.437 76.3734 618.206 76.8867 617.978C77.1258 617.536 77.358 617.091 77.603 616.651C77.1317 616.894 76.666 617.14 76.1985 617.385C75.9166 617.811 75.6393 618.238 75.3625 618.667ZM72.5319 619.968C72.9543 619.77 73.3734 619.571 73.798 619.375C74.0289 619.009 74.2731 618.647 74.5104 618.283C74.1211 618.491 73.7245 618.696 73.3398 618.906C73.0681 619.259 72.7981 619.613 72.5319 619.968ZM69.8655 621.238C70.1716 621.088 70.4883 620.942 70.797 620.793C70.9906 620.531 71.1804 620.267 71.3761 620.006C71.0951 620.163 70.8097 620.319 70.5316 620.478C70.3083 620.731 70.0854 620.983 69.8655 621.238ZM67.3643 622.483L67.825 622.253C67.9345 622.122 68.0394 621.99 68.1502 621.86L67.7354 622.105C67.6085 622.23 67.4908 622.358 67.3643 622.483ZM312.625 234.791C313.204 235.346 313.796 235.906 314.375 236.46C314.182 236.225 313.996 235.995 313.8 235.76C313.2 235.167 312.577 234.562 311.97 233.967C312.183 234.238 312.414 234.519 312.625 234.791ZM304.967 227.52C305.994 228.483 306.998 229.432 308.006 230.385C307.638 229.923 307.266 229.456 306.895 228.992C305.882 228.004 304.918 227.041 303.89 226.046C304.26 226.543 304.601 227.026 304.967 227.52ZM297.3 220.373C298.673 221.655 300.058 222.942 301.429 224.222C300.929 223.558 300.382 222.873 299.874 222.206C298.574 220.957 297.249 219.697 295.942 218.445C296.4 219.09 296.848 219.731 297.3 220.373ZM289.492 213.174C291.04 214.586 292.594 216 294.102 217.392C293.582 216.665 293.103 215.956 292.575 215.225C291.048 213.78 289.487 212.318 287.92 210.853C288.439 211.624 288.982 212.407 289.492 213.174ZM281.382 205.775C283.153 207.384 284.89 208.976 286.646 210.578C286.087 209.749 285.529 208.919 284.958 208.085C283.251 206.489 281.563 204.904 279.839 203.301C280.362 204.129 280.87 204.952 281.382 205.775ZM273.055 198.308C275.02 200.06 276.993 201.815 278.912 203.544C278.342 202.641 277.726 201.719 277.144 200.811C275.312 199.122 273.427 197.408 271.55 195.698C272.065 196.573 272.554 197.438 273.055 198.308ZM264.551 190.732C266.676 192.611 268.748 194.464 270.837 196.326C270.305 195.418 269.812 194.524 269.267 193.61C267.203 191.732 265.148 189.857 263.044 187.959C263.543 188.883 264.064 189.814 264.551 190.732ZM255.794 183.054C258.05 185.026 260.299 186.994 262.515 188.947C262.007 188.001 261.491 187.052 260.968 186.1C258.823 184.171 256.654 182.231 254.474 180.286C254.931 181.215 255.351 182.131 255.794 183.054ZM246.828 175.266C249.241 177.347 251.635 179.42 253.993 181.475C253.52 180.503 253.017 179.52 252.527 178.543C250.251 176.521 247.927 174.476 245.592 172.426C246.01 173.374 246.425 174.322 246.828 175.266ZM237.636 167.352C240.165 169.52 242.656 171.67 245.153 173.823C244.735 172.861 244.328 171.903 243.896 170.936C241.455 168.794 239.048 166.666 236.573 164.507C236.939 165.459 237.284 166.404 237.636 167.352ZM228.245 159.385C230.89 161.616 233.55 163.854 236.124 166.051C235.759 165.081 235.363 164.103 234.983 163.13C232.473 160.95 229.894 158.738 227.319 156.527C227.629 157.48 227.949 158.435 228.245 159.385ZM218.587 151.236C221.368 153.569 224.083 155.87 226.824 158.182C226.517 157.221 226.207 156.259 225.888 155.294C223.232 153.015 220.583 150.738 217.879 148.435C218.124 149.371 218.353 150.303 218.587 151.236ZM208.74 143.045C211.618 145.43 214.481 147.807 217.294 150.161C217.053 149.218 216.829 148.279 216.578 147.334C213.822 144.992 211.039 142.637 208.228 140.268C208.411 141.196 208.568 142.119 208.74 143.045ZM104.482 610.804C105.387 610.54 106.29 610.276 107.202 610.015C107.159 609.069 107.123 608.125 107.091 607.181C106.226 607.467 105.362 607.752 104.509 608.041C104.496 608.961 104.484 609.881 104.482 610.804ZM100.822 611.885C101.701 611.621 102.587 611.359 103.474 611.098C103.475 610.193 103.487 609.29 103.501 608.388C102.658 608.676 101.822 608.967 100.986 609.258C100.927 610.133 100.867 611.007 100.822 611.885ZM97.2278 612.977C98.0774 612.713 98.9426 612.456 99.8007 612.195C99.8436 611.333 99.8979 610.475 99.9536 609.615C99.1295 609.905 98.3198 610.201 97.505 610.494C97.4065 611.32 97.3153 612.149 97.2278 612.977ZM93.6817 614.101C94.5122 613.835 95.3457 613.57 96.1838 613.307C96.2661 612.496 96.3498 611.685 96.4449 610.876C95.6497 611.165 94.8591 611.456 94.0711 611.749C93.936 612.531 93.8087 613.316 93.6817 614.101ZM90.1807 615.245C90.9899 614.977 91.7924 614.706 92.6101 614.441C92.732 613.678 92.8597 612.917 92.9875 612.156C92.2267 612.442 91.4595 612.726 90.7067 613.016C90.5267 613.758 90.3463 614.499 90.1807 615.245ZM86.7683 616.394C87.5356 616.131 88.3075 615.869 89.0832 615.609C89.2407 614.89 89.4083 614.173 89.5778 613.458C88.839 613.745 88.1045 614.033 87.3742 614.323C87.1653 615.011 86.9683 615.703 86.7683 616.394ZM83.4027 617.563C84.1351 617.302 84.8845 617.048 85.625 616.791C85.816 616.124 86.002 615.455 86.2003 614.79C85.4993 615.073 84.811 615.359 84.1194 615.644C83.8778 616.283 83.6328 616.921 83.4027 617.563ZM80.1225 618.758C80.8116 618.504 81.5061 618.251 82.2046 617.999C82.4236 617.381 82.6555 616.766 82.8856 616.151C82.2177 616.43 81.5567 616.714 80.8956 616.996C80.6298 617.581 80.3776 618.17 80.1225 618.758ZM76.8944 619.973C77.5512 619.722 78.2017 619.467 78.867 619.218C79.1035 618.665 79.3382 618.111 79.5824 617.561C78.9744 617.825 78.3634 618.089 77.761 618.356C77.4701 618.894 77.175 619.431 76.8944 619.973ZM73.7852 621.183C74.3754 620.948 74.9664 620.715 75.5625 620.483C75.8155 619.986 76.0762 619.492 76.3403 618.998C75.776 619.252 75.2063 619.505 74.6484 619.762C74.3533 620.233 74.0748 620.709 73.7852 621.183ZM70.741 622.41C71.2666 622.193 71.8058 621.982 72.3366 621.767C72.5926 621.338 72.8549 620.91 73.1161 620.482C72.6223 620.715 72.1298 620.949 71.6411 621.184C71.3405 621.593 71.0327 621.998 70.741 622.41ZM67.8449 623.638C68.2835 623.45 68.7243 623.262 69.1675 623.076C69.4104 622.726 69.6452 622.376 69.8927 622.029C69.4766 622.233 69.0698 622.441 68.658 622.647C68.3829 622.976 68.1145 623.307 67.8449 623.638ZM65.0563 624.858C65.39 624.709 65.7174 624.558 66.0536 624.41C66.2625 624.149 66.4803 623.892 66.6926 623.633C66.3772 623.795 66.0727 623.962 65.7615 624.125C65.5263 624.369 65.2877 624.612 65.0563 624.858ZM62.5657 625.978C62.7207 625.906 62.8821 625.837 63.0387 625.765L63.3903 625.38C63.254 625.455 63.1113 625.527 62.9755 625.601L62.5657 625.978ZM324.25 247.257L326.017 248.938L325.508 248.335C324.931 247.769 324.339 247.196 323.761 246.63C323.929 246.841 324.083 247.046 324.25 247.257ZM316.657 240.124C317.682 241.076 318.72 242.036 319.724 242.979C319.336 242.498 318.92 242.004 318.528 241.522C317.553 240.579 316.56 239.628 315.561 238.674C315.932 239.16 316.29 239.641 316.657 240.124ZM308.911 232.916C310.269 234.169 311.573 235.396 312.916 236.642C312.462 236.052 312.048 235.481 311.588 234.888C310.23 233.595 308.885 232.306 307.517 231.007C307.98 231.642 308.455 232.283 308.911 232.916ZM301.1 225.787C302.597 227.151 304.107 228.519 305.583 229.871C305.037 229.128 304.506 228.39 303.952 227.642C302.493 226.272 300.988 224.879 299.498 223.492C300.025 224.254 300.582 225.029 301.1 225.787ZM292.796 218.26C294.581 219.864 296.33 221.449 298.081 223.036C297.503 222.203 296.896 221.357 296.306 220.519C294.626 218.96 292.966 217.412 291.257 215.839C291.786 216.653 292.274 217.45 292.796 218.26ZM284.419 210.779C286.383 212.529 288.344 214.278 290.284 216.017C289.704 215.129 289.106 214.232 288.513 213.338C286.633 211.616 284.726 209.882 282.821 208.148C283.359 209.027 283.893 209.905 284.419 210.779ZM275.9 203.257C277.971 205.071 280.041 206.884 282.059 208.672C281.503 207.76 280.969 206.857 280.399 205.939C278.398 204.129 276.35 202.296 274.295 200.46C274.822 201.389 275.387 202.333 275.9 203.257ZM266.974 195.436C269.26 197.428 271.487 199.39 273.743 201.367C273.204 200.411 272.634 199.443 272.08 198.481C269.911 196.544 267.775 194.623 265.577 192.672C266.061 193.6 266.504 194.513 266.974 195.436ZM257.977 187.686C260.364 189.734 262.758 191.785 265.087 193.804C264.591 192.843 264.097 191.883 263.586 190.917C261.305 188.902 258.962 186.858 256.624 184.816C257.076 185.773 257.54 186.735 257.977 187.686ZM248.693 179.734C251.227 181.891 253.714 184.024 256.201 186.157C255.747 185.186 255.293 184.214 254.824 183.238C252.415 181.134 249.999 179.027 247.54 176.899C247.939 177.849 248.307 178.789 248.693 179.734ZM239.226 171.728C241.878 173.962 244.511 176.189 247.115 178.4C246.711 177.423 246.284 176.439 245.865 175.457C243.323 173.263 240.762 171.059 238.178 168.843C238.529 169.805 238.889 170.769 239.226 171.728ZM229.508 163.589C232.27 165.891 235.025 168.188 237.725 170.459C237.378 169.488 237.028 168.517 236.666 167.542C234.047 165.305 231.366 163.036 228.682 160.766C228.971 161.711 229.229 162.648 229.508 163.589ZM219.589 155.338C222.477 157.728 225.301 160.087 228.147 162.457C227.86 161.498 227.576 160.54 227.274 159.577C224.488 157.221 221.739 154.882 218.907 152.504C219.14 153.45 219.368 154.395 219.589 155.338ZM209.458 147.031C212.442 149.467 215.435 151.908 218.338 154.304C218.11 153.349 217.853 152.387 217.614 151.429C214.777 149.053 211.869 146.643 208.959 144.231C209.128 145.165 209.299 146.099 209.458 147.031ZM104.507 614.263C105.462 614.024 106.426 613.788 107.39 613.552C107.335 612.591 107.275 611.629 107.227 610.669C106.303 610.934 105.391 611.203 104.476 611.471C104.479 612.4 104.496 613.332 104.507 614.263ZM100.682 615.233C101.615 614.992 102.56 614.755 103.503 614.517C103.492 613.599 103.478 612.68 103.474 611.763C102.574 612.029 101.683 612.298 100.793 612.568C100.753 613.455 100.714 614.343 100.682 615.233ZM96.9068 616.229C97.8214 615.984 98.7389 615.74 99.6632 615.499C99.6929 614.623 99.732 613.75 99.7731 612.878C98.8977 613.144 98.0234 613.412 97.1577 613.682C97.069 614.53 96.982 615.378 96.9068 616.229ZM93.2054 617.237C94.0936 616.991 94.9784 616.745 95.8751 616.502C95.9468 615.67 96.0288 614.841 96.1124 614.013C95.2603 614.281 94.4048 614.549 93.5629 614.821C93.4359 615.625 93.3209 616.431 93.2054 617.237ZM89.5472 618.266C90.4095 618.018 91.2782 617.774 92.1507 617.53C92.2615 616.744 92.3681 615.956 92.4891 615.173C91.6629 615.443 90.8417 615.715 90.024 615.989C89.8614 616.747 89.7001 617.505 89.5472 618.266ZM85.9599 619.31C86.7862 619.064 87.6252 618.824 88.4616 618.582C88.6093 617.836 88.7681 617.095 88.9282 616.352C88.1253 616.623 87.3377 616.901 86.545 617.175C86.3442 617.885 86.148 618.596 85.9599 619.31ZM82.4356 620.385C83.235 620.138 84.0379 619.891 84.8467 619.647C85.0276 618.954 85.2084 618.262 85.4003 617.572C84.6348 617.841 83.8723 618.111 83.114 618.384C82.8826 619.049 82.658 619.717 82.4356 620.385ZM78.974 621.477C79.7403 621.231 80.4995 620.983 81.2752 620.739C81.4858 620.097 81.7074 619.457 81.9277 618.816C81.2026 619.08 80.4698 619.342 79.7535 619.609C79.4881 620.23 79.2274 620.853 78.974 621.477ZM75.5939 622.581C76.3144 622.34 77.0409 622.102 77.7682 621.865C78.0047 621.273 78.2412 620.682 78.4887 620.093C77.8013 620.354 77.1169 620.613 76.4388 620.877C76.1544 621.444 75.8712 622.011 75.5939 622.581ZM72.2954 623.7C72.9581 623.469 73.6362 623.245 74.3074 623.017C74.5673 622.474 74.8403 621.934 75.1111 621.395C74.4637 621.65 73.8277 621.91 73.187 622.169C72.8838 622.677 72.5887 623.188 72.2954 623.7ZM69.0724 624.85C69.6906 624.626 70.3109 624.403 70.9367 624.182C71.2051 623.705 71.4649 623.225 71.7421 622.751C71.1567 622.992 70.5856 623.238 70.0086 623.481C69.6953 623.937 69.379 624.391 69.0724 624.85ZM65.9649 625.999C66.5113 625.793 67.0497 625.583 67.6029 625.379C67.8721 624.967 68.1536 624.558 68.4338 624.149C67.9103 624.374 67.386 624.6 66.8676 624.827C66.5585 625.215 66.2664 625.609 65.9649 625.999ZM62.9581 627.15C63.42 626.969 63.8875 626.789 64.3545 626.61C64.6067 626.276 64.8619 625.945 65.1166 625.613C64.6929 625.804 64.262 625.992 63.8425 626.184C63.5491 626.507 63.2464 626.826 62.9581 627.15ZM60.1495 628.279C60.4823 628.142 60.8216 628.009 61.157 627.874C61.3617 627.637 61.5569 627.397 61.7658 627.162C61.455 627.309 61.1438 627.456 60.8369 627.603C60.6038 627.827 60.3792 628.054 60.1495 628.279ZM57.4802 629.397L58.0126 629.171C58.1327 629.048 58.2606 628.929 58.3833 628.807L57.8975 629.051C57.7608 629.167 57.6173 629.281 57.4802 629.397ZM336.083 259.792C336.746 260.412 337.369 261.013 338.023 261.629L337.684 261.234L335.662 259.265L336.083 259.792ZM328.591 252.824C329.613 253.777 330.652 254.737 331.673 255.689C331.313 255.251 330.97 254.821 330.606 254.381C329.59 253.406 328.537 252.414 327.504 251.43C327.865 251.894 328.234 252.362 328.591 252.824ZM320.872 245.699C322.106 246.823 323.334 247.945 324.539 249.054C324.084 248.476 323.65 247.908 323.19 247.327C321.91 246.115 320.662 244.92 319.36 243.698C319.852 244.36 320.386 245.04 320.872 245.699ZM312.749 238.302C314.278 239.691 315.799 241.077 317.319 242.463C316.763 241.722 316.194 240.974 315.628 240.229C314.197 238.893 312.743 237.546 311.305 236.207C311.806 236.915 312.255 237.599 312.749 238.302ZM304.475 230.873C306.253 232.456 308.045 234.045 309.776 235.605C309.175 234.761 308.515 233.891 307.903 233.043C306.254 231.524 304.556 229.982 302.861 228.441C303.409 229.256 303.938 230.062 304.475 230.873ZM296.025 223.337C297.98 225.067 299.871 226.765 301.798 228.482C301.221 227.626 300.69 226.789 300.101 225.927C298.175 224.174 296.284 222.439 294.332 220.674C294.893 221.56 295.477 222.456 296.025 223.337ZM287.379 215.761C289.458 217.578 291.539 219.396 293.579 221.193C292.995 220.27 292.409 219.346 291.812 218.417C289.837 216.642 287.814 214.843 285.796 213.047C286.334 213.956 286.855 214.858 287.379 215.761ZM278.437 207.984C280.721 209.956 282.977 211.915 285.213 213.863C284.645 212.9 284.021 211.913 283.439 210.943C281.291 209.036 279.132 207.123 276.939 205.193C277.452 206.129 277.939 207.054 278.437 207.984ZM269.371 200.182C271.746 202.22 274.104 204.25 276.449 206.273C275.931 205.32 275.452 204.383 274.92 203.424C272.597 201.385 270.261 199.339 267.906 197.284C268.39 198.247 268.902 199.223 269.371 200.182ZM260.005 192.222C262.519 194.346 265.044 196.475 267.494 198.567C267.008 197.588 266.505 196.602 266.003 195.617C263.64 193.564 261.202 191.475 258.775 189.39C259.205 190.341 259.589 191.275 260.005 192.222ZM250.461 184.159C253.126 186.396 255.72 188.599 258.34 190.814C257.903 189.836 257.46 188.854 257.007 187.869C254.445 185.668 251.907 183.478 249.301 181.254C249.688 182.223 250.089 183.195 250.461 184.159ZM240.687 176.023C243.444 178.311 246.202 180.598 248.897 182.856C248.511 181.879 248.122 180.902 247.723 179.92C245.104 177.693 242.428 175.437 239.75 173.181C240.081 174.133 240.371 175.074 240.687 176.023ZM230.731 167.788C233.602 170.151 236.446 172.5 239.259 174.834C238.931 173.863 238.598 172.891 238.255 171.916C235.499 169.596 232.709 167.259 229.894 164.909C230.17 165.868 230.467 166.832 230.731 167.788ZM220.502 159.405C223.49 161.845 226.448 164.269 229.383 166.684C229.112 165.718 228.818 164.746 228.532 163.778C225.662 161.384 222.783 158.986 219.866 156.57C220.081 157.516 220.298 158.462 220.502 159.405ZM210.085 150.961C213.165 153.445 216.252 155.935 219.255 158.381C219.044 157.431 218.836 156.481 218.613 155.528C215.681 153.105 212.655 150.636 209.641 148.172C209.793 149.102 209.942 150.032 210.085 150.961ZM219.525 159.591C216.487 157.112 213.374 154.597 210.265 152.083C223.14 238.118 191.792 316.788 160.482 395.367C141.469 443.084 122.474 490.768 113.41 540.045C124.689 497.687 144.059 456.793 163.546 415.66C201.558 335.422 239.987 254.273 219.525 159.591ZM229.751 167.969C226.794 165.535 223.791 163.078 220.775 160.614C240.737 254.921 202.407 335.817 164.511 415.812C143.964 459.183 123.552 502.29 112.626 547.122C125.551 508.181 146.375 470.824 167.405 433.11C212.276 352.647 258.06 270.558 229.751 167.969ZM311.732 238.419C309.891 236.755 308.034 235.081 306.15 233.394C411.834 395.192 299.846 462.18 194.616 525.077C164.275 543.213 134.508 561.011 110.706 580.653M104.573 617.744C105.582 617.53 106.598 617.319 107.617 617.108C107.547 616.133 107.486 615.158 107.427 614.184C106.452 614.424 105.479 614.665 104.514 614.908C104.528 615.852 104.548 616.798 104.573 617.744ZM100.592 618.608C101.584 618.39 102.573 618.17 103.574 617.956C103.548 617.024 103.526 616.092 103.511 615.162C102.557 615.404 101.599 615.645 100.655 615.891C100.626 616.795 100.61 617.702 100.592 618.608ZM96.6576 619.49C97.6295 619.269 98.5996 619.047 99.5812 618.829C99.5969 617.939 99.6092 617.048 99.6351 616.161C98.7053 616.405 97.7755 616.649 96.8563 616.897C96.7858 617.76 96.7179 618.624 96.6576 619.49ZM92.7833 620.388C93.725 620.165 94.6765 619.945 95.6297 619.726C95.6879 618.874 95.7558 618.023 95.8241 617.174C94.9122 617.422 94.0125 617.675 93.1094 617.927C92.9947 618.746 92.884 619.566 92.7833 620.388ZM88.9736 621.307C89.8881 621.082 90.8154 620.861 91.7418 620.64C91.8391 619.831 91.944 619.024 92.0548 618.219C91.1632 618.471 90.28 618.726 89.3973 618.981C89.2483 619.754 89.1133 620.531 88.9736 621.307ZM85.2059 622.258C86.1039 622.029 87.0002 621.799 87.9079 621.572C88.0425 620.812 88.1745 620.052 88.3189 619.294C87.4668 619.544 86.6134 619.793 85.7714 620.046C85.5778 620.782 85.3846 621.518 85.2059 622.258ZM81.5337 623.219C82.3944 622.99 83.2499 622.76 84.119 622.534C84.2901 621.816 84.4735 621.102 84.6573 620.387C83.8286 620.639 82.9964 620.889 82.1774 621.144C81.9549 621.833 81.7452 622.527 81.5337 623.219ZM77.8951 624.206C78.7256 623.976 79.5645 623.749 80.4048 623.521C80.6077 622.851 80.806 622.18 81.0191 621.512C80.2273 621.763 79.4423 622.016 78.6602 622.27C78.4012 622.915 78.1388 623.558 77.8951 624.206ZM74.3665 625.205C75.146 624.979 75.9416 624.759 76.7296 624.536C76.9627 623.907 77.2077 623.282 77.4557 622.657C76.6868 622.911 75.9344 623.171 75.1748 623.429C74.8959 624.017 74.6352 624.612 74.3665 625.205ZM70.876 626.243C71.6275 626.016 72.3782 625.79 73.1377 625.566C73.3929 624.995 73.651 624.424 73.9143 623.855C73.2018 624.1 72.4945 624.347 71.7901 624.596C71.4823 625.143 71.1732 625.691 70.876 626.243ZM67.5002 627.288C68.1991 627.067 68.8911 626.843 69.598 626.626C69.871 626.11 70.1474 625.595 70.4306 625.082C69.7696 625.319 69.1004 625.554 68.4466 625.795C68.1252 626.29 67.8127 626.789 67.5002 627.288ZM64.1991 628.347C64.8322 628.139 65.4733 627.933 66.1135 627.727C66.3976 627.265 66.6956 626.806 66.989 626.346C66.3818 626.574 65.7726 626.802 65.1718 627.033C64.8419 627.469 64.5192 627.908 64.1991 628.347ZM61.008 629.421C61.5697 629.228 62.1446 629.039 62.7122 628.848C62.9933 628.454 63.265 628.057 63.5533 627.665C63.0188 627.875 62.4936 628.088 61.9654 628.301C61.6457 628.674 61.3218 629.046 61.008 629.421ZM57.9438 630.506C58.4113 630.338 58.8792 630.169 59.3521 630.003C59.6213 629.673 59.8999 629.347 60.1784 629.02C59.7101 629.214 59.2583 629.413 58.7955 629.608C58.5038 629.905 58.23 630.208 57.9438 630.506ZM55.0142 631.582C55.3802 631.444 55.7369 631.302 56.1058 631.166C56.3228 630.934 56.5448 630.705 56.7622 630.474C56.4315 630.618 56.1028 630.764 55.7725 630.91C55.5229 631.135 55.2617 631.356 55.0142 631.582ZM52.3819 632.586C52.5504 632.519 52.7253 632.456 52.8939 632.391C53.0136 632.279 53.1287 632.165 53.2484 632.053C53.0956 632.124 52.9368 632.192 52.7844 632.263L52.3819 632.586ZM199.187 139.632C199.277 140.55 199.375 141.468 199.456 142.385C202.665 144.956 205.775 147.48 208.92 150.02C208.774 149.087 208.632 148.153 208.473 147.217C205.387 144.693 202.331 142.184 199.187 139.632ZM198.794 135.826C198.895 136.74 198.99 137.653 199.082 138.566C202.191 141.087 205.224 143.572 208.281 146.067C208.118 145.125 207.933 144.178 207.76 143.234C204.788 140.773 201.818 138.313 198.794 135.826ZM198.337 131.987C198.452 132.901 198.557 133.813 198.661 134.726C201.649 137.18 204.607 139.62 207.54 142.048C207.363 141.108 207.186 140.17 206.998 139.228C204.149 136.833 201.243 134.409 198.337 131.987ZM197.816 128.111C197.946 129.031 198.083 129.952 198.203 130.871C201.058 133.25 203.942 135.642 206.74 137.994C206.548 137.054 206.354 136.115 206.15 135.173C203.425 132.844 200.601 130.468 197.816 128.111ZM197.25 124.207C197.391 125.124 197.523 126.04 197.655 126.956C200.414 129.29 203.192 131.632 205.89 133.938C205.683 133 205.451 132.058 205.233 131.118C202.6 128.827 199.945 126.527 197.25 124.207ZM196.62 120.309C196.772 121.207 196.913 122.105 197.055 123.002C199.721 125.294 202.32 127.554 204.928 129.82C204.705 128.882 204.49 127.945 204.257 127.006C201.77 124.8 199.168 122.543 196.62 120.309ZM195.913 116.338C196.082 117.253 196.259 118.169 196.418 119.083C198.896 121.253 201.469 123.467 203.894 125.611C203.659 124.693 203.419 123.774 203.174 122.855C200.795 120.701 198.351 118.519 195.913 116.338ZM195.155 112.35C195.337 113.256 195.509 114.163 195.68 115.069C198.057 117.191 200.483 119.336 202.803 121.432C202.553 120.513 202.283 119.591 202.021 118.67C199.758 116.574 197.476 114.47 195.155 112.35ZM194.326 108.324C194.52 109.225 194.7 110.126 194.883 111.026C197.135 113.081 199.393 115.139 201.593 117.17C201.331 116.268 201.084 115.369 200.813 114.465C198.658 112.422 196.533 110.391 194.326 108.324ZM193.409 104.252C193.618 105.154 193.831 106.055 194.029 106.955C196.153 108.94 198.241 110.909 200.313 112.871C200.037 111.97 199.753 111.069 199.466 110.166C197.442 108.192 195.483 106.247 193.409 104.252ZM192.45 100.216C192.666 101.088 192.879 101.96 193.085 102.832C195.08 104.748 197.005 106.632 198.953 108.527C198.662 107.632 198.348 106.733 198.048 105.836C196.182 103.963 194.357 102.106 192.45 100.216ZM191.43 96.1677C191.649 96.9995 191.849 97.8305 192.059 98.6616C193.903 100.486 195.645 102.268 197.448 104.074C197.151 103.212 196.87 102.351 196.564 101.487C194.866 99.7193 193.166 97.951 191.43 96.1677ZM190.304 92.0601C190.532 92.8769 190.76 93.6938 190.979 94.5103C192.64 96.2091 194.227 97.8772 195.857 99.5644C195.55 98.7156 195.239 97.8667 194.921 97.0168C193.407 95.374 191.854 93.7169 190.304 92.0601ZM189.122 87.9539C189.357 88.7425 189.598 89.5318 189.824 90.32C191.295 91.8842 192.729 93.4343 194.173 94.9881C193.858 94.161 193.515 93.3295 193.192 92.501C191.868 90.9971 190.479 89.4697 189.122 87.9539ZM187.892 83.867C188.12 84.5973 188.331 85.3258 188.553 86.0551C189.813 87.4554 191.065 88.8526 192.301 90.2435C192.002 89.4977 191.708 88.7525 191.401 88.0054C190.256 86.6347 189.063 85.2466 187.892 83.867ZM186.551 79.7331C186.773 80.4058 186.988 81.0788 187.205 81.7513C188.231 82.9514 189.274 84.1575 190.281 85.3509C190.013 84.7161 189.749 84.082 189.476 83.446C188.506 82.2098 187.542 80.9763 186.551 79.7331ZM185.195 75.7387C185.389 76.2957 185.589 76.8531 185.778 77.4099C186.538 78.3551 187.33 79.3107 188.077 80.2516C187.867 79.7739 187.647 79.295 187.432 78.8169C186.685 77.79 185.957 76.7696 185.195 75.7387ZM183.918 72.0934C184.027 72.3894 184.126 72.6852 184.232 72.9809C184.688 73.5901 185.164 74.206 185.614 74.8127C185.509 74.5888 185.396 74.364 185.291 74.1396L183.918 72.0934ZM112.369 612.995C112.473 614.023 112.58 615.051 112.696 616.081C145.866 609.506 183.633 604.669 222.129 599.744C297.029 590.162 374.664 580.229 426.192 556.407C501.732 521.483 521.225 456.608 394.122 319.077C509.774 451.002 484.81 513.788 408.177 548.948C358.828 571.589 288.092 582.748 219.685 593.539C181.85 599.508 144.735 605.367 112.369 612.995ZM112.005 609.326C112.099 610.341 112.206 611.358 112.308 612.375C144.652 604.782 181.678 598.936 219.423 592.983C287.728 582.207 358.362 571.064 407.553 548.496C486.405 512.318 510.198 446.682 381.259 305.956C498.886 441.482 469.014 505.119 388.664 541.682C342.088 562.876 278.581 574.95 217.011 586.655C179.921 593.706 143.537 600.624 112.005 609.326ZM111.706 605.677C111.783 606.679 111.863 607.681 111.952 608.684C143.448 600.03 179.724 593.134 216.697 586.105C278.186 574.415 341.608 562.358 388.045 541.227C470.731 503.602 499.636 437.111 368.189 292.48C488.528 432.455 452.686 497.042 367.97 535.25C324.709 554.761 268.737 567.374 214.314 579.637C177.992 587.822 142.373 595.854 111.706 605.677ZM111.44 602.043C111.506 603.034 111.576 604.025 111.652 605.018C142.274 595.254 177.766 587.252 213.95 579.099C268.309 566.849 324.216 554.251 367.355 534.795C454.082 495.68 489.354 428.773 357.026 280.97L356.346 280.308C478.604 424.687 435.193 489.935 345.601 529.952C306.416 547.455 258.417 560.12 211.595 572.473C176.064 581.848 141.22 591.045 111.44 602.043ZM111.209 598.434C111.266 599.409 111.333 600.386 111.397 601.362C141.12 590.438 175.809 581.28 211.178 571.948C257.948 559.608 305.893 546.958 344.99 529.495C435.609 489.018 478.737 422.58 349.776 273.917C349.098 273.263 348.459 272.628 347.774 271.97C468.716 419.347 415.403 484.424 320.65 526.304C286.654 541.33 247.343 553.362 208.848 565.145C174.126 575.772 140.073 586.198 111.209 598.434ZM111.038 594.842C111.08 595.8 111.121 596.757 111.173 597.716C139.97 585.574 173.847 575.203 208.382 564.633C246.842 552.861 286.114 540.84 320.043 525.844C415.54 483.636 468.789 417.762 342.73 267.17C341.718 266.205 340.69 265.234 339.678 264.269C491.967 456.782 343.712 509.095 206.078 557.627C172.189 569.577 138.957 581.302 111.038 594.842ZM110.896 591.263C110.928 592.204 110.964 593.146 111.003 594.089C138.846 580.662 171.878 569.009 205.557 557.133C343.91 508.347 492.991 455.718 334.996 259.829C333.881 258.781 332.719 257.71 331.573 256.648C471.845 441.376 332.716 497.583 203.271 549.896C170.238 563.245 137.839 576.342 110.896 591.263ZM110.792 587.714C110.816 588.631 110.844 589.549 110.872 590.467C137.73 575.684 169.901 562.678 202.699 549.423C332.717 496.879 472.441 440.358 327.535 252.895C326.044 251.513 324.593 250.151 323.085 248.76C451.775 425.904 321.779 485.926 200.428 541.921C168.267 556.762 136.727 571.322 110.792 587.714ZM110.736 584.171C110.745 585.064 110.752 585.957 110.77 586.852C136.612 570.63 167.907 556.187 199.805 541.469C321.577 485.279 452.113 425.043 319.845 245.802C318.147 244.247 316.409 242.673 314.681 241.103C431.718 410.529 310.802 474.143 197.548 533.663C166.287 550.092 135.624 566.213 110.736 584.171ZM110.72 577.147C110.715 577.973 110.711 578.798 110.709 579.625C134.409 560.233 163.875 542.62 193.894 524.677C299.45 461.584 411.793 394.358 303.475 231.009C301.486 229.231 299.491 227.449 297.482 225.66C392.084 379.884 288.908 450.008 191.631 516.109C162.236 536.082 133.389 555.691 110.72 577.147ZM110.77 573.657C110.753 574.446 110.733 575.234 110.725 576.024C133.296 554.863 161.813 535.477 190.867 515.735C288.439 449.435 391.939 379.072 295.041 223.49C292.914 221.61 290.714 219.695 288.526 217.785C372.425 364.535 278.001 437.577 188.585 506.687C160.161 528.655 132.256 550.23 110.77 573.657ZM110.843 570.19C110.822 570.917 110.812 571.646 110.796 572.374C132.187 549.309 159.734 528.017 187.78 506.34C277.445 437.038 372.182 363.789 286.39 215.916C284.084 213.901 281.791 211.892 279.442 209.856C352.983 349.192 267.12 424.831 185.467 496.723C158.037 520.874 131.089 544.603 110.843 570.19ZM110.967 566.727C110.944 567.396 110.916 568.064 110.894 568.734C131.056 543.584 157.606 520.198 184.629 496.406C266.505 424.317 352.613 348.452 277.457 208.147C275.066 206.082 272.638 203.998 270.203 201.91C333.698 333.838 256.251 411.715 182.265 486.105C155.86 512.655 129.904 538.762 110.967 566.727ZM111.115 563.283C111.086 563.869 111.053 564.455 111.028 565.042C129.897 537.605 155.433 511.925 181.399 485.817C255.588 411.224 333.27 333.123 268.398 200.357C265.866 198.19 263.285 196 260.691 193.803C314.581 318.377 245.42 398.116 178.97 474.686C153.614 503.904 128.663 532.664 111.115 563.283ZM111.29 559.858C111.263 560.327 111.243 560.798 111.217 561.267C128.724 531.305 153.205 503.087 178.076 474.428C244.707 397.65 314.066 317.683 259.028 192.397C256.379 190.153 253.743 187.917 251.055 185.654C295.74 302.845 234.616 383.928 175.568 462.271C151.285 494.49 127.355 526.244 111.29 559.858ZM111.509 556.418L111.445 557.389C127.507 524.603 150.908 493.543 174.651 462.041C233.864 383.478 295.142 302.15 249.491 184.341C246.76 182.051 243.94 179.718 241.138 177.392C277.068 287.131 223.84 368.984 172.036 448.596C148.858 484.216 125.972 519.39 111.509 556.418ZM111.745 553.028L111.723 553.292C126.247 517.333 148.533 483.073 171.099 448.392C223.047 368.555 276.429 286.465 239.709 176.203C236.847 173.826 233.975 171.444 231.058 169.04C258.729 271.192 213.1 353.051 168.356 433.287C146.297 472.847 124.456 512.014 111.745 553.028ZM156.271 370.678C138.597 423.965 120.797 477.641 113.801 532.808C123.327 486.045 141.408 440.656 159.507 395.238C190.914 316.411 222.347 237.491 209.1 151.143C205.927 148.577 202.784 146.026 199.542 143.426C206.08 220.492 181.308 295.195 156.271 370.678ZM110.115 563.175L110.162 562.26L110.007 562.589C109.969 562.916 109.926 563.243 109.89 563.571L110.115 563.175ZM109.966 566.605C109.985 566.142 109.997 565.678 110.017 565.215C109.892 565.436 109.763 565.656 109.64 565.877L109.493 567.305L109.966 566.605ZM109.843 570.045C109.86 569.461 109.885 568.877 109.906 568.293C109.697 568.605 109.497 568.918 109.293 569.231C109.237 569.8 109.193 570.372 109.141 570.942C109.375 570.643 109.606 570.343 109.843 570.045ZM109.769 573.496L109.808 571.514L109 572.555C108.943 573.212 108.881 573.869 108.83 574.527C109.143 574.184 109.454 573.839 109.769 573.496ZM109.716 576.971C109.722 576.241 109.731 575.512 109.743 574.784C109.407 575.155 109.066 575.524 108.734 575.896C108.683 576.614 108.63 577.331 108.583 578.049C108.958 577.689 109.338 577.33 109.716 576.971ZM109.702 580.459C109.702 579.672 109.708 578.887 109.711 578.102C109.302 578.494 108.901 578.888 108.496 579.28C108.449 580.043 108.411 580.806 108.37 581.568C108.814 581.199 109.256 580.828 109.702 580.459ZM109.729 583.956C109.72 583.134 109.702 582.312 109.697 581.491C109.237 581.876 108.768 582.259 108.311 582.645C108.267 583.455 108.222 584.266 108.188 585.078C108.698 584.703 109.212 584.329 109.729 583.956ZM109.779 587.482C109.76 586.616 109.75 585.752 109.741 584.887C109.206 585.277 108.682 585.669 108.153 586.06C108.122 586.897 108.091 587.734 108.065 588.572C108.634 588.208 109.206 587.845 109.779 587.482ZM109.884 591.008C109.856 590.119 109.828 589.23 109.805 588.341C109.212 588.718 108.619 589.094 108.033 589.473C108.01 590.341 107.997 591.21 107.979 592.079C108.612 591.721 109.244 591.363 109.884 591.008ZM110.02 594.566C109.98 593.648 109.941 592.73 109.907 591.813C109.255 592.177 108.611 592.544 107.965 592.91C107.948 593.802 107.932 594.693 107.926 595.585C108.619 595.244 109.321 594.905 110.02 594.566ZM110.188 598.135C110.136 597.195 110.097 596.258 110.056 595.319C109.344 595.667 108.633 596.017 107.927 596.368C107.926 597.28 107.925 598.192 107.931 599.105C108.682 598.781 109.432 598.457 110.188 598.135ZM110.414 601.722C110.351 600.766 110.288 599.809 110.231 598.854C109.462 599.183 108.694 599.511 107.931 599.841C107.941 600.771 107.96 601.704 107.976 602.635C108.786 602.329 109.597 602.024 110.414 601.722ZM110.672 605.333C110.596 604.356 110.524 603.379 110.459 602.403C109.628 602.712 108.81 603.024 107.991 603.336C108.009 604.282 108.028 605.227 108.057 606.174C108.923 605.892 109.8 605.613 110.672 605.333ZM110.969 608.958C110.882 607.968 110.803 606.98 110.726 605.991C109.842 606.276 108.959 606.562 108.083 606.85C108.117 607.811 108.153 608.773 108.197 609.736C109.118 609.475 110.04 609.215 110.969 608.958ZM111.324 612.604C111.223 611.603 111.116 610.601 111.022 609.602C110.085 609.862 109.151 610.123 108.221 610.386C108.268 611.36 108.328 612.336 108.384 613.311C109.359 613.074 110.338 612.838 111.324 612.604ZM111.712 616.277C111.598 615.259 111.49 614.241 111.387 613.224C110.389 613.461 109.406 613.702 108.42 613.943C108.477 614.929 108.538 615.914 108.608 616.902C109.637 616.691 110.674 616.484 111.712 616.277ZM145.344 725.471C126.159 688.311 115.848 652.205 111.785 616.886C110.738 617.095 109.694 617.307 108.656 617.521C111.199 652.176 120.584 687.937 139.877 725.306L138.917 725.471C119.63 688.114 110.23 652.367 107.666 617.727C106.638 617.94 105.61 618.152 104.593 618.368C105.604 652.334 114.049 687.731 133.448 725.306L132.487 725.471C113.097 687.914 104.636 652.535 103.595 618.587C102.585 618.804 101.58 619.024 100.581 619.245C100.033 652.506 107.515 687.526 127.021 725.306L126.061 725.471C106.566 687.711 99.0577 652.709 99.5685 619.466C98.5737 619.688 97.5925 619.916 96.6075 620.142C94.4693 652.684 100.981 687.319 120.595 725.306L119.634 725.471C100.036 687.511 93.4911 652.897 95.5792 620.378C94.6166 620.602 93.6614 620.827 92.7082 621.055C88.9443 652.864 94.443 687.103 114.166 725.306L113.207 725.471C93.5 687.303 87.9656 653.09 91.6654 621.306C90.7241 621.533 89.7816 621.759 88.8505 621.99C83.4308 653.051 87.9007 686.886 107.737 725.306L106.777 725.471C86.9641 687.096 82.4432 653.293 87.7831 622.26C86.8681 622.49 85.9532 622.72 85.0493 622.954C77.9427 653.25 81.3609 686.667 101.31 725.306L100.35 725.471C80.4277 686.886 76.9496 653.502 83.9615 623.235C83.0699 623.469 82.1931 623.706 81.3117 623.944C72.4817 653.458 74.8199 686.445 94.8841 725.306L93.9238 725.471C73.8939 686.677 71.4768 653.728 80.1845 624.245C79.3234 624.48 78.4751 624.719 77.6255 624.958C67.0382 653.674 68.2742 686.22 88.4539 725.306L87.4939 725.471C67.3571 686.469 66.0265 653.968 76.4609 625.287C75.6398 625.521 74.8182 625.755 74.0072 625.993C61.6262 653.895 61.7281 685.989 82.0275 725.306L81.0667 725.471C60.8246 686.264 60.5889 654.222 72.776 626.361C72.002 626.592 71.2216 626.82 70.4561 627.055C56.2395 654.124 55.1794 685.754 75.6003 725.306L74.6399 725.471C54.2878 686.053 55.193 654.485 69.1671 627.458C68.4219 627.69 67.681 627.926 66.9448 628.162C50.8699 654.377 48.6341 685.526 69.1717 725.306L68.2135 725.471C47.7565 685.85 49.8 654.769 65.5819 628.596C64.8899 628.822 64.2152 629.056 63.5317 629.285C45.5449 654.63 42.0804 685.285 62.7437 725.306L61.7837 725.471C41.2274 685.656 44.4384 655.083 62.0461 629.784C61.413 630.002 60.7864 630.222 60.1614 630.443C40.2326 654.898 35.5296 685.045 56.3173 725.306L55.3564 725.471C34.7054 685.472 39.0986 655.425 58.5442 631.02C57.9944 631.219 57.4347 631.414 56.8892 631.615C34.9615 655.163 28.9732 684.791 49.89 725.306L48.9296 725.471C28.1958 685.313 33.7544 655.809 55.0351 632.321C54.5808 632.493 54.123 632.664 53.6747 632.839C29.7188 655.456 22.4152 684.544 43.4607 725.306L42.5002 725.471C21.6985 685.181 28.4272 656.246 51.5238 633.693C51.1778 633.832 50.833 633.973 50.4895 634.113C24.4901 655.776 15.8665 684.31 37.0334 725.306L36.073 725.471C15.2284 685.096 23.1056 656.762 47.9667 635.164C47.7917 635.239 47.6194 635.316 47.4461 635.391C19.3158 656.083 9.30385 684.047 30.6066 725.306L29.6462 725.471C8.95948 685.402 17.6103 657.813 43.6542 637.242C13.9704 656.901 2.93477 684.158 24.1785 725.306L23.2193 725.471C2.96787 686.247 11.8322 659.577 38.1696 640.076C8.17829 658.657 -3.05898 685.001 17.75 725.306L16.79 725.471C-3.00888 687.121 5.99723 661.347 32.487 642.858C2.33398 660.423 -9.03621 685.874 11.3231 725.306L10.3627 725.471C-12.0987 681.967 3.72915 655.373 40.748 637.62C42.5228 636.602 44.3705 635.615 46.2577 634.643C47.9802 633.585 49.7444 632.543 51.5769 631.529C53.2272 630.441 54.9416 629.377 56.6943 628.329C58.3238 627.172 59.9971 626.03 61.7276 624.912C63.2667 623.733 64.8546 622.573 66.4863 621.429C68.0042 620.166 69.573 618.922 71.1851 617.694C72.6062 616.411 74.0625 615.141 75.5672 613.888C76.9521 612.519 78.3923 611.169 79.8622 609.829C81.1847 608.396 82.5438 606.975 83.9462 605.57C85.1567 604.125 86.4011 602.691 87.6833 601.27C88.8445 599.728 90.0533 598.201 91.2854 596.683C92.3825 595.055 93.5149 593.44 94.6812 591.834C95.687 590.153 96.7187 588.48 97.7882 586.818C98.6947 585.096 99.6233 583.38 100.587 581.674C101.407 579.875 102.249 578.083 103.125 576.299C103.851 574.428 104.601 572.562 105.378 570.705C106.009 568.755 106.66 566.81 107.34 564.871C107.854 562.91 108.395 560.954 108.95 559.002C109.379 556.89 109.834 554.783 110.306 552.68C110.622 550.531 110.96 548.386 111.317 546.244C116.908 486.296 136.17 428.205 155.286 370.569C180.407 294.836 205.265 219.89 198.465 142.567C144.828 99.5964 82.4903 52.352 10.4519 0.360085L11.2306 -2.96368e-05C82.8767 51.7084 144.915 98.7199 198.361 141.515C198.278 140.594 198.185 139.672 198.091 138.75C146.462 96.8904 86.4028 50.9227 16.877 0.360085L17.6599 -2.96368e-05C86.7879 50.2726 146.548 96.0037 197.987 137.683C197.89 136.76 197.781 135.836 197.676 134.912C148.065 94.1678 90.297 49.482 23.3043 0.358951L24.0906 0.0013873C90.6689 48.8195 148.132 93.2583 197.545 133.812C197.435 132.894 197.337 131.975 197.217 131.057C149.64 91.4312 94.1704 48.0305 29.7307 0.357463L30.5174 0.00216661C94.5245 47.3554 149.685 90.499 197.06 129.921C196.937 128.995 196.803 128.068 196.671 127.141C151.15 88.6517 97.9946 46.5495 36.1567 0.35633L36.9476 0.00315847C98.3453 45.8673 151.194 87.7078 196.509 125.985C196.371 125.054 196.221 124.122 196.074 123.19C152.63 85.8508 101.781 45.0466 42.5809 0.355125L43.3757 0.00443371C102.111 44.3448 152.652 84.8735 195.88 121.985C195.733 121.084 195.596 120.183 195.44 119.28C154.057 83.0612 105.609 43.5797 49.0077 0.353992L49.8077 0.00549641C105.934 42.8684 154.044 82.0522 195.211 118.032C195.047 117.11 194.877 116.188 194.703 115.265C155.427 80.206 109.347 42.0516 55.432 0.353283L56.2358 0.00648827C109.673 41.3356 155.41 79.183 194.471 113.996C194.292 113.072 194.098 112.147 193.91 111.222C156.753 77.3286 113.058 40.5088 61.8572 0.350662L62.6647 0.00868452C113.368 39.7764 156.702 76.2686 193.637 109.899C193.445 108.984 193.259 108.069 193.058 107.153C158.037 74.4301 116.743 38.9528 68.2844 0.349174L69.0957 0.00981807C117.036 38.2001 157.949 73.3252 192.741 105.765C192.536 104.852 192.33 103.939 192.114 103.025C159.251 71.4873 120.386 37.3712 74.7091 0.34719L75.5251 0.0124394C120.674 36.6091 159.15 70.3585 191.782 101.598C191.561 100.684 191.32 99.7666 191.09 98.8514C160.403 68.509 123.992 35.7682 81.1359 0.344569L81.9549 0.0146356C124.261 34.9834 160.263 67.3292 190.711 97.3493C190.483 96.4676 190.251 95.5857 190.014 94.7033C161.504 65.5395 127.603 34.1821 87.5576 0.343081L88.3851 0.0166194C127.81 33.3318 161.312 64.2551 189.556 93.0409C189.323 92.1975 189.099 91.3544 188.857 90.51C162.546 62.5345 131.174 32.572 93.9836 0.339043L94.8183 0.0198783C131.351 31.6809 162.298 61.165 188.332 88.7198C188.089 87.8943 187.839 87.0678 187.588 86.2415C163.502 59.4736 134.692 30.9279 100.408 0.336847L101.247 0.0224288C134.85 30.0054 163.215 58.0331 187.02 84.3435C186.771 83.5429 186.501 82.7411 186.244 81.9402C164.402 56.3865 138.171 29.2642 106.83 0.332525L107.68 0.0272464C138.279 28.2736 164.019 54.7992 185.558 79.825C185.314 79.0814 185.07 78.3378 184.817 77.5933C165.243 53.2639 141.61 27.5781 113.255 0.327849L114.113 0.0311429C141.648 26.4928 164.729 51.4797 183.977 75.1856C183.741 74.5118 183.512 73.838 183.27 73.1633C165.991 50.0784 144.987 25.8537 119.676 0.323103L120.546 0.0358188C144.94 24.6421 165.317 48.0298 182.241 70.3612C182.028 69.7855 181.813 69.2093 181.595 68.6326C166.638 46.8169 148.305 24.0868 126.098 0.31701L126.98 0.0427618C148.122 22.6727 165.724 44.3522 180.281 65.2071C180.149 64.8702 180.011 64.5324 179.876 64.1956C167.246 43.6099 151.63 22.3507 132.519 0.308437L133.412 0.0509092C150.947 20.276 165.537 39.8405 177.591 58.8328C167.393 39.7656 154.657 20.2792 138.938 0.29859L139.852 0.0608986C153.327 17.191 164.611 33.9578 173.994 50.4089C166.437 33.8665 156.99 17.1691 145.358 0.286262L146.286 0.0735093C160.117 20.1441 170.874 39.9526 179.025 59.5476C180.726 62.7468 182.367 65.9367 183.927 69.1131C185.935 72.5037 187.833 75.869 189.687 79.2242C191.92 82.7002 194.083 86.1572 196.147 89.5867C198.656 93.2292 201.091 96.8487 203.405 100.431C206.069 104.108 208.608 107.742 211.083 111.355C213.862 115.032 216.553 118.677 219.149 122.288C222.192 126.156 225.146 129.99 227.979 133.778C231.24 137.793 234.358 141.752 237.39 145.677C240.565 149.49 243.642 153.263 246.614 156.993C249.865 160.8 253.027 164.571 256.077 168.294C260.047 172.824 263.824 177.271 267.496 181.672C270.994 185.614 274.388 189.508 277.666 193.352C281.185 197.247 284.598 201.095 287.91 204.897C292.064 209.418 296.095 213.883 299.974 218.277C303.89 222.485 307.686 226.637 311.35 230.728C315.356 234.98 319.248 239.178 322.996 243.308C327.13 247.646 331.153 251.932 335.019 256.142C339.079 260.366 343.039 264.542 346.853 268.647C350.882 272.798 354.805 276.897 358.597 280.933C362.681 285.097 366.631 289.195 370.475 293.24C524.562 448.827 507.224 519.683 426.814 556.857C375.102 580.764 297.355 590.711 222.346 600.308C183.779 605.242 145.947 610.087 112.768 616.69C116.814 652.021 127.115 688.138 146.304 725.306L145.344 725.471Z" fill="url(#paint0_linear_0_336)"/>
<defs>
<linearGradient id="paint0_linear_0_336" x1="896.094" y1="244.94" x2="321.941" y2="953.916" gradientUnits="userSpaceOnUse">
<stop stop-color="#F1607D"/>
<stop offset="1" stop-color="#B01030"/>
</linearGradient>
</defs>
</svg>
