<svg width="488" height="713" viewBox="0 0 488 713" fill="none" xmlns="http://www.w3.org/2000/svg">
<path d="M296.763 70.2619L295.464 71.9333C295.564 71.7462 295.655 71.5607 295.754 71.3731C296.192 70.7536 296.631 70.1331 297.079 69.5108C296.972 69.7612 296.87 70.0112 296.763 70.2619ZM289.901 80.8237C289.547 81.2552 289.185 81.6902 288.835 82.1201L288.938 81.9442L290.148 80.3179L289.901 80.8237ZM294.841 74.8101C294.053 75.7596 293.297 76.6975 292.512 77.6455C292.759 77.1551 293.025 76.6605 293.275 76.1688C293.983 75.2414 294.724 74.3025 295.451 73.3688C295.25 73.8487 295.039 74.3309 294.841 74.8101ZM282.464 91.577C282.159 91.9374 281.878 92.2893 281.575 92.6483L281.581 92.6391C281.902 92.2265 282.238 91.808 282.564 91.3938L282.464 91.577ZM287.569 85.6304C286.837 86.4793 286.095 87.3326 285.372 88.1785C285.587 87.7929 285.794 87.4086 286.011 87.0226C286.777 86.0615 287.503 85.1148 288.281 84.1495C288.047 84.6424 287.8 85.1379 287.569 85.6304ZM293.049 79.3077C291.996 80.5023 290.984 81.6818 289.95 82.8701C290.245 82.2571 290.544 81.6441 290.845 81.0297C291.813 79.8431 292.8 78.65 293.777 77.4604C293.532 78.0767 293.291 78.6921 293.049 79.3077ZM379.17 556.516L378.898 556.101C378.867 555.784 378.832 555.469 378.799 555.153L379.011 555.538C379.066 555.864 379.116 556.19 379.17 556.516ZM274.32 102.824L273.998 103.197C274.135 103.028 274.263 102.861 274.399 102.692L274.32 102.824ZM279.827 96.5108C279.123 97.299 278.441 98.078 277.755 98.8596C277.939 98.553 278.117 98.2485 278.303 97.9409C278.987 97.1102 279.689 96.2736 280.374 95.4429C280.186 95.8004 280.012 96.1536 279.827 96.5108ZM285.46 90.2454C284.434 91.3862 283.401 92.5293 282.384 93.6666C282.719 93.0403 283.07 92.4093 283.409 91.7814C284.355 90.6614 285.329 89.5308 286.303 88.3992C286.021 89.0152 285.738 89.6311 285.46 90.2454ZM291.317 83.8202C290.052 85.1848 288.805 86.542 287.576 87.8917C287.894 87.2045 288.194 86.5209 288.516 85.8321C289.726 84.4356 290.913 83.0462 292.125 81.6478C291.847 82.3733 291.589 83.096 291.317 83.8202ZM379.75 560.128C379.567 559.887 379.376 559.647 379.19 559.406L379.069 558.011C379.221 558.246 379.377 558.479 379.527 558.714C379.602 559.186 379.678 559.657 379.75 560.128ZM381.352 562.258L380.999 561.784L380.861 560.835L381.122 561.249C381.199 561.586 381.279 561.921 381.352 562.258ZM382.814 564.23L382.767 564.164L382.703 563.865L382.814 564.23ZM271.484 107.768C270.824 108.506 270.152 109.248 269.485 109.988L270.192 108.89C270.803 108.172 271.449 107.439 272.077 106.714C271.877 107.066 271.683 107.416 271.484 107.768ZM277.326 101.385C276.317 102.463 275.301 103.544 274.329 104.606C274.629 104.086 274.958 103.557 275.263 103.035C276.262 101.886 277.244 100.744 278.244 99.5935C277.942 100.19 277.625 100.79 277.326 101.385ZM283.428 94.8443L279.664 98.8781C280.035 98.1578 280.396 97.4402 280.772 96.7181C281.924 95.4185 283.121 94.1016 284.306 92.7888C284.003 93.4766 283.725 94.1583 283.428 94.8443ZM289.676 88.2877C288.214 89.7962 286.745 91.3079 285.342 92.7931C285.683 92.0163 286.054 91.2332 286.405 90.4542C287.801 88.9142 289.159 87.3892 290.575 85.8414C290.277 86.6564 289.966 87.4741 289.676 88.2877ZM380.258 563.64C379.991 563.337 379.728 563.034 379.458 562.732C379.416 562.165 379.377 561.597 379.332 561.031C379.562 561.334 379.784 561.639 380.014 561.943C380.094 562.508 380.18 563.073 380.258 563.64ZM382.076 565.708C381.872 565.47 381.662 565.235 381.456 564.998C381.394 564.537 381.33 564.077 381.264 563.616L381.788 564.331C381.884 564.79 381.982 565.248 382.076 565.708ZM383.807 567.744L383.408 567.275C383.345 566.956 383.284 566.637 383.218 566.319C383.32 566.461 383.424 566.602 383.525 566.745C383.617 567.078 383.714 567.41 383.807 567.744ZM385.4 569.657L385.315 569.553L385.217 569.175L385.235 569.202L385.4 569.657ZM262.662 119.21C262.048 119.871 261.42 120.537 260.818 121.192C260.962 120.978 261.115 120.761 261.262 120.547C261.927 119.783 262.574 119.026 263.243 118.26L262.662 119.21ZM268.684 112.744C267.702 113.792 266.743 114.832 265.765 115.879C266.083 115.364 266.381 114.855 266.703 114.339C267.644 113.28 268.622 112.205 269.585 111.137C269.29 111.671 268.975 112.211 268.684 112.744ZM275 106.132C273.76 107.412 272.511 108.696 271.314 109.958C271.68 109.299 272.055 108.638 272.429 107.977C273.633 106.65 274.799 105.338 276.026 104.002C275.676 104.714 275.343 105.422 275 106.132ZM281.475 99.4142C279.997 100.936 278.557 102.443 277.094 103.96C277.482 103.173 277.874 102.385 278.271 101.595C279.648 100.106 281.057 98.6032 282.462 97.1027C282.138 97.8724 281.792 98.6462 281.475 99.4142ZM288.189 92.6416C286.549 94.2796 284.892 95.925 283.315 97.5368C283.663 96.7098 284.019 95.8809 284.376 95.0519C285.913 93.4206 287.463 91.7849 289.04 90.1375C288.75 90.973 288.47 91.807 288.189 92.6416ZM380.71 567.082C380.374 566.753 380.033 566.425 379.694 566.097C379.652 565.443 379.604 564.79 379.558 564.137C379.862 564.482 380.167 564.826 380.468 565.172C380.551 565.808 380.63 566.446 380.71 567.082ZM382.743 569.109C382.45 568.814 382.158 568.52 381.864 568.226C381.794 567.663 381.721 567.102 381.649 566.539C381.912 566.844 382.169 567.15 382.429 567.455C382.536 568.006 382.638 568.558 382.743 569.109ZM384.696 571.095C384.461 570.852 384.231 570.608 383.994 570.365C383.91 569.909 383.82 569.454 383.734 568.998C383.94 569.245 384.139 569.494 384.344 569.742L384.696 571.095ZM386.548 573.022C386.399 572.864 386.244 572.708 386.095 572.551C386.013 572.224 385.925 571.899 385.841 571.573L386.212 572.03C386.323 572.36 386.438 572.69 386.548 573.022ZM388.274 574.879L388.137 574.731C388.093 574.592 388.051 574.452 388.005 574.313L388.065 574.389C388.133 574.553 388.206 574.715 388.274 574.879ZM253.46 130.727C252.838 131.383 252.273 132.016 251.662 132.668C251.759 132.53 251.847 132.396 251.945 132.258C252.565 131.56 253.208 130.854 253.833 130.154C253.711 130.344 253.581 130.537 253.46 130.727ZM259.626 124.297C258.696 125.266 257.755 126.239 256.84 127.201C257.156 126.718 257.464 126.236 257.784 125.752C258.703 124.739 259.596 123.738 260.536 122.717C260.221 123.247 259.937 123.768 259.626 124.297ZM266.165 117.493C264.875 118.816 263.654 120.109 262.384 121.424C262.78 120.759 263.204 120.086 263.607 119.419C264.784 118.147 265.985 116.864 267.176 115.586C266.834 116.223 266.498 116.858 266.165 117.493ZM272.738 110.868C271.296 112.317 269.845 113.768 268.44 115.201C268.844 114.447 269.223 113.701 269.636 112.945C271.021 111.475 272.428 109.996 273.856 108.508C273.484 109.294 273.101 110.084 272.738 110.868ZM279.693 103.879C278.012 105.549 276.394 107.192 274.741 108.849C275.135 108.014 275.545 107.174 275.951 106.336C277.509 104.712 279.082 103.083 280.659 101.451C280.332 102.262 280.012 103.07 279.693 103.879ZM286.768 96.9694C284.959 98.7283 283.141 100.491 281.384 102.228C281.734 101.358 282.065 100.492 282.424 99.6196C284.104 97.8988 285.846 96.1507 287.589 94.4032C287.307 95.26 287.041 96.1142 286.768 96.9694ZM381.122 570.512C380.707 570.157 380.299 569.799 379.88 569.445C379.843 568.735 379.809 568.026 379.768 567.315C380.141 567.682 380.51 568.049 380.88 568.417C380.965 569.115 381.044 569.814 381.122 570.512ZM383.351 572.441C382.982 572.115 382.606 571.792 382.233 571.468C382.164 570.835 382.101 570.202 382.029 569.57C382.357 569.902 382.693 570.231 383.018 570.563C383.135 571.188 383.243 571.815 383.351 572.441ZM385.512 574.363C385.192 574.075 384.867 573.789 384.544 573.502C384.451 572.955 384.361 572.406 384.265 571.86C384.553 572.159 384.844 572.458 385.129 572.758C385.262 573.292 385.383 573.828 385.512 574.363ZM387.594 576.268C387.334 576.028 387.076 575.787 386.813 575.548L386.494 574.205C386.722 574.451 386.949 574.698 387.177 574.943C387.318 575.384 387.457 575.826 387.594 576.268ZM389.575 578.117C389.396 577.948 389.223 577.776 389.043 577.607C388.945 577.285 388.84 576.965 388.739 576.643C388.89 576.81 389.037 576.979 389.186 577.146C389.315 577.47 389.448 577.793 389.575 578.117ZM391.402 579.87L391.221 579.695C391.164 579.546 391.11 579.396 391.053 579.246L391.161 579.369L391.402 579.87ZM243.693 142.683C243.201 143.201 242.702 143.723 242.207 144.242C242.351 144.045 242.49 143.85 242.635 143.653C243.114 143.125 243.612 142.59 244.103 142.057C243.961 142.268 243.833 142.473 243.693 142.683ZM250.222 135.901C249.302 136.835 248.395 137.764 247.503 138.686C247.772 138.295 248.046 137.901 248.315 137.509C249.223 136.528 250.142 135.541 251.048 134.562C250.767 135.01 250.499 135.454 250.222 135.901ZM256.77 129.263C255.544 130.506 254.308 131.753 253.092 132.991C253.521 132.312 253.961 131.628 254.398 130.946C255.535 129.74 256.726 128.509 257.908 127.283C257.53 127.943 257.141 128.606 256.77 129.263ZM263.628 122.375C262.172 123.817 260.749 125.244 259.327 126.67C259.742 125.951 260.146 125.234 260.568 124.512L264.754 120.152C264.37 120.896 264.004 121.634 263.628 122.375ZM270.675 115.457C269.015 117.08 267.357 118.704 265.727 120.315C266.174 119.449 266.654 118.572 267.112 117.703C268.62 116.155 270.208 114.573 271.779 112.999C271.407 113.819 271.037 114.639 270.675 115.457ZM277.956 108.375C276.126 110.136 274.332 111.879 272.545 113.621C272.929 112.772 273.295 111.927 273.69 111.075C275.438 109.313 277.167 107.56 278.933 105.79C278.599 106.654 278.28 107.513 277.956 108.375ZM285.423 101.262C283.448 103.136 281.478 105.008 279.545 106.862C279.897 105.941 280.281 105.011 280.646 104.086C282.458 102.285 284.368 100.442 286.255 98.6083C285.978 99.4931 285.688 100.38 285.423 101.262ZM376.473 570.243C351.682 552.489 321.296 536.513 290.324 520.236C176.693 460.517 55.3125 396.677 175.465 225.419M381.49 573.911C381.013 573.553 380.525 573.198 380.043 572.842C380.011 572.077 379.978 571.313 379.939 570.549C380.377 570.924 380.814 571.299 381.248 571.675C381.331 572.42 381.416 573.164 381.49 573.911ZM383.916 575.762C383.471 575.42 383.024 575.078 382.574 574.738C382.508 574.037 382.435 573.339 382.36 572.64C382.766 572.997 383.165 573.356 383.567 573.715C383.686 574.396 383.807 575.078 383.916 575.762ZM386.272 577.598C385.867 577.279 385.468 576.957 385.059 576.639C384.962 576.017 384.863 575.395 384.76 574.775C385.126 575.104 385.485 575.436 385.847 575.767C385.991 576.377 386.134 576.987 386.272 577.598ZM388.553 579.415C388.203 579.133 387.851 578.851 387.499 578.569C387.383 578.037 387.275 577.503 387.153 576.972C387.465 577.261 387.781 577.547 388.088 577.836C388.248 578.361 388.398 578.889 388.553 579.415ZM390.757 581.224C390.474 580.989 390.184 580.755 389.899 580.52L389.516 579.205C389.768 579.447 390.023 579.688 390.272 579.931L390.757 581.224ZM392.865 583.006L392.269 582.497C392.153 582.177 392.03 581.859 391.91 581.54L392.418 582.046C392.565 582.366 392.72 582.685 392.865 583.006ZM394.777 584.653L394.553 584.455L394.361 584.015L394.526 584.187C394.612 584.342 394.692 584.498 394.777 584.653ZM233.756 154.534C233.322 154.978 232.878 155.427 232.45 155.868L232.538 155.754C233.045 155.205 233.539 154.662 234.047 154.112L233.756 154.534ZM240.341 147.803C239.406 148.76 238.473 149.717 237.53 150.676C237.851 150.225 238.199 149.762 238.523 149.31C239.388 148.391 240.29 147.456 241.175 146.529C240.896 146.954 240.616 147.38 240.341 147.803ZM246.998 141.128C245.85 142.26 244.688 143.397 243.578 144.512C243.935 143.973 244.269 143.443 244.631 142.904C245.841 141.64 247.013 140.393 248.235 139.124C247.831 139.789 247.396 140.465 246.998 141.128ZM254.076 134.13L249.756 138.402C250.22 137.642 250.694 136.879 251.166 136.116C252.491 134.756 253.866 133.375 255.228 131.998C254.833 132.713 254.465 133.417 254.076 134.13ZM261.252 127.152C259.603 128.734 257.954 130.315 256.357 131.873C256.796 131.081 257.258 130.281 257.708 129.485C259.322 127.855 260.879 126.251 262.517 124.611C262.095 125.459 261.665 126.308 261.252 127.152ZM268.689 120.023C266.873 121.76 265.067 123.491 263.267 125.221C263.703 124.343 264.13 123.468 264.577 122.587C266.265 120.91 268.015 119.205 269.754 117.506C269.387 118.348 269.046 119.183 268.689 120.023ZM276.321 112.817C274.333 114.674 272.357 116.525 270.426 118.357C270.812 117.465 271.226 116.565 271.623 115.67C273.524 113.811 275.389 111.969 277.323 110.096C276.989 111.003 276.644 111.912 276.321 112.817ZM284.21 105.469C282.088 107.438 279.984 109.398 277.891 111.355C278.225 110.433 278.564 109.509 278.911 108.584C280.886 106.679 282.935 104.742 284.973 102.81C284.71 103.697 284.462 104.583 284.21 105.469ZM381.797 577.308C381.252 576.95 380.71 576.591 380.161 576.235C380.138 575.43 380.108 574.627 380.077 573.823C380.582 574.202 381.087 574.581 381.587 574.961C381.658 575.743 381.729 576.526 381.797 577.308ZM384.406 579.046C383.894 578.701 383.383 578.355 382.866 578.011C382.804 577.269 382.736 576.528 382.668 575.786C383.14 576.147 383.616 576.506 384.082 576.868C384.191 577.594 384.302 578.32 384.406 579.046ZM386.961 580.785C386.489 580.458 386.008 580.135 385.532 579.811C385.436 579.131 385.331 578.453 385.228 577.775C385.663 578.119 386.102 578.462 386.532 578.807C386.677 579.466 386.825 580.124 386.961 580.785ZM389.45 582.536C389.02 582.23 388.586 581.927 388.152 581.622C388.029 581.013 387.897 580.405 387.765 579.798C388.162 580.119 388.553 580.443 388.946 580.766C389.117 581.355 389.287 581.945 389.45 582.536ZM391.856 584.273C391.475 583.994 391.099 583.715 390.714 583.437C390.573 582.916 390.438 582.391 390.292 581.87C390.641 582.163 390.981 582.458 391.327 582.752C391.509 583.258 391.678 583.766 391.856 584.273ZM394.177 585.988C393.864 585.753 393.554 585.518 393.24 585.285C393.094 584.857 392.942 584.431 392.795 584.004C393.07 584.242 393.348 584.479 393.622 584.717C393.807 585.141 393.995 585.563 394.177 585.988ZM396.384 587.666C396.167 587.499 395.947 587.334 395.729 587.167C395.598 586.857 395.467 586.547 395.332 586.237C395.521 586.406 395.712 586.572 395.897 586.74C396.061 587.048 396.223 587.357 396.384 587.666ZM398.411 589.258L398.144 589.048L397.917 588.595L398.117 588.783L398.411 589.258ZM223.567 166.391L223.479 166.48L223.58 166.373L223.567 166.391ZM230.018 159.95C229.187 160.781 228.341 161.618 227.518 162.445C227.774 162.098 228.011 161.758 228.268 161.41C229.189 160.445 230.058 159.505 230.996 158.532C230.676 159.003 230.335 159.481 230.018 159.95ZM237.042 152.938C235.849 154.117 234.715 155.27 233.528 156.447C233.918 155.88 234.304 155.316 234.7 154.747C235.793 153.622 236.915 152.484 238.021 151.354C237.681 151.887 237.377 152.407 237.042 152.938ZM244.133 146.06C242.698 147.442 241.254 148.828 239.857 150.193C240.318 149.476 240.808 148.748 241.275 148.029C242.656 146.632 244.014 145.244 245.425 143.833C244.987 144.578 244.563 145.318 244.133 146.06ZM251.453 138.981C249.813 140.559 248.21 142.121 246.573 143.697C247.038 142.911 247.467 142.136 247.942 141.345C249.52 139.774 251.133 138.186 252.74 136.601C252.315 137.393 251.867 138.192 251.453 138.981ZM259.025 131.834C257.219 133.522 255.398 135.218 253.651 136.878C254.102 136.036 254.56 135.192 255.02 134.346C256.741 132.659 258.454 130.975 260.214 129.27C259.803 130.129 259.426 130.978 259.025 131.834ZM266.802 124.538C264.816 126.394 262.861 128.237 260.884 130.09C261.316 129.184 261.758 128.275 262.202 127.365C264.077 125.555 265.991 123.727 267.905 121.898C267.539 122.778 267.157 123.661 266.802 124.538ZM274.823 117.166C272.701 119.096 270.563 121.032 268.514 122.93C268.887 122.032 269.259 121.133 269.642 120.232C271.658 118.314 273.679 116.393 275.741 114.454C275.424 115.36 275.128 116.261 274.823 117.166ZM283.055 109.654C280.79 111.713 278.563 113.754 276.31 115.808C276.631 114.881 276.943 113.956 277.274 113.026C279.413 111.021 281.593 108.996 283.78 106.969C283.531 107.865 283.294 108.759 283.055 109.654ZM382.065 580.7C381.459 580.349 380.846 580.002 380.234 579.653C380.219 578.818 380.211 577.982 380.191 577.147C380.756 577.517 381.322 577.886 381.881 578.256C381.948 579.07 382.006 579.885 382.065 580.7ZM384.856 582.329C384.281 581.988 383.695 581.651 383.115 581.313C383.059 580.531 383.011 579.75 382.951 578.97C383.491 579.332 384.023 579.697 384.559 580.062C384.664 580.816 384.759 581.573 384.856 582.329ZM387.592 583.978C387.047 583.646 386.502 583.314 385.951 582.984C385.859 582.261 385.768 581.539 385.671 580.817C386.181 581.168 386.681 581.523 387.186 581.876C387.325 582.575 387.46 583.276 387.592 583.978ZM390.275 585.632C389.765 585.313 389.259 584.991 388.744 584.673C388.62 584.016 388.49 583.36 388.362 582.704C388.829 583.036 389.298 583.366 389.759 583.699C389.934 584.343 390.11 584.986 390.275 585.632ZM392.878 587.275C392.421 586.981 391.956 586.688 391.493 586.396C391.344 585.805 391.188 585.216 391.031 584.627C391.454 584.937 391.883 585.244 392.303 585.556C392.498 586.128 392.69 586.701 392.878 587.275ZM395.4 588.919C394.997 588.652 394.586 588.389 394.181 588.124C394.018 587.618 393.861 587.109 393.694 586.603C394.064 586.882 394.431 587.162 394.798 587.442C395.002 587.933 395.2 588.427 395.4 588.919ZM397.849 590.567C397.511 590.336 397.175 590.106 396.833 589.877C396.664 589.454 396.488 589.033 396.317 588.611C396.622 588.85 396.922 589.092 397.225 589.332C397.433 589.743 397.646 590.153 397.849 590.567ZM400.144 592.147C399.9 591.977 399.662 591.803 399.417 591.633C399.274 591.333 399.138 591.031 398.991 590.731C399.208 590.906 399.415 591.083 399.63 591.258C399.805 591.553 399.971 591.851 400.144 592.147ZM402.271 593.655L401.971 593.443C401.882 593.286 401.79 593.13 401.7 592.974C401.775 593.037 401.852 593.099 401.928 593.163L402.271 593.655ZM212.694 178.855L211.525 180.036L211.596 179.945C212.001 179.521 212.433 179.083 212.845 178.655L212.694 178.855ZM219.541 172.012C218.795 172.739 218.035 173.473 217.314 174.189L217.825 173.513C218.611 172.701 219.403 171.886 220.18 171.079C219.96 171.393 219.761 171.699 219.541 172.012ZM226.605 165.11C225.456 166.235 224.294 167.365 223.148 168.488C223.591 167.867 224.055 167.238 224.503 166.614C225.545 165.558 226.64 164.477 227.72 163.402C227.341 163.975 226.98 164.54 226.605 165.11ZM233.892 158.034C232.436 159.428 231.033 160.798 229.604 162.18C230.05 161.513 230.501 160.844 230.953 160.175C232.356 158.774 233.766 157.369 235.169 155.968C234.743 156.657 234.311 157.348 233.892 158.034ZM241.265 151.051C239.666 152.562 238.059 154.076 236.489 155.574C236.988 154.769 237.47 153.971 237.98 153.162C239.497 151.67 241.064 150.155 242.634 148.639C242.176 149.443 241.713 150.249 241.265 151.051ZM249.049 143.694C247.188 145.433 245.411 147.135 243.573 148.863C244.061 148.006 244.577 147.14 245.076 146.279C246.808 144.601 248.546 142.921 250.291 141.237C249.866 142.059 249.462 142.874 249.049 143.694ZM256.86 136.506C254.899 138.302 252.933 140.102 251.025 141.875C251.483 140.984 251.924 140.099 252.394 139.204C254.266 137.417 256.188 135.606 258.118 133.792C257.703 134.695 257.262 135.606 256.86 136.506ZM265.068 128.951C262.907 130.924 260.832 132.856 258.692 134.82C259.112 133.899 259.545 132.973 259.977 132.048C262.004 130.141 264.036 128.232 266.089 126.314C265.737 127.196 265.409 128.072 265.068 128.951ZM273.379 121.5C271.12 123.514 268.849 125.535 266.661 127.516C267.023 126.595 267.377 125.676 267.753 124.752C269.895 122.763 272.086 120.751 274.291 118.733C273.983 119.656 273.674 120.579 273.379 121.5ZM281.973 113.804C279.565 115.951 277.218 118.069 274.817 120.211C275.125 119.269 275.46 118.321 275.778 117.376C278.067 115.282 280.362 113.185 282.685 111.076C282.447 111.985 282.199 112.896 281.973 113.804ZM382.298 584.102C381.627 583.763 380.953 583.426 380.277 583.09C380.272 582.22 380.262 581.352 380.248 580.484C380.878 580.845 381.501 581.21 382.126 581.574C382.187 582.417 382.247 583.259 382.298 584.102ZM385.265 585.629C384.62 585.294 383.98 584.957 383.329 584.624C383.284 583.811 383.231 582.999 383.176 582.187C383.777 582.541 384.38 582.895 384.974 583.25C385.075 584.042 385.173 584.835 385.265 585.629ZM388.175 587.162C387.563 586.835 386.951 586.509 386.333 586.184C386.249 585.426 386.163 584.669 386.07 583.912C386.641 584.258 387.217 584.6 387.781 584.948C387.918 585.684 388.046 586.422 388.175 587.162ZM391.031 588.701C390.457 588.386 389.872 588.075 389.293 587.763C389.174 587.064 389.059 586.363 388.934 585.666C389.472 586 390.007 586.335 390.54 586.672C390.707 587.347 390.869 588.024 391.031 588.701ZM393.84 590.271C393.301 589.966 392.755 589.663 392.211 589.36C392.061 588.717 391.901 588.075 391.745 587.432C392.25 587.756 392.743 588.083 393.242 588.409C393.444 589.029 393.648 589.648 393.84 590.271ZM396.548 591.827C396.058 591.541 395.572 591.254 395.075 590.97C394.903 590.398 394.725 589.826 394.543 589.256C395.002 589.56 395.457 589.865 395.911 590.17C396.129 590.721 396.337 591.275 396.548 591.827ZM399.186 593.382C398.751 593.122 398.319 592.861 397.881 592.602C397.696 592.11 397.511 591.619 397.323 591.129C397.715 591.396 398.112 591.66 398.499 591.929C398.728 592.413 398.961 592.897 399.186 593.382ZM401.725 594.922C401.374 594.705 401.013 594.492 400.661 594.276C400.475 593.867 400.281 593.461 400.089 593.054C400.415 593.285 400.745 593.516 401.069 593.748C401.29 594.138 401.508 594.53 401.725 594.922ZM404.135 596.443L403.355 595.949C403.196 595.655 403.037 595.359 402.876 595.065L403.564 595.574L404.135 596.443ZM406.381 597.896L406.022 597.657L405.74 597.214L406.032 597.441L406.381 597.896ZM208.814 184.175C208.056 184.911 207.305 185.643 206.566 186.37L207.155 185.616C207.895 184.862 208.665 184.093 209.417 183.334C209.212 183.616 209.018 183.894 208.814 184.175ZM215.93 177.282C214.762 178.416 213.58 179.557 212.411 180.691C212.798 180.165 213.222 179.623 213.614 179.095C214.787 177.918 215.918 176.76 217.096 175.579C216.706 176.147 216.316 176.716 215.93 177.282ZM223.207 170.315C221.852 171.594 220.495 172.874 219.179 174.134C219.623 173.494 220.04 172.865 220.49 172.223C221.815 170.913 223.191 169.581 224.553 168.255C224.111 168.938 223.64 169.634 223.207 170.315ZM230.864 163.08C229.25 164.602 227.646 166.12 226.04 167.638C226.537 166.87 227.042 166.1 227.548 165.328C229.108 163.811 230.628 162.311 232.193 160.791C231.732 161.561 231.316 162.314 230.864 163.08ZM238.651 155.848C236.83 157.522 234.997 159.202 233.231 160.85C233.745 159.993 234.305 159.117 234.831 158.255C236.517 156.638 238.272 154.99 240.013 153.348C239.553 154.183 239.1 155.017 238.651 155.848ZM246.652 148.463C244.666 150.281 242.753 152.065 240.795 153.87C241.272 153 241.725 152.138 242.214 151.264C244.144 149.44 246.043 147.63 247.982 145.802C247.541 146.688 247.082 147.581 246.652 148.463ZM254.913 141.006C252.782 142.923 250.646 144.842 248.567 146.733C249.03 145.796 249.52 144.85 249.995 143.909C251.966 142.071 254.026 140.192 256.067 138.323C255.673 139.221 255.297 140.112 254.913 141.006ZM263.36 133.423C261.084 135.45 258.856 137.455 256.624 139.462C257.023 138.547 257.4 137.639 257.811 136.719C260.016 134.692 262.194 132.677 264.414 130.644C264.063 131.57 263.699 132.5 263.36 133.423ZM272.068 125.729C269.661 127.848 267.263 129.962 264.905 132.057C265.266 131.096 265.651 130.127 266.025 129.162C268.265 127.128 270.601 125.049 272.921 122.978C272.632 123.896 272.344 124.814 272.068 125.729ZM280.99 117.927C278.461 120.123 275.948 122.313 273.48 124.481C273.765 123.557 274.044 122.634 274.34 121.707C276.778 119.526 279.183 117.361 281.638 115.172C281.412 116.092 281.204 117.009 280.99 117.927ZM382.468 587.508C381.737 587.184 381.008 586.859 380.271 586.537C380.278 585.648 380.277 584.76 380.276 583.872C380.965 584.216 381.656 584.56 382.337 584.907C382.383 585.773 382.428 586.64 382.468 587.508ZM385.618 588.922C384.915 588.601 384.206 588.283 383.496 587.966C383.46 587.124 383.415 586.283 383.37 585.443C384.034 585.785 384.696 586.128 385.354 586.473C385.446 587.288 385.537 588.104 385.618 588.922ZM388.711 590.347C388.04 590.032 387.358 589.723 386.679 589.411C386.603 588.617 386.513 587.825 386.424 587.032C387.065 587.371 387.695 587.714 388.329 588.056C388.459 588.818 388.59 589.581 388.711 590.347ZM391.738 591.792C391.096 591.482 390.451 591.172 389.801 590.865C389.687 590.128 389.569 589.392 389.446 588.657C390.057 588.989 390.66 589.325 391.263 589.66C391.428 590.369 391.582 591.08 391.738 591.792ZM394.717 593.25C394.103 592.945 393.496 592.638 392.876 592.336C392.729 591.662 392.588 590.988 392.437 590.316C393.005 590.635 393.575 590.952 394.136 591.273C394.333 591.932 394.527 592.59 394.717 593.25ZM397.625 594.713C397.06 594.423 396.489 594.136 395.92 593.849C395.743 593.228 395.558 592.611 395.374 591.993C395.904 592.3 396.437 592.605 396.96 592.914C397.185 593.512 397.41 594.111 397.625 594.713ZM400.442 596.173C399.93 595.903 399.407 595.637 398.89 595.369C398.695 594.817 398.503 594.265 398.301 593.715C398.786 594.006 399.267 594.297 399.746 594.59C399.982 595.116 400.21 595.645 400.442 596.173ZM403.211 597.665C402.749 597.413 402.286 597.162 401.82 596.912C401.612 596.429 401.396 595.948 401.184 595.466C401.614 595.733 402.032 596.005 402.457 596.273C402.71 596.736 402.966 597.199 403.211 597.665ZM405.831 599.117C405.447 598.901 405.072 598.683 404.685 598.468C404.486 598.081 404.294 597.692 404.091 597.307C404.441 597.533 404.786 597.76 405.133 597.986C405.371 598.362 405.598 598.741 405.831 599.117ZM408.349 600.55C408.072 600.388 407.787 600.229 407.508 600.068C407.334 599.781 407.153 599.496 406.979 599.209C407.224 599.374 407.476 599.535 407.72 599.701C407.928 599.984 408.144 600.265 408.349 600.55ZM410.646 601.914L410.258 601.684L409.959 601.254L410.285 601.48C410.406 601.624 410.525 601.77 410.646 601.914ZM197.728 196.543C196.982 197.259 196.221 197.983 195.494 198.69C195.731 198.394 195.984 198.09 196.221 197.793C196.942 197.066 197.7 196.322 198.44 195.586L197.728 196.543ZM204.901 189.644L201.611 192.807C201.977 192.323 202.316 191.85 202.686 191.364C203.825 190.232 204.951 189.107 206.096 187.973C205.704 188.528 205.288 189.092 204.901 189.644ZM212.344 182.59C211.016 183.834 209.674 185.083 208.382 186.311C208.851 185.654 209.318 184.999 209.794 184.338C211.06 183.102 212.367 181.844 213.661 180.594C213.213 181.263 212.784 181.924 212.344 182.59ZM220.128 175.28C218.483 176.815 216.889 178.325 215.259 179.852C215.793 179.058 216.361 178.251 216.904 177.453C218.453 175.961 219.967 174.484 221.543 172.98C221.061 173.751 220.602 174.513 220.128 175.28ZM227.96 168.077C226.172 169.713 224.377 171.354 222.629 172.972C223.148 172.145 223.645 171.325 224.174 170.494C225.913 168.843 227.683 167.176 229.451 165.511C228.955 166.366 228.444 167.226 227.96 168.077ZM236.103 160.633C234.126 162.425 232.199 164.193 230.255 165.97C230.776 165.07 231.292 164.173 231.825 163.269C233.683 161.528 235.567 159.776 237.471 158.013C237.006 158.89 236.557 159.761 236.103 160.633ZM244.457 153.127C242.315 155.046 240.18 156.961 238.075 158.863C238.567 157.928 239.106 156.977 239.613 156.038C241.651 154.154 243.694 152.267 245.754 150.373C245.313 151.294 244.884 152.211 244.457 153.127ZM252.994 145.533C250.733 147.53 248.491 149.517 246.281 151.489C246.729 150.544 247.152 149.607 247.613 148.658C249.748 146.709 251.964 144.723 254.166 142.743C253.773 143.674 253.375 144.607 252.994 145.533ZM261.817 137.766C259.401 139.885 257.018 141.987 254.632 144.092C255.031 143.132 255.463 142.164 255.877 141.2C258.19 139.116 260.466 137.05 262.818 134.948C262.477 135.889 262.145 136.828 261.817 137.766ZM270.829 129.953C268.306 132.125 265.776 134.301 263.323 136.44C263.659 135.499 263.979 134.562 264.326 133.617C266.717 131.489 269.168 129.332 271.62 127.174C271.344 128.103 271.094 129.026 270.829 129.953ZM280.07 121.985C277.404 124.269 274.815 126.517 272.18 128.786C272.456 127.835 272.744 126.881 273.031 125.927C275.561 123.703 278.106 121.473 280.686 119.225C280.475 120.146 280.27 121.066 280.07 121.985ZM382.593 590.921C381.807 590.616 381.013 590.315 380.219 590.014C380.236 589.102 380.26 588.19 380.271 587.28C381.02 587.609 381.763 587.941 382.506 588.273C382.541 589.154 382.566 590.038 382.593 590.921ZM385.913 592.225C385.151 591.922 384.382 591.621 383.612 591.321C383.586 590.457 383.567 589.592 383.533 588.729C384.261 589.057 384.978 589.389 385.698 589.719C385.776 590.553 385.843 591.389 385.913 592.225ZM389.185 593.552C388.445 593.248 387.706 592.943 386.959 592.642C386.892 591.829 386.821 591.016 386.748 590.202C387.446 590.526 388.143 590.85 388.834 591.176C388.954 591.967 389.074 592.758 389.185 593.552ZM392.394 594.887C391.687 594.588 390.98 594.288 390.263 593.992C390.159 593.225 390.041 592.461 389.924 591.698C390.593 592.016 391.265 592.333 391.926 592.654C392.086 593.397 392.245 594.141 392.394 594.887ZM395.536 596.23C394.865 595.937 394.182 595.648 393.503 595.358C393.362 594.644 393.218 593.931 393.067 593.219C393.711 593.535 394.351 593.854 394.987 594.174C395.178 594.857 395.355 595.544 395.536 596.23ZM398.629 597.599C397.992 597.312 397.343 597.028 396.698 596.744C396.526 596.084 396.352 595.424 396.172 594.766C396.778 595.073 397.368 595.386 397.967 595.696C398.19 596.33 398.417 596.962 398.629 597.599ZM401.633 598.976C401.039 598.7 400.447 598.424 399.849 598.151C399.65 597.549 399.44 596.95 399.231 596.351C399.796 596.648 400.354 596.948 400.913 597.247C401.16 597.821 401.395 598.399 401.633 598.976ZM404.576 600.365C404.026 600.1 403.481 599.835 402.924 599.573C402.71 599.043 402.499 598.513 402.279 597.986C402.782 598.259 403.289 598.531 403.787 598.806C404.05 599.326 404.319 599.843 404.576 600.365ZM407.408 601.74C406.937 601.505 406.454 601.275 405.977 601.042C405.752 600.577 405.517 600.115 405.283 599.653C405.734 599.907 406.186 600.16 406.631 600.416C406.896 600.856 407.151 601.298 407.408 601.74ZM410.154 603.13C409.752 602.923 409.344 602.72 408.939 602.515C408.722 602.137 408.505 601.758 408.286 601.381C408.657 601.599 409.025 601.818 409.394 602.038C409.646 602.402 409.904 602.765 410.154 603.13ZM412.747 604.489C412.453 604.332 412.159 604.175 411.863 604.019C411.678 603.742 411.494 603.465 411.307 603.189C411.584 603.359 411.855 603.532 412.131 603.703C412.342 603.963 412.54 604.228 412.747 604.489ZM415.139 605.774C414.991 605.693 414.849 605.61 414.7 605.529C414.59 605.386 414.476 605.244 414.366 605.101C414.492 605.183 414.614 605.266 414.741 605.348C414.873 605.49 415.008 605.631 415.139 605.774ZM186.3 209.095C185.597 209.769 184.878 210.451 184.184 211.12C184.389 210.867 184.575 210.624 184.78 210.371C185.507 209.645 186.27 208.903 187.013 208.17C186.778 208.477 186.532 208.789 186.3 209.095ZM193.618 202.091C192.574 203.083 191.572 204.054 190.535 205.042C190.907 204.562 191.268 204.086 191.643 203.604C192.687 202.579 193.704 201.567 194.754 200.537C194.379 201.054 193.991 201.576 193.618 202.091ZM201.254 194.93C199.909 196.185 198.554 197.446 197.231 198.691C197.721 198.024 198.231 197.349 198.729 196.679C199.988 195.459 201.285 194.222 202.564 192.992C202.116 193.643 201.696 194.281 201.254 194.93ZM209.073 187.65C207.431 189.164 205.836 190.655 204.221 192.156C204.76 191.378 205.329 190.588 205.879 189.806C207.432 188.323 208.978 186.843 210.563 185.345C210.062 186.115 209.563 186.884 209.073 187.65ZM216.956 180.439C215.209 182.035 213.458 183.632 211.731 185.218C212.268 184.394 212.778 183.58 213.327 182.751C215.056 181.123 216.803 179.485 218.549 177.85C218.027 178.709 217.466 179.584 216.956 180.439ZM225.26 172.922C223.294 174.685 221.343 176.442 219.423 178.182C219.972 177.277 220.54 176.364 221.102 175.453C222.922 173.762 224.795 172.047 226.666 170.332C226.178 171.202 225.735 172.056 225.26 172.922ZM233.701 165.361C231.564 167.268 229.454 169.163 227.338 171.061C227.856 170.131 228.391 169.196 228.925 168.261C230.991 166.366 233.018 164.489 235.114 162.581C234.638 163.509 234.163 164.437 233.701 165.361ZM242.334 157.751C240.088 159.716 237.83 161.688 235.644 163.625C236.119 162.689 236.584 161.757 237.072 160.815C239.211 158.879 241.406 156.917 243.596 154.956C243.169 155.89 242.749 156.821 242.334 157.751ZM251.246 149.941C248.807 152.062 246.438 154.15 244.039 156.254C244.478 155.282 244.964 154.295 245.419 153.318C247.718 151.263 250.016 149.209 252.36 147.132C251.983 148.07 251.611 149.007 251.246 149.941ZM260.338 142.105C257.815 144.272 255.301 146.434 252.831 148.576C253.208 147.624 253.571 146.677 253.963 145.721C256.38 143.585 258.818 141.44 261.279 139.283C260.954 140.227 260.649 141.165 260.338 142.105ZM269.65 134.142C266.993 136.399 264.371 138.641 261.768 140.872C262.095 139.904 262.444 138.93 262.784 137.959C265.299 135.761 267.867 133.539 270.447 131.311C270.184 132.254 269.902 133.202 269.65 134.142ZM279.221 126.041C276.449 128.376 273.721 130.691 270.994 133.004C271.254 132.053 271.527 131.099 271.799 130.145C274.469 127.839 277.102 125.552 279.81 123.229C279.61 124.167 279.409 125.105 279.221 126.041ZM382.68 594.355C381.834 594.07 380.986 593.787 380.133 593.506C380.162 592.574 380.184 591.644 380.205 590.715C381.011 591.024 381.816 591.334 382.615 591.646C382.642 592.548 382.665 593.451 382.68 594.355ZM386.166 595.549C385.341 595.264 384.522 594.974 383.69 594.692C383.676 593.809 383.657 592.927 383.633 592.046C384.416 592.354 385.203 592.66 385.977 592.971C386.045 593.829 386.108 594.689 386.166 595.549ZM389.6 596.758C388.803 596.473 388.004 596.188 387.198 595.907C387.142 595.07 387.087 594.233 387.023 593.398C387.784 593.706 388.545 594.014 389.297 594.325C389.405 595.134 389.5 595.947 389.6 596.758ZM392.987 597.982C392.219 597.699 391.437 597.42 390.66 597.14C390.565 596.348 390.468 595.557 390.366 594.767C391.099 595.073 391.823 595.383 392.549 595.693C392.699 596.455 392.848 597.217 392.987 597.982ZM396.304 599.229C395.568 598.949 394.826 598.671 394.083 598.394C393.95 597.648 393.802 596.905 393.657 596.163C394.364 596.468 395.064 596.777 395.763 597.085C395.949 597.798 396.127 598.513 396.304 599.229ZM399.559 600.492C398.849 600.213 398.146 599.933 397.428 599.656C397.263 598.969 397.1 598.282 396.925 597.598C397.594 597.896 398.263 598.194 398.924 598.494C399.14 599.159 399.351 599.825 399.559 600.492ZM402.751 601.77C402.082 601.498 401.415 601.225 400.739 600.956C400.543 600.32 400.339 599.687 400.134 599.053C400.763 599.342 401.396 599.63 402.018 599.922C402.267 600.537 402.514 601.152 402.751 601.77ZM405.857 603.048C405.24 602.789 404.61 602.534 403.986 602.276C403.766 601.698 403.547 601.12 403.319 600.543C403.91 600.826 404.496 601.109 405.081 601.394C405.344 601.944 405.6 602.496 405.857 603.048ZM408.902 604.359C408.334 604.112 407.76 603.867 407.186 603.621C406.949 603.1 406.7 602.582 406.456 602.063C406.998 602.332 407.527 602.606 408.063 602.876C408.346 603.37 408.627 603.863 408.902 604.359ZM411.835 605.667C411.326 605.437 410.824 605.206 410.31 604.978C410.071 604.536 409.839 604.091 409.594 603.651C410.065 603.894 410.531 604.14 410.999 604.385C411.28 604.811 411.558 605.238 411.835 605.667ZM414.665 606.968C414.243 606.77 413.824 606.571 413.399 606.375C413.168 606.009 412.924 605.647 412.687 605.283C413.076 605.491 413.473 605.696 413.857 605.906C414.129 606.259 414.399 606.613 414.665 606.968ZM417.332 608.238C417.025 608.088 416.709 607.942 416.4 607.793C416.206 607.531 416.017 607.267 415.821 607.006C416.102 607.163 416.387 607.319 416.665 607.478C416.889 607.731 417.112 607.983 417.332 608.238ZM419.833 609.483L419.372 609.253C419.263 609.122 419.158 608.99 419.047 608.86L419.462 609.105C419.589 609.23 419.706 609.358 419.833 609.483ZM174.572 221.791C173.993 222.346 173.401 222.906 172.822 223.46C173.015 223.225 173.201 222.995 173.397 222.76C173.997 222.167 174.62 221.562 175.227 220.967C175.014 221.238 174.783 221.519 174.572 221.791ZM182.23 214.52C181.203 215.483 180.199 216.432 179.191 217.385C179.559 216.923 179.931 216.456 180.302 215.992C181.315 215.004 182.279 214.041 183.307 213.046C182.937 213.543 182.596 214.026 182.23 214.52ZM189.897 207.373C188.524 208.655 187.139 209.942 185.768 211.222C186.268 210.558 186.815 209.873 187.323 209.206C188.623 207.957 189.948 206.697 191.255 205.445C190.797 206.09 190.349 206.731 189.897 207.373ZM197.705 200.174C196.157 201.586 194.603 203 193.095 204.392C193.615 203.665 194.094 202.956 194.622 202.225C196.149 200.78 197.71 199.318 199.277 197.853C198.758 198.624 198.215 199.407 197.705 200.174ZM205.815 192.775C204.044 194.384 202.307 195.976 200.551 197.578C201.11 196.749 201.668 195.919 202.239 195.085C203.946 193.489 205.634 191.904 207.358 190.301C206.835 191.129 206.327 191.952 205.815 192.775ZM214.142 185.308C212.177 187.06 210.204 188.815 208.285 190.544C208.855 189.641 209.471 188.719 210.053 187.811C211.885 186.122 213.77 184.408 215.647 182.698C215.132 183.573 214.643 184.438 214.142 185.308ZM222.646 177.732C220.521 179.611 218.449 181.464 216.36 183.326C216.892 182.418 217.385 181.524 217.93 180.61C219.994 178.732 222.049 176.857 224.153 174.959C223.654 175.883 223.133 176.813 222.646 177.732ZM231.403 170.054C229.148 172.026 226.898 173.995 224.682 175.947C225.19 175.001 225.706 174.052 226.229 173.1C228.374 171.171 230.543 169.231 232.723 167.286C232.266 168.215 231.846 169.131 231.403 170.054ZM240.369 162.266C237.956 164.347 235.562 166.42 233.204 168.475C233.677 167.503 234.18 166.52 234.67 165.543C236.946 163.521 239.27 161.476 241.605 159.426C241.187 160.374 240.772 161.322 240.369 162.266ZM249.561 154.352C247.032 156.52 244.541 158.67 242.044 160.823C242.462 159.861 242.869 158.903 243.301 157.936C245.742 155.794 248.149 153.666 250.624 151.507C250.258 152.459 249.913 153.404 249.561 154.352ZM258.952 146.385C256.307 148.616 253.647 150.854 251.073 153.051C251.438 152.081 251.834 151.103 252.214 150.13C254.724 147.95 257.303 145.738 259.878 143.527C259.568 144.48 259.248 145.435 258.952 146.385ZM268.61 138.236C265.829 140.569 263.114 142.87 260.373 145.182C260.68 144.221 260.99 143.259 261.309 142.294C263.965 140.015 266.614 137.738 269.318 135.435C269.073 136.371 268.844 137.303 268.61 138.236ZM278.457 130.045C275.579 132.43 272.716 134.807 269.903 137.161C270.144 136.218 270.368 135.279 270.619 134.334C273.375 131.992 276.158 129.637 278.969 127.268C278.787 128.196 278.629 129.119 278.457 130.045ZM382.715 597.804C381.81 597.54 380.907 597.276 379.995 597.015C380.038 596.069 380.074 595.125 380.106 594.181C380.971 594.467 381.835 594.752 382.688 595.041C382.701 595.961 382.713 596.881 382.715 597.804ZM386.375 598.885C385.496 598.621 384.61 598.359 383.723 598.098C383.722 597.193 383.71 596.29 383.696 595.388C384.539 595.676 385.375 595.967 386.211 596.258C386.27 597.133 386.33 598.007 386.375 598.885ZM389.969 599.977C389.12 599.713 388.254 599.456 387.396 599.195C387.353 598.333 387.299 597.475 387.243 596.615C388.068 596.905 388.877 597.201 389.692 597.494C389.79 598.32 389.882 599.149 389.969 599.977ZM393.515 601.101C392.685 600.835 391.851 600.57 391.013 600.307C390.931 599.496 390.847 598.685 390.752 597.876C391.547 598.165 392.338 598.456 393.126 598.749C393.261 599.531 393.388 600.316 393.515 601.101ZM397.016 602.245C396.207 601.977 395.405 601.706 394.587 601.441C394.465 600.678 394.337 599.917 394.209 599.156C394.97 599.442 395.738 599.726 396.49 600.016C396.67 600.758 396.851 601.499 397.016 602.245ZM400.429 603.394C399.661 603.131 398.89 602.869 398.114 602.609C397.956 601.89 397.789 601.173 397.619 600.458C398.358 600.745 399.093 601.033 399.823 601.323C400.032 602.011 400.229 602.703 400.429 603.394ZM403.794 604.563C403.062 604.302 402.313 604.048 401.572 603.791C401.381 603.124 401.195 602.455 400.997 601.79C401.698 602.073 402.386 602.359 403.078 602.644C403.319 603.283 403.564 603.921 403.794 604.563ZM407.075 605.758C406.385 605.504 405.691 605.251 404.992 604.999C404.773 604.381 404.542 603.766 404.311 603.151C404.979 603.43 405.64 603.714 406.301 603.996C406.567 604.581 406.819 605.17 407.075 605.758ZM410.303 606.973C409.646 606.722 408.995 606.467 408.33 606.218C408.094 605.665 407.859 605.111 407.615 604.561C408.223 604.825 408.834 605.089 409.436 605.356C409.727 605.894 410.022 606.431 410.303 606.973ZM413.412 608.183C412.822 607.948 412.231 607.715 411.635 607.483C411.382 606.986 411.121 606.492 410.857 605.998C411.421 606.252 411.991 606.505 412.549 606.762C412.844 607.233 413.122 607.709 413.412 608.183ZM416.456 609.41C415.93 609.193 415.391 608.982 414.86 608.767C414.604 608.338 414.342 607.91 414.081 607.482C414.575 607.715 415.067 607.949 415.556 608.184C415.857 608.593 416.164 608.998 416.456 609.41ZM419.352 610.638C418.914 610.45 418.473 610.262 418.029 610.076C417.787 609.726 417.552 609.376 417.304 609.029C417.72 609.233 418.127 609.441 418.539 609.647C418.814 609.976 419.082 610.307 419.352 610.638ZM422.141 611.858C421.807 611.709 421.48 611.558 421.143 611.41C420.934 611.149 420.717 610.892 420.504 610.633C420.82 610.795 421.124 610.962 421.435 611.125C421.671 611.369 421.909 611.612 422.141 611.858ZM424.631 612.978C424.476 612.906 424.315 612.837 424.158 612.765L423.807 612.38C423.943 612.455 424.086 612.527 424.222 612.601L424.631 612.978ZM162.947 234.257L161.18 235.938L161.689 235.335C162.266 234.769 162.858 234.196 163.436 233.63C163.268 233.841 163.114 234.046 162.947 234.257ZM170.54 227.124C169.515 228.076 168.477 229.036 167.473 229.979C167.861 229.498 168.277 229.004 168.669 228.522C169.644 227.579 170.637 226.628 171.636 225.674C171.265 226.16 170.907 226.641 170.54 227.124ZM178.286 219.915C176.928 221.169 175.624 222.396 174.281 223.642C174.735 223.052 175.149 222.481 175.609 221.888C176.967 220.595 178.312 219.306 179.68 218.007C179.217 218.642 178.742 219.283 178.286 219.915ZM186.098 212.787C184.6 214.151 183.09 215.519 181.614 216.871C182.16 216.128 182.691 215.39 183.245 214.642C184.704 213.272 186.209 211.879 187.699 210.492C187.172 211.254 186.615 212.029 186.098 212.787ZM194.401 205.26C192.616 206.864 190.867 208.449 189.116 210.036C189.694 209.203 190.301 208.357 190.891 207.519C192.571 205.96 194.231 204.412 195.94 202.839C195.411 203.653 194.923 204.45 194.401 205.26ZM202.778 197.779C200.814 199.529 198.853 201.278 196.913 203.017C197.493 202.129 198.091 201.232 198.685 200.338C200.564 198.616 202.471 196.882 204.376 195.148C203.838 196.027 203.304 196.905 202.778 197.779ZM211.297 190.257C209.226 192.071 207.156 193.884 205.138 195.672C205.694 194.759 206.228 193.857 206.798 192.939C208.799 191.129 210.847 189.296 212.902 187.46C212.375 188.389 211.81 189.333 211.297 190.257ZM220.223 182.437C217.937 184.428 215.71 186.39 213.454 188.367C213.993 187.411 214.563 186.443 215.117 185.481C217.286 183.544 219.422 181.623 221.62 179.672C221.136 180.6 220.693 181.513 220.223 182.437ZM229.22 174.686C226.833 176.734 224.439 178.785 222.11 180.804C222.606 179.843 223.1 178.883 223.611 177.917C225.892 175.902 228.235 173.858 230.573 171.816C230.121 172.773 229.657 173.735 229.22 174.686ZM238.504 166.734C235.97 168.891 233.483 171.024 230.996 173.157C231.45 172.186 231.904 171.214 232.373 170.238C234.782 168.134 237.198 166.027 239.657 163.899C239.258 164.849 238.89 165.789 238.504 166.734ZM247.971 158.728C245.319 160.962 242.686 163.189 240.082 165.4C240.486 164.423 240.913 163.439 241.332 162.457C243.874 160.263 246.435 158.059 249.019 155.843C248.668 156.805 248.308 157.769 247.971 158.728ZM257.689 150.589C254.927 152.891 252.172 155.188 249.472 157.459C249.819 156.488 250.169 155.517 250.531 154.542C253.15 152.305 255.831 150.036 258.516 147.766C258.226 148.711 257.968 149.648 257.689 150.589ZM267.608 142.338C264.72 144.728 261.896 147.088 259.05 149.457C259.337 148.498 259.621 147.54 259.923 146.577C262.709 144.221 265.458 141.882 268.29 139.504C268.057 140.45 267.829 141.395 267.608 142.338ZM277.739 134.031C274.755 136.467 271.762 138.908 268.859 141.304C269.087 140.349 269.344 139.387 269.583 138.429C272.42 136.053 275.328 133.643 278.238 131.231C278.069 132.165 277.898 133.099 277.739 134.031ZM382.69 601.263C381.735 601.024 380.771 600.788 379.807 600.552C379.862 599.591 379.922 598.629 379.97 597.669C380.894 597.934 381.806 598.203 382.721 598.471C382.718 599.4 382.701 600.332 382.69 601.263ZM386.515 602.233C385.582 601.992 384.637 601.755 383.694 601.517C383.705 600.599 383.719 599.68 383.723 598.763C384.623 599.029 385.514 599.298 386.404 599.568C386.444 600.455 386.483 601.343 386.515 602.233ZM390.29 603.229C389.376 602.984 388.458 602.74 387.534 602.499C387.504 601.623 387.465 600.75 387.424 599.878C388.299 600.144 389.174 600.412 390.039 600.682C390.128 601.53 390.215 602.378 390.29 603.229ZM393.992 604.237C393.103 603.991 392.219 603.745 391.322 603.502C391.25 602.67 391.168 601.841 391.085 601.013C391.937 601.281 392.792 601.549 393.634 601.821C393.761 602.625 393.876 603.431 393.992 604.237ZM397.65 605.266C396.787 605.018 395.919 604.774 395.046 604.53C394.935 603.744 394.829 602.956 394.708 602.173C395.534 602.443 396.355 602.715 397.173 602.989C397.336 603.747 397.497 604.505 397.65 605.266ZM401.237 606.31C400.411 606.064 399.572 605.824 398.735 605.582C398.588 604.836 398.429 604.095 398.269 603.352C399.072 603.623 399.859 603.901 400.652 604.175C400.853 604.885 401.049 605.596 401.237 606.31ZM404.761 607.385C403.962 607.138 403.159 606.891 402.35 606.647C402.169 605.954 401.989 605.262 401.797 604.572C402.562 604.841 403.325 605.111 404.083 605.384C404.314 606.049 404.539 606.717 404.761 607.385ZM408.223 608.477C407.457 608.231 406.698 607.983 405.922 607.739C405.711 607.097 405.49 606.457 405.269 605.816C405.994 606.08 406.727 606.342 407.444 606.609C407.709 607.23 407.97 607.853 408.223 608.477ZM411.603 609.581C410.883 609.34 410.156 609.102 409.429 608.865C409.192 608.273 408.956 607.682 408.708 607.093C409.396 607.354 410.08 607.613 410.758 607.877C411.043 608.444 411.326 609.011 411.603 609.581ZM414.902 610.7C414.239 610.469 413.561 610.245 412.89 610.017C412.63 609.474 412.357 608.934 412.086 608.395C412.733 608.65 413.369 608.91 414.01 609.169C414.313 609.677 414.608 610.188 414.902 610.7ZM418.125 611.85C417.506 611.626 416.886 611.403 416.26 611.182C415.992 610.705 415.732 610.225 415.455 609.751C416.04 609.992 416.611 610.238 417.188 610.481C417.502 610.937 417.818 611.391 418.125 611.85ZM421.232 612.999C420.686 612.793 420.147 612.583 419.594 612.379C419.325 611.967 419.043 611.558 418.763 611.149C419.287 611.374 419.811 611.6 420.329 611.827C420.639 612.215 420.931 612.609 421.232 612.999ZM424.239 614.15C423.777 613.969 423.31 613.789 422.843 613.61C422.59 613.276 422.335 612.945 422.08 612.613C422.504 612.804 422.935 612.992 423.355 613.184C423.648 613.507 423.951 613.826 424.239 614.15ZM427.048 615.279C426.715 615.142 426.375 615.009 426.04 614.874C425.835 614.637 425.64 614.397 425.431 614.162C425.742 614.309 426.053 614.456 426.36 614.603C426.593 614.827 426.818 615.054 427.048 615.279ZM429.717 616.397L429.184 616.171C429.064 616.048 428.936 615.929 428.814 615.807L429.299 616.051C429.436 616.167 429.58 616.281 429.717 616.397ZM151.114 246.792C150.451 247.412 149.828 248.013 149.174 248.629L149.513 248.234L151.535 246.265L151.114 246.792ZM158.606 239.824C157.584 240.777 156.545 241.737 155.524 242.689C155.884 242.251 156.227 241.821 156.591 241.381C157.607 240.406 158.66 239.414 159.694 238.43C159.332 238.894 158.963 239.362 158.606 239.824ZM166.325 232.699C165.091 233.823 163.863 234.945 162.658 236.054C163.113 235.476 163.547 234.908 164.007 234.327C165.287 233.115 166.535 231.92 167.837 230.698C167.345 231.36 166.811 232.04 166.325 232.699ZM174.448 225.302C172.919 226.691 171.398 228.077 169.878 229.463C170.434 228.722 171.003 227.974 171.569 227.229C173 225.893 174.454 224.546 175.892 223.207C175.391 223.915 174.942 224.599 174.448 225.302ZM182.722 217.873C180.944 219.456 179.152 221.045 177.421 222.605C178.022 221.761 178.682 220.891 179.294 220.043C180.943 218.524 182.641 216.982 184.336 215.44C183.788 216.256 183.259 217.062 182.722 217.873ZM191.172 210.337C189.217 212.067 187.326 213.765 185.399 215.482C185.976 214.626 186.507 213.789 187.096 212.927C189.022 211.174 190.913 209.439 192.865 207.674C192.304 208.56 191.72 209.456 191.172 210.337ZM199.818 202.761C197.739 204.578 195.658 206.396 193.618 208.193C194.202 207.27 194.788 206.346 195.385 205.417C197.36 203.642 199.383 201.843 201.401 200.047C200.863 200.956 200.342 201.858 199.818 202.761ZM208.76 194.984C206.476 196.956 204.22 198.915 201.984 200.863C202.552 199.9 203.176 198.913 203.758 197.943C205.906 196.036 208.065 194.123 210.258 192.193C209.745 193.129 209.258 194.054 208.76 194.984ZM217.826 187.182C215.451 189.22 213.093 191.25 210.748 193.273C211.266 192.32 211.745 191.383 212.277 190.424C214.6 188.385 216.936 186.339 219.291 184.284C218.807 185.247 218.295 186.223 217.826 187.182ZM227.192 179.222C224.678 181.346 222.153 183.475 219.703 185.567C220.189 184.588 220.692 183.602 221.194 182.617C223.557 180.564 225.995 178.475 228.422 176.39C227.992 177.341 227.608 178.275 227.192 179.222ZM236.736 171.159C234.071 173.396 231.477 175.599 228.857 177.814C229.294 176.836 229.737 175.854 230.19 174.869C232.752 172.668 235.29 170.478 237.896 168.254C237.509 169.223 237.108 170.195 236.736 171.159ZM246.51 163.023C243.753 165.311 240.995 167.598 238.3 169.856C238.686 168.88 239.075 167.902 239.474 166.92C242.093 164.693 244.769 162.437 247.447 160.181C247.116 161.133 246.826 162.074 246.51 163.023ZM256.466 154.788C253.595 157.151 250.751 159.5 247.938 161.834C248.266 160.863 248.599 159.891 248.942 158.916C251.698 156.596 254.488 154.259 257.303 151.909C257.027 152.868 256.73 153.832 256.466 154.788ZM266.695 146.405C263.707 148.845 260.749 151.269 257.814 153.684C258.085 152.718 258.379 151.746 258.665 150.778C261.535 148.384 264.414 145.986 267.331 143.57C267.116 144.516 266.899 145.462 266.695 146.405ZM277.112 137.961C274.032 140.445 270.945 142.935 267.942 145.381C268.153 144.431 268.361 143.481 268.584 142.528C271.516 140.105 274.542 137.636 277.556 135.172C277.404 136.102 277.255 137.032 277.112 137.961ZM267.672 146.591C270.71 144.112 273.823 141.597 276.932 139.083C264.058 225.118 295.405 303.788 326.715 382.367C345.728 430.084 364.723 477.768 373.787 527.045C362.508 484.687 343.138 443.793 323.651 402.66C285.639 322.422 247.21 241.273 267.672 146.591ZM257.446 154.969C260.403 152.535 263.406 150.078 266.422 147.614C246.46 241.921 284.79 322.817 322.687 402.812C343.233 446.183 363.645 489.29 374.571 534.122C361.646 495.181 340.822 457.824 319.792 420.11C274.921 339.647 229.137 257.558 257.446 154.969ZM175.465 225.419C177.306 223.755 179.163 222.081 181.047 220.394C75.3628 382.192 187.351 449.18 292.581 512.077C322.922 530.213 352.689 548.011 376.491 567.653M382.624 604.744C381.615 604.53 380.599 604.319 379.58 604.108C379.65 603.133 379.711 602.158 379.77 601.184C380.745 601.424 381.718 601.665 382.683 601.908C382.669 602.852 382.649 603.798 382.624 604.744ZM386.605 605.608C385.613 605.39 384.624 605.17 383.623 604.956C383.649 604.024 383.671 603.092 383.686 602.162C384.64 602.404 385.598 602.645 386.542 602.891C386.571 603.795 386.587 604.702 386.605 605.608ZM390.539 606.49C389.568 606.269 388.597 606.047 387.616 605.829C387.6 604.939 387.588 604.048 387.562 603.161C388.492 603.405 389.422 603.649 390.341 603.897C390.411 604.76 390.479 605.624 390.539 606.49ZM394.414 607.388C393.472 607.165 392.521 606.945 391.567 606.726C391.509 605.874 391.441 605.023 391.373 604.174C392.285 604.422 393.185 604.675 394.088 604.927C394.202 605.746 394.313 606.566 394.414 607.388ZM398.223 608.307C397.309 608.082 396.382 607.861 395.455 607.64C395.358 606.831 395.253 606.024 395.142 605.219C396.034 605.471 396.917 605.726 397.8 605.981C397.949 606.754 398.084 607.531 398.223 608.307ZM401.991 609.258C401.093 609.029 400.197 608.799 399.289 608.572C399.155 607.812 399.022 607.052 398.878 606.294C399.73 606.544 400.584 606.793 401.426 607.046C401.619 607.782 401.812 608.518 401.991 609.258ZM405.663 610.219C404.803 609.99 403.947 609.76 403.078 609.534C402.907 608.816 402.724 608.102 402.54 607.387C403.368 607.639 404.201 607.889 405.02 608.144C405.242 608.833 405.452 609.527 405.663 610.219ZM409.302 611.206C408.471 610.976 407.632 610.749 406.792 610.521C406.589 609.851 406.391 609.18 406.178 608.512C406.97 608.763 407.755 609.016 408.537 609.27C408.796 609.915 409.058 610.558 409.302 611.206ZM412.831 612.205C412.051 611.979 411.255 611.759 410.467 611.536C410.234 610.907 409.989 610.282 409.741 609.657C410.51 609.911 411.263 610.171 412.022 610.429C412.301 611.017 412.562 611.612 412.831 612.205ZM416.321 613.243C415.57 613.016 414.819 612.79 414.059 612.566C413.804 611.995 413.546 611.424 413.283 610.855C413.995 611.1 414.703 611.347 415.407 611.596C415.715 612.143 416.024 612.691 416.321 613.243ZM419.697 614.288C418.998 614.067 418.306 613.843 417.599 613.626C417.326 613.11 417.05 612.595 416.766 612.082C417.427 612.319 418.097 612.554 418.75 612.795C419.072 613.29 419.384 613.789 419.697 614.288ZM422.998 615.347C422.365 615.139 421.724 614.933 421.083 614.727C420.799 614.265 420.501 613.806 420.208 613.346C420.815 613.574 421.424 613.802 422.025 614.033C422.355 614.469 422.678 614.908 422.998 615.347ZM426.189 616.421C425.627 616.228 425.052 616.039 424.485 615.848C424.204 615.454 423.932 615.057 423.644 614.665C424.178 614.875 424.703 615.088 425.232 615.301C425.551 615.674 425.875 616.046 426.189 616.421ZM429.253 617.506C428.786 617.338 428.318 617.169 427.845 617.003C427.576 616.673 427.297 616.347 427.019 616.02C427.487 616.214 427.939 616.413 428.402 616.608C428.693 616.905 428.967 617.208 429.253 617.506ZM432.183 618.582C431.817 618.444 431.46 618.302 431.091 618.166C430.874 617.934 430.652 617.705 430.435 617.474C430.766 617.618 431.094 617.764 431.425 617.91C431.674 618.135 431.935 618.356 432.183 618.582ZM434.815 619.586C434.647 619.519 434.472 619.456 434.303 619.391C434.183 619.279 434.068 619.165 433.949 619.053C434.101 619.124 434.26 619.192 434.413 619.263L434.815 619.586ZM288.01 126.632C287.92 127.55 287.822 128.468 287.741 129.385C284.532 131.956 281.422 134.48 278.277 137.02C278.423 136.087 278.565 135.153 278.724 134.217C281.81 131.693 284.866 129.184 288.01 126.632ZM288.403 122.826C288.302 123.74 288.207 124.653 288.115 125.565C285.006 128.087 281.973 130.572 278.916 133.068C279.079 132.125 279.264 131.178 279.437 130.234C282.409 127.773 285.379 125.313 288.403 122.826ZM288.86 118.987C288.745 119.901 288.64 120.813 288.536 121.726C285.548 124.18 282.59 126.62 279.657 129.048C279.834 128.108 280.011 127.17 280.199 126.228C283.048 123.833 285.954 121.409 288.86 118.987ZM289.381 115.111C289.252 116.031 289.114 116.952 288.994 117.871C286.139 120.25 283.255 122.642 280.457 124.994C280.649 124.054 280.843 123.115 281.047 122.173C283.772 119.844 286.596 117.468 289.381 115.111ZM289.947 111.207C289.806 112.124 289.674 113.04 289.542 113.956C286.783 116.29 284.005 118.632 281.307 120.938C281.514 120 281.746 119.058 281.964 118.118C284.597 115.827 287.252 113.527 289.947 111.207ZM290.577 107.309C290.425 108.207 290.285 109.105 290.142 110.002C287.476 112.294 284.877 114.554 282.269 116.82C282.492 115.882 282.707 114.945 282.94 114.006C285.427 111.8 288.029 109.543 290.577 107.309ZM291.284 103.338C291.115 104.253 290.938 105.169 290.779 106.083C288.301 108.253 285.728 110.467 283.303 112.611C283.538 111.693 283.778 110.774 284.023 109.855C286.402 107.701 288.846 105.519 291.284 103.338ZM292.042 99.3496C291.861 100.256 291.688 101.163 291.517 102.069C289.14 104.191 286.714 106.336 284.394 108.432C284.644 107.513 284.914 106.591 285.176 105.67C287.439 103.574 289.721 101.47 292.042 99.3496ZM292.871 95.3243C292.677 96.2252 292.497 97.1259 292.314 98.0262C290.062 100.081 287.804 102.139 285.604 104.17C285.866 103.268 286.113 102.369 286.384 101.465C288.539 99.422 290.664 97.3909 292.871 95.3243ZM293.788 91.2524C293.579 92.1539 293.366 93.0547 293.168 93.9553C291.044 95.9396 288.956 97.9086 286.884 99.871C287.16 98.9701 287.444 98.0687 287.731 97.166C289.755 95.1922 291.714 93.2473 293.788 91.2524ZM294.747 87.2161C294.532 88.0881 294.318 88.9605 294.112 89.832C292.117 91.7476 290.192 93.6322 288.244 95.5271C288.535 94.632 288.849 93.7326 289.149 92.8361C291.015 90.963 292.84 89.1059 294.747 87.2161ZM295.767 83.1677C295.548 83.9995 295.348 84.8305 295.138 85.6616C293.294 87.4863 291.552 89.2677 289.749 91.0745C290.046 90.2117 290.327 89.3513 290.633 88.4869C292.331 86.7193 294.031 84.951 295.767 83.1677ZM296.893 79.0601C296.665 79.8769 296.437 80.6939 296.218 81.5103C294.557 83.2091 292.97 84.8772 291.34 86.5643C291.647 85.7155 291.958 84.8667 292.276 84.0168C293.79 82.374 295.343 80.7169 296.893 79.0601ZM298.075 74.9539C297.84 75.7425 297.599 76.5319 297.373 77.32C295.902 78.8843 294.468 80.4343 293.024 81.9881C293.339 81.1611 293.682 80.3295 294.005 79.501C295.329 77.9971 296.718 76.4697 298.075 74.9539ZM299.305 70.8671C299.077 71.5973 298.866 72.3258 298.644 73.0551C297.384 74.4554 296.132 75.8526 294.896 77.2435C295.195 76.4977 295.489 75.7525 295.796 75.0054C296.941 73.6347 298.134 72.2466 299.305 70.8671ZM300.646 66.7332C300.424 67.4058 300.209 68.0788 299.992 68.7513C298.966 69.9514 297.923 71.1576 296.916 72.351C297.184 71.7162 297.448 71.0819 297.721 70.446C298.692 69.2098 299.655 67.9763 300.646 66.7332ZM302.002 62.7387C301.808 63.2957 301.608 63.853 301.419 64.4099C300.659 65.3551 299.867 66.3107 299.12 67.2516C299.33 66.7739 299.55 66.295 299.765 65.8169C300.512 64.7901 301.24 63.7696 302.002 62.7387ZM303.279 59.0934C303.17 59.3894 303.071 59.6852 302.965 59.9809C302.509 60.5901 302.033 61.206 301.583 61.8127C301.688 61.5888 301.801 61.364 301.906 61.1396L303.279 59.0934ZM374.828 599.995C374.724 601.023 374.617 602.051 374.501 603.081C341.331 596.506 303.564 591.669 265.068 586.744C190.168 577.162 112.533 567.229 61.0052 543.407C-14.5346 508.483 -34.0283 443.608 93.0748 306.077C-22.577 438.002 2.38733 500.788 79.0205 535.948C128.369 558.589 199.105 569.748 267.512 580.539C305.347 586.508 342.462 592.367 374.828 599.995ZM375.192 596.326C375.098 597.341 374.991 598.358 374.889 599.375C342.545 591.782 305.519 585.936 267.774 579.983C199.469 569.207 128.835 558.064 79.6442 535.496C0.792175 499.318 -23.0011 433.682 105.938 292.956C-11.6891 428.482 18.1832 492.119 98.5332 528.682C145.109 549.876 208.616 561.95 270.186 573.655C307.277 580.706 343.66 587.624 375.192 596.326ZM375.491 592.677C375.414 593.679 375.334 594.681 375.245 595.684C343.749 587.03 307.474 580.134 270.5 573.105C209.011 561.415 145.589 549.358 99.1522 528.227C16.4662 490.602 -12.4394 424.111 119.008 279.48C-1.33118 419.455 34.5112 484.042 119.227 522.25C162.488 541.761 218.461 554.374 272.883 566.637C309.205 574.822 344.824 582.854 375.491 592.677ZM375.757 589.043C375.691 590.034 375.621 591.025 375.545 592.018C344.923 582.254 309.431 574.252 273.247 566.099C218.888 553.849 162.981 541.251 119.842 521.795C33.1148 482.68 -2.15739 415.773 130.171 267.97L130.851 267.308C8.59333 411.687 52.0038 476.935 141.596 516.952C180.781 534.455 228.78 547.12 275.602 559.473C311.133 568.848 345.978 578.045 375.757 589.043ZM375.988 585.434C375.931 586.409 375.864 587.386 375.8 588.362C346.077 577.438 311.388 568.28 276.019 558.948C229.249 546.608 181.305 533.958 142.207 516.495C51.5877 476.018 8.46042 409.58 137.421 260.917C138.099 260.263 138.738 259.628 139.423 258.97C18.4813 406.347 71.7937 471.424 166.547 513.304C200.543 528.33 239.854 540.362 278.349 552.145C313.071 562.772 347.124 573.198 375.988 585.434ZM376.159 581.842C376.117 582.8 376.076 583.757 376.024 584.716C347.227 572.574 313.35 562.203 278.815 551.633C240.356 539.861 201.083 527.84 167.154 512.844C71.6566 470.636 18.4083 404.762 144.467 254.169C145.479 253.205 146.507 252.234 147.519 251.269C-4.76979 443.782 143.485 496.095 281.119 544.627C315.008 556.577 348.24 568.302 376.159 581.842ZM376.301 578.263C376.269 579.204 376.233 580.146 376.194 581.089C348.351 567.662 315.319 556.009 281.641 544.133C143.287 495.347 -5.79428 442.718 152.201 246.829C153.316 245.781 154.478 244.71 155.624 243.648C15.3522 428.376 154.481 484.583 283.926 536.896C316.959 550.245 349.358 563.342 376.301 578.263ZM376.405 574.714C376.381 575.631 376.353 576.549 376.325 577.467C349.467 562.684 317.296 549.678 284.498 536.423C154.48 483.879 14.7565 427.358 159.663 239.895C161.153 238.513 162.604 237.151 164.112 235.76C35.4223 412.904 165.418 472.926 286.769 528.921C318.93 543.762 350.47 558.322 376.405 574.714ZM376.461 571.171C376.452 572.064 376.445 572.957 376.427 573.852C350.585 557.63 319.29 543.187 287.392 528.469C165.62 472.279 35.0836 412.043 167.352 232.802C169.05 231.247 170.788 229.673 172.516 228.103C55.4789 397.529 176.395 461.143 289.649 520.663C320.91 537.092 351.573 553.213 376.461 571.171ZM376.477 564.147C376.482 564.973 376.486 565.798 376.488 566.625C352.788 547.233 323.322 529.62 293.303 511.677C187.747 448.584 75.4039 381.358 183.722 218.009C185.711 216.231 187.706 214.449 189.715 212.66C95.1132 366.884 198.289 437.008 295.566 503.109C324.961 523.082 353.808 542.691 376.477 564.147ZM376.427 560.657C376.444 561.446 376.464 562.234 376.472 563.024C353.901 541.863 325.384 522.477 296.33 502.735C198.758 436.435 95.2576 366.072 192.156 210.49C194.283 208.61 196.483 206.695 198.671 204.785C114.772 351.535 209.196 424.577 298.612 493.687C327.036 515.655 354.941 537.23 376.427 560.657ZM376.354 557.19C376.375 557.917 376.385 558.646 376.401 559.374C355.01 536.309 327.463 515.017 299.417 493.34C209.752 424.038 115.015 350.789 200.807 202.916C203.113 200.901 205.406 198.892 207.755 196.856C134.214 336.192 220.077 411.831 301.73 483.723C329.16 507.874 356.108 531.603 376.354 557.19ZM376.23 553.727C376.253 554.396 376.281 555.064 376.303 555.734C356.141 530.584 329.591 507.198 302.568 483.406C220.692 411.317 134.584 335.452 209.741 195.147C212.131 193.082 214.559 190.998 216.994 188.91C153.499 320.838 230.946 398.715 304.932 473.105C331.337 499.655 357.293 525.762 376.23 553.727ZM376.082 550.283C376.111 550.869 376.144 551.455 376.169 552.042C357.3 524.605 331.764 498.925 305.798 472.817C231.609 398.224 153.927 320.123 218.799 187.357C221.331 185.19 223.912 183 226.506 180.803C172.616 305.377 241.777 385.116 308.227 461.686C333.583 490.904 358.534 519.664 376.082 550.283ZM375.907 546.858C375.934 547.327 375.954 547.798 375.98 548.267C358.473 518.305 333.992 490.087 309.121 461.428C242.49 384.65 173.131 304.683 228.169 179.397C230.818 177.153 233.454 174.917 236.142 172.654C191.457 289.845 252.581 370.928 311.629 449.271C335.912 481.49 359.842 513.244 375.907 546.858ZM375.688 543.418L375.752 544.389C359.691 511.603 336.289 480.543 312.546 449.041C253.333 370.478 192.055 289.15 237.706 171.341C240.437 169.051 243.257 166.718 246.059 164.392C210.129 274.131 263.357 355.984 315.161 435.596C338.339 471.216 361.225 506.39 375.688 543.418ZM375.452 540.028L375.474 540.292C360.95 504.333 338.664 470.073 316.098 435.392C264.15 355.555 210.768 273.465 247.488 163.203C250.35 160.826 253.222 158.444 256.139 156.04C228.468 258.192 274.097 340.051 318.841 420.287C340.9 459.847 362.741 499.014 375.452 540.028ZM330.926 357.678C348.6 410.965 366.401 464.641 373.396 519.808C363.87 473.045 345.789 427.656 327.69 382.238C296.283 303.411 264.85 224.491 278.097 138.143C281.27 135.577 284.413 133.026 287.655 130.426C281.117 207.492 305.889 282.195 330.926 357.678ZM377.082 550.175L377.035 549.26L377.19 549.589C377.228 549.916 377.271 550.243 377.307 550.571L377.082 550.175ZM377.231 553.605C377.212 553.142 377.2 552.678 377.18 552.215C377.305 552.436 377.434 552.656 377.557 552.877L377.704 554.305L377.231 553.605ZM377.354 557.045C377.337 556.461 377.312 555.877 377.291 555.293C377.5 555.605 377.7 555.918 377.904 556.231C377.96 556.8 378.004 557.372 378.056 557.942C377.822 557.643 377.591 557.343 377.354 557.045ZM377.428 560.496L377.389 558.514L378.197 559.555C378.254 560.212 378.316 560.869 378.367 561.527C378.054 561.184 377.743 560.839 377.428 560.496ZM377.481 563.971C377.475 563.241 377.466 562.512 377.454 561.784C377.79 562.155 378.131 562.524 378.463 562.896C378.514 563.614 378.567 564.331 378.614 565.049C378.239 564.689 377.859 564.33 377.481 563.971ZM377.495 567.459C377.495 566.672 377.489 565.887 377.486 565.102C377.895 565.494 378.296 565.888 378.701 566.281C378.748 567.043 378.786 567.806 378.827 568.568C378.383 568.199 377.941 567.828 377.495 567.459ZM377.468 570.956C377.477 570.134 377.495 569.312 377.5 568.491C377.96 568.876 378.429 569.259 378.886 569.645C378.93 570.455 378.975 571.266 379.009 572.078C378.499 571.703 377.985 571.329 377.468 570.956ZM377.418 574.482C377.437 573.616 377.447 572.752 377.456 571.887C377.991 572.277 378.515 572.669 379.044 573.06C379.075 573.897 379.106 574.734 379.132 575.572C378.563 575.208 377.991 574.845 377.418 574.482ZM377.313 578.008C377.341 577.119 377.369 576.23 377.392 575.341C377.985 575.718 378.578 576.094 379.164 576.473C379.187 577.341 379.2 578.21 379.218 579.079C378.585 578.721 377.953 578.363 377.313 578.008ZM377.177 581.566C377.217 580.648 377.257 579.73 377.29 578.813C377.942 579.177 378.586 579.544 379.232 579.91C379.249 580.802 379.265 581.693 379.271 582.585C378.578 582.244 377.876 581.905 377.177 581.566ZM377.009 585.135C377.061 584.195 377.1 583.258 377.141 582.319C377.853 582.667 378.564 583.017 379.27 583.368C379.271 584.28 379.272 585.192 379.266 586.105C378.515 585.781 377.765 585.457 377.009 585.135ZM376.783 588.722C376.846 587.766 376.909 586.809 376.966 585.854C377.735 586.183 378.503 586.511 379.266 586.841C379.256 587.771 379.237 588.704 379.221 589.635C378.411 589.329 377.6 589.024 376.783 588.722ZM376.525 592.333C376.601 591.356 376.673 590.379 376.738 589.403C377.569 589.712 378.387 590.024 379.206 590.336C379.188 591.282 379.169 592.227 379.14 593.174C378.274 592.892 377.397 592.613 376.525 592.333ZM376.228 595.958C376.315 594.968 376.394 593.98 376.471 592.991C377.355 593.276 378.238 593.562 379.114 593.85C379.08 594.811 379.044 595.773 379 596.736C378.079 596.475 377.157 596.215 376.228 595.958ZM375.873 599.604C375.974 598.603 376.081 597.601 376.175 596.602C377.112 596.862 378.046 597.123 378.976 597.386C378.929 598.36 378.869 599.336 378.813 600.311C377.838 600.074 376.859 599.838 375.873 599.604ZM375.485 603.277C375.599 602.259 375.707 601.241 375.81 600.224C376.808 600.461 377.791 600.702 378.777 600.943C378.72 601.929 378.659 602.914 378.589 603.902C377.56 603.691 376.523 603.484 375.485 603.277ZM341.853 712.471C361.038 675.311 371.349 639.205 375.412 603.886C376.459 604.095 377.503 604.307 378.541 604.521C375.998 639.176 366.613 674.937 347.32 712.306L348.28 712.471C367.567 675.114 376.967 639.367 379.531 604.727C380.559 604.94 381.587 605.152 382.604 605.368C381.593 639.334 373.148 674.731 353.749 712.306L354.71 712.471C374.1 674.914 382.561 639.535 383.602 605.587C384.612 605.804 385.617 606.024 386.616 606.245C387.164 639.506 379.682 674.526 360.176 712.306L361.136 712.471C380.631 674.711 388.139 639.709 387.629 606.465C388.623 606.688 389.605 606.916 390.59 607.142C392.728 639.684 386.216 674.319 366.602 712.306L367.563 712.471C387.162 674.511 393.706 639.897 391.618 607.378C392.58 607.602 393.536 607.827 394.489 608.055C398.253 639.864 392.754 674.103 373.031 712.306L373.99 712.471C393.697 674.303 399.231 640.09 395.532 608.306C396.473 608.533 397.415 608.759 398.347 608.99C403.766 640.051 399.296 673.886 379.46 712.306L380.42 712.471C400.233 674.096 404.754 640.293 399.414 609.26C400.329 609.49 401.244 609.72 402.148 609.954C409.254 640.25 405.836 673.667 385.887 712.306L386.847 712.471C406.769 673.886 410.247 640.502 403.236 610.235C404.127 610.469 405.004 610.706 405.885 610.944C414.715 640.458 412.377 673.445 392.313 712.306L393.273 712.471C413.303 673.677 415.72 640.728 407.013 611.245C407.874 611.48 408.722 611.719 409.572 611.958C420.159 640.674 418.923 673.22 398.743 712.306L399.703 712.471C419.84 673.469 421.171 640.968 410.736 612.287C411.557 612.521 412.379 612.755 413.19 612.993C425.571 640.895 425.469 672.989 405.17 712.306L406.13 712.471C426.372 673.264 426.608 641.222 414.421 613.361C415.195 613.592 415.975 613.82 416.741 614.055C430.957 641.124 432.018 672.754 411.597 712.306L412.557 712.471C432.909 673.053 432.004 641.485 418.03 614.458C418.775 614.69 419.516 614.926 420.252 615.162C436.327 641.377 438.563 672.526 418.025 712.306L418.984 712.471C439.441 672.85 437.397 641.769 421.615 615.596C422.307 615.822 422.982 616.056 423.665 616.285C441.652 641.63 445.117 672.285 424.453 712.306L425.413 712.471C445.97 672.656 442.759 642.083 425.151 616.784C425.784 617.002 426.411 617.222 427.036 617.443C446.964 641.898 451.667 672.045 430.88 712.306L431.841 712.471C452.492 672.472 448.098 642.425 428.653 618.02C429.203 618.219 429.762 618.414 430.308 618.615C452.236 642.163 458.224 671.791 437.307 712.306L438.267 712.471C459.001 672.313 453.443 642.809 432.162 619.321C432.616 619.493 433.074 619.664 433.522 619.839C457.478 642.456 464.782 671.544 443.736 712.306L444.697 712.471C465.499 672.181 458.77 643.246 435.673 620.693C436.019 620.832 436.364 620.973 436.708 621.113C462.707 642.776 471.33 671.31 450.164 712.306L451.124 712.471C471.969 672.096 464.091 643.762 439.23 622.164C439.405 622.239 439.578 622.316 439.751 622.391C467.881 643.083 477.893 671.047 456.59 712.306L457.551 712.471C478.238 672.402 469.587 644.813 443.543 624.242C473.227 643.901 484.262 671.158 463.019 712.306L463.978 712.471C484.229 673.247 475.365 646.577 449.027 627.076C479.019 645.657 490.256 672.001 469.447 712.306L470.407 712.471C490.206 674.121 481.2 648.347 454.71 629.858C484.863 647.423 496.233 672.874 475.874 712.306L476.834 712.471C499.296 668.967 483.468 642.373 446.449 624.62C444.674 623.602 442.827 622.615 440.939 621.643C439.217 620.585 437.453 619.543 435.62 618.529C433.97 617.441 432.255 616.377 430.503 615.329C428.873 614.172 427.2 613.03 425.469 611.912C423.93 610.733 422.342 609.573 420.711 608.429C419.193 607.166 417.624 605.922 416.012 604.694C414.591 603.411 413.135 602.141 411.63 600.888C410.245 599.519 408.805 598.169 407.335 596.829C406.012 595.396 404.653 593.975 403.251 592.57C402.04 591.125 400.796 589.691 399.514 588.27C398.352 586.728 397.144 585.201 395.912 583.683C394.814 582.055 393.682 580.44 392.516 578.834C391.51 577.153 390.478 575.48 389.409 573.818C388.502 572.096 387.574 570.38 386.61 568.674C385.79 566.875 384.948 565.083 384.072 563.299C383.346 561.428 382.596 559.562 381.819 557.705C381.188 555.755 380.537 553.81 379.857 551.871C379.343 549.91 378.802 547.954 378.247 546.002C377.818 543.89 377.363 541.783 376.891 539.68C376.575 537.531 376.237 535.386 375.88 533.244C370.289 473.296 351.027 415.205 331.911 357.569C306.79 281.836 281.932 206.89 288.732 129.567C342.369 86.5964 404.707 39.352 476.745 -12.6399L475.966 -13C404.32 38.7084 342.282 85.7199 288.836 128.515C288.919 127.594 289.012 126.672 289.106 125.75C340.735 83.8904 400.794 37.9227 470.32 -12.6399L469.537 -13C400.409 37.2727 340.649 83.0037 289.21 124.683C289.308 123.76 289.416 122.836 289.522 121.912C339.132 81.1679 396.9 36.482 463.893 -12.6411L463.106 -12.9986C396.528 35.8195 339.065 80.2583 289.652 120.812C289.762 119.894 289.86 118.975 289.98 118.057C337.557 78.4312 393.027 35.0305 457.466 -12.6425L456.68 -12.9979C392.673 34.3554 337.512 77.499 290.137 116.921C290.26 115.995 290.394 115.068 290.527 114.141C336.047 75.6517 389.202 33.5495 451.04 -12.6437L450.249 -12.9968C388.852 32.8673 336.003 74.7078 290.688 112.985C290.826 112.054 290.976 111.122 291.123 110.19C334.567 72.8508 385.416 32.0466 444.616 -12.6449L443.821 -12.9955C385.086 31.3448 334.545 71.8735 291.317 108.985C291.464 108.084 291.602 107.183 291.757 106.28C333.14 70.0612 381.588 30.5798 438.189 -12.646L437.389 -12.9945C381.263 29.8684 333.153 69.0522 291.986 105.032C292.15 104.11 292.32 103.188 292.494 102.265C331.77 67.206 377.85 29.0516 431.765 -12.6467L430.961 -12.9935C377.524 28.3355 331.787 66.183 292.726 100.996C292.905 100.072 293.099 99.1468 293.288 98.2219C330.444 64.3286 374.139 27.5088 425.34 -12.6494L424.532 -12.9913C373.829 26.7764 330.495 63.2686 293.56 96.8986C293.752 95.9839 293.938 95.0689 294.139 94.1528C329.16 61.4301 370.454 25.9528 418.913 -12.6508L418.101 -12.9902C370.161 25.2001 329.248 60.3252 294.456 92.7645C294.661 91.8516 294.867 90.9385 295.083 90.0251C327.946 58.4873 366.811 24.3711 412.488 -12.6528L411.672 -12.9875C366.523 23.6091 328.047 57.3585 295.415 88.5984C295.636 87.6836 295.877 86.7666 296.107 85.8514C326.794 55.509 363.205 22.7681 406.061 -12.6555L405.242 -12.9854C362.936 21.9834 326.934 54.3292 296.486 84.3493C296.714 83.4676 296.946 82.5857 297.183 81.7032C325.693 52.5395 359.594 21.1821 399.639 -12.6569L398.812 -12.9834C359.387 20.3318 325.885 51.2551 297.641 80.041C297.874 79.1975 298.098 78.3545 298.34 77.51C324.651 49.5345 356.023 19.572 393.213 -12.6609L392.379 -12.9801C355.846 18.6809 324.899 48.165 298.865 75.7198C299.108 74.8943 299.358 74.0678 299.609 73.2415C323.695 46.4736 352.505 17.9279 386.789 -12.6631L385.95 -12.9776C352.347 17.0054 323.982 45.0331 300.177 71.3435C300.426 70.5429 300.696 69.7411 300.953 68.9402C322.795 43.3865 349.026 16.2642 380.367 -12.6675L379.517 -12.9728C348.918 15.2736 323.178 41.7992 301.639 66.825C301.884 66.0814 302.127 65.3377 302.38 64.5933C321.954 40.2639 345.587 14.5781 373.942 -12.6722L373.084 -12.9689C345.549 13.4928 322.468 38.4797 303.22 62.1856C303.456 61.5118 303.685 60.838 303.927 60.1633C321.206 37.0784 342.21 12.8538 367.521 -12.6769L366.651 -12.9642C342.257 11.6421 321.88 35.0298 304.956 57.3613C305.169 56.7855 305.384 56.2093 305.602 55.6326C320.559 33.8169 338.892 11.0868 361.099 -12.683L360.217 -12.9572C339.075 9.6727 321.473 31.3523 306.916 52.2071C307.048 51.8702 307.186 51.5324 307.321 51.1956C319.951 30.6099 335.567 9.35069 354.678 -12.6916L353.785 -12.9491C336.25 7.27602 321.66 26.8405 309.606 45.8328C319.804 26.7656 332.54 7.27922 348.259 -12.7014L347.345 -12.9391C333.87 4.19103 322.586 20.9578 313.203 37.4089C320.76 20.8665 330.207 4.16913 341.839 -12.7137L340.911 -12.9265C327.08 7.14408 316.323 26.9526 308.172 46.5476C306.471 49.7468 304.831 52.9368 303.27 56.1132C301.262 59.5037 299.364 62.869 297.51 66.2242C295.277 69.7002 293.114 73.1572 291.05 76.5867C288.541 80.2293 286.106 83.8487 283.792 87.431C281.128 91.1079 278.589 94.742 276.114 98.3551C273.335 102.031 270.644 105.677 268.048 109.288C265.005 113.156 262.051 116.99 259.218 120.778C255.957 124.793 252.839 128.752 249.807 132.677C246.632 136.49 243.555 140.263 240.583 143.993C237.332 147.8 234.17 151.571 231.12 155.294C227.15 159.824 223.373 164.271 219.701 168.672C216.203 172.614 212.809 176.508 209.531 180.352C206.012 184.247 202.599 188.095 199.287 191.897C195.133 196.418 191.102 200.883 187.223 205.277C183.307 209.485 179.511 213.637 175.847 217.728C171.841 221.98 167.949 226.178 164.201 230.308C160.067 234.646 156.044 238.932 152.178 243.142C148.118 247.366 144.158 251.542 140.344 255.647C136.315 259.798 132.392 263.897 128.6 267.933C124.516 272.097 120.566 276.195 116.723 280.24C-37.365 435.827 -20.027 506.683 60.3828 543.857C112.095 567.764 189.842 577.711 264.851 587.308C303.418 592.242 341.25 597.087 374.429 603.69C370.384 639.021 360.082 675.138 340.893 712.306L341.853 712.471Z" fill="url(#paint0_linear_0_371)"/>
<defs>
<linearGradient id="paint0_linear_0_371" x1="-408.897" y1="231.94" x2="165.256" y2="940.916" gradientUnits="userSpaceOnUse">
<stop stop-color="#F1607D"/>
<stop offset="1" stop-color="#B01030"/>
</linearGradient>
</defs>
</svg>
