<svg width="3190" height="1173" viewBox="0 0 3190 1173" fill="none" xmlns="http://www.w3.org/2000/svg">
<path d="M2840.02 371.178L2833.12 374.597C2833.91 374.293 2834.69 374.005 2835.47 373.703C2838.04 372.513 2840.62 371.318 2843.19 370.107C2842.14 370.468 2841.08 370.818 2840.02 371.178ZM2796.05 390.437C2794.28 391.351 2792.49 392.282 2790.72 393.189L2791.45 392.889L2798.18 389.656L2796.05 390.437ZM2820.8 377.673C2816.89 379.702 2813.03 381.667 2809.13 383.691C2811.19 382.92 2813.27 382.115 2815.33 381.34C2819.16 379.465 2823.04 377.525 2826.89 375.614C2824.86 376.296 2822.83 376.996 2820.8 377.673ZM2751.41 410.828C2749.93 411.607 2748.48 412.341 2747.01 413.116L2747.05 413.1C2748.75 412.255 2750.47 411.38 2752.18 410.527L2751.41 410.828ZM2775.82 397.824C2772.34 399.685 2768.84 401.569 2765.37 403.412C2766.98 402.77 2768.59 402.144 2770.21 401.5C2774.17 399.502 2778.08 397.582 2782.06 395.559C2779.98 396.309 2777.9 397.081 2775.82 397.824ZM2801.76 383.907C2796.87 386.567 2792.03 389.146 2787.15 391.768C2789.73 390.829 2792.31 389.885 2794.9 388.936C2799.78 386.43 2804.69 383.886 2809.58 381.36C2806.98 382.215 2804.37 383.059 2801.76 383.907ZM705.308 564.543L707.187 564.73C708.57 564.565 709.95 564.406 711.333 564.244L709.598 564.142C708.17 564.273 706.738 564.411 705.308 564.543ZM2704.83 432.79L2703.3 433.61C2703.99 433.255 2704.68 432.917 2705.38 432.562L2704.83 432.79ZM2730.72 418.835C2727.49 420.606 2724.3 422.331 2721.09 424.067C2722.37 423.534 2723.65 423.015 2724.93 422.478C2728.35 420.711 2731.79 418.91 2735.2 417.142C2733.7 417.717 2732.22 418.264 2730.72 418.835ZM2756.37 404.692C2751.7 407.266 2747.02 409.857 2742.36 412.414C2744.99 411.397 2747.63 410.349 2750.27 409.324C2754.87 406.902 2759.51 404.424 2764.15 401.945C2761.55 402.863 2758.96 403.781 2756.37 404.692ZM2782.65 390.046C2777.07 393.194 2771.52 396.304 2766 399.378C2768.9 398.349 2771.78 397.353 2774.69 396.315C2780.42 393.243 2786.12 390.214 2791.86 387.136C2788.78 388.123 2785.72 389.072 2782.65 390.046ZM689.46 566.035C690.56 566.187 691.654 566.354 692.754 566.509L698.843 565.754C697.782 565.653 696.725 565.542 695.662 565.444C693.595 565.64 691.527 565.834 689.46 566.035ZM679.765 564.722L681.92 565.008L686.083 564.591L684.211 564.424C682.727 564.524 681.248 564.616 679.765 564.722ZM670.793 563.544L671.095 563.58L672.41 563.484L670.793 563.544ZM2684.14 441.152C2681.12 442.81 2678.08 444.495 2675.06 446.167L2679.63 444.177C2682.58 442.616 2685.58 440.984 2688.56 439.389C2687.08 439.982 2685.62 440.561 2684.14 441.152ZM2710.24 426.564C2705.84 429.066 2701.43 431.583 2697.09 434.009C2699.26 433.126 2701.47 432.188 2703.65 431.296C2708.36 428.762 2713.05 426.261 2717.77 423.724C2715.26 424.664 2712.74 425.63 2710.24 426.564ZM2736.96 411.413L2720.48 420.757C2723.51 419.612 2726.52 418.488 2729.56 417.332C2734.88 414.428 2740.27 411.433 2745.64 408.461C2742.74 409.464 2739.85 410.421 2736.96 411.413ZM2763.7 395.996C2757.55 399.587 2751.4 403.191 2745.33 406.662C2748.61 405.529 2751.91 404.341 2755.2 403.191C2761.5 399.694 2767.74 396.274 2774.07 392.738C2770.62 393.821 2767.15 394.93 2763.7 395.996ZM674.067 567.583C675.455 567.838 676.847 568.085 678.233 568.346C680.707 568.027 683.183 567.702 685.654 567.389C684.275 567.198 682.887 567.022 681.506 566.833C679.027 567.085 676.549 567.327 674.067 567.583ZM664.583 565.852C665.67 566.043 666.75 566.244 667.836 566.44C669.856 566.228 671.872 566.021 673.891 565.816L670.64 565.4C668.62 565.55 666.603 565.697 664.583 565.852ZM655.257 564.25L657.407 564.619C658.809 564.507 660.212 564.393 661.612 564.286C660.966 564.208 660.324 564.126 659.677 564.048C658.202 564.119 656.732 564.18 655.257 564.25ZM646.508 562.801L646.982 562.878L648.651 562.788L648.529 562.774L646.508 562.801ZM2636.9 464.43C2634.2 465.957 2631.48 467.51 2628.8 469.012C2629.69 468.613 2630.59 468.197 2631.48 467.794C2634.61 466.106 2637.72 464.456 2640.86 462.761L2636.9 464.43ZM2663.31 449.471C2659.03 451.905 2654.78 454.296 2650.51 456.723C2652.65 455.812 2654.78 454.941 2656.93 454.024C2661.27 451.651 2665.67 449.206 2670.04 446.79C2667.8 447.673 2665.54 448.595 2663.31 449.471ZM2690.27 433.899C2685.06 436.943 2679.83 440.007 2674.68 442.964C2677.44 441.87 2680.21 440.76 2682.98 439.651C2688.4 436.636 2693.78 433.698 2699.24 430.638C2696.24 431.74 2693.26 432.811 2690.27 433.899ZM2717.65 417.977C2711.45 421.603 2705.31 425.153 2699.13 428.75C2702.44 427.53 2705.75 426.302 2709.07 425.064C2715.16 421.636 2721.29 418.142 2727.42 414.659C2724.16 415.756 2720.9 416.894 2717.65 417.977ZM2745.2 401.601C2738.54 405.59 2731.86 409.613 2725.29 413.474C2728.79 412.295 2732.29 411.103 2735.79 409.906C2742.45 406.102 2749.12 402.271 2755.84 398.386C2752.29 399.468 2748.75 400.533 2745.2 401.601ZM658.99 569.18C660.514 569.538 662.033 569.904 663.554 570.266C666.405 569.886 669.252 569.518 672.102 569.147C670.521 568.856 668.94 568.563 667.357 568.278C664.569 568.575 661.778 568.88 658.99 569.18ZM649.626 567.046C650.986 567.352 652.346 567.657 653.703 567.965C656.167 567.696 658.626 567.435 661.088 567.17C659.691 566.925 658.291 566.688 656.893 566.448C654.472 566.643 652.048 566.847 649.626 567.046ZM640.458 565.024C641.576 565.265 642.703 565.494 643.82 565.739C645.826 565.569 647.829 565.411 649.832 565.244C648.703 565.058 647.563 564.883 646.431 564.699L640.458 565.024ZM631.573 563.135C632.3 563.286 633.021 563.446 633.745 563.596C635.188 563.512 636.624 563.442 638.065 563.361L635.976 563.033C634.51 563.067 633.044 563.096 631.573 563.135ZM623.031 561.417L623.709 561.553C624.327 561.534 624.947 561.51 625.564 561.493L625.215 561.441C624.485 561.436 623.76 561.422 623.031 561.417ZM2589.43 488.421C2586.76 489.959 2584.17 491.38 2581.5 492.897C2582.07 492.632 2582.63 492.385 2583.2 492.12C2586.06 490.557 2588.95 488.949 2591.82 487.376C2591.03 487.72 2590.23 488.081 2589.43 488.421ZM2615.65 473.238C2611.7 475.526 2607.73 477.84 2603.81 480.097C2605.82 479.213 2607.83 478.343 2609.84 477.45C2613.98 475.151 2618.08 472.902 2622.26 470.56C2620.04 471.474 2617.86 472.331 2615.65 473.238ZM2643.38 457.145C2638 460.306 2632.72 463.326 2627.36 466.448C2630.14 465.297 2632.94 464.093 2635.73 462.931C2640.93 460.001 2646.17 457.022 2651.39 454.064C2648.71 455.1 2646.05 456.124 2643.38 457.145ZM2670.33 441.115C2664.44 444.629 2658.54 448.16 2652.71 451.598C2655.87 450.372 2659 449.197 2662.17 447.953C2668.17 444.525 2674.21 441.051 2680.27 437.535C2676.96 438.727 2673.64 439.942 2670.33 441.115ZM2698.76 424.17C2691.97 428.253 2685.28 432.208 2678.54 436.232C2682.06 434.967 2685.6 433.671 2689.12 432.385C2695.74 428.548 2702.38 424.683 2709.03 420.808C2705.6 421.939 2702.18 423.055 2698.76 424.17ZM2726.8 407.071C2719.66 411.437 2712.51 415.823 2705.46 420.085C2709.14 418.873 2712.81 417.696 2716.5 416.467C2723.5 412.353 2730.61 408.11 2737.72 403.865C2734.08 404.949 2730.44 406.004 2726.8 407.071ZM643.979 570.839C645.637 571.315 647.304 571.778 648.958 572.262C652.052 571.834 655.144 571.402 658.24 570.982C656.543 570.587 654.846 570.199 653.148 569.81C650.093 570.145 647.035 570.492 643.979 570.839ZM634.986 568.295C636.501 568.713 638.012 569.143 639.522 569.568C642.288 569.25 645.055 568.92 647.82 568.609C646.289 568.268 644.764 567.911 643.232 567.575C640.485 567.805 637.734 568.05 634.986 568.295ZM626.037 565.866C627.377 566.224 628.709 566.592 630.046 566.954C632.448 566.737 634.855 566.515 637.256 566.304C635.875 566.009 634.498 565.71 633.116 565.42C630.76 565.56 628.396 565.721 626.037 565.866ZM617.187 563.562C618.302 563.848 619.417 564.131 620.531 564.422L626.449 564.049C625.32 563.821 624.185 563.597 623.055 563.371C621.102 563.43 619.143 563.495 617.187 563.562ZM608.605 561.395C609.39 561.589 610.183 561.772 610.968 561.968C612.395 561.916 613.815 561.876 615.242 561.829C614.472 561.681 613.699 561.543 612.931 561.4C611.488 561.399 610.049 561.391 608.605 561.395ZM600.487 559.429L601.295 559.623C601.96 559.619 602.627 559.608 603.291 559.606L602.728 559.502L600.487 559.429ZM2540.22 513.702C2538.1 514.916 2535.98 516.147 2533.86 517.368C2534.68 516.98 2535.48 516.603 2536.3 516.214C2538.46 515.015 2540.65 513.779 2542.82 512.554C2541.95 512.948 2541.09 513.313 2540.22 513.702ZM2567.86 497.642C2564.06 499.89 2560.28 502.112 2556.52 504.302C2558.15 503.564 2559.78 502.813 2561.41 502.074C2565.41 499.814 2569.44 497.531 2573.45 495.277C2571.58 496.075 2569.73 496.85 2567.86 497.642ZM2594.87 481.648C2589.81 484.643 2584.74 487.658 2579.7 490.631C2582.53 489.413 2585.38 488.174 2588.22 486.941C2593.15 484.128 2598.16 481.201 2603.16 478.295C2600.4 479.409 2597.62 480.547 2594.87 481.648ZM2622.88 464.942C2617.02 468.475 2611.22 471.938 2605.42 475.401C2608.43 474.181 2611.43 472.982 2614.45 471.747L2632.23 461.441C2629.1 462.625 2626 463.773 2622.88 464.942ZM2650.97 447.884C2644.39 451.898 2637.79 455.909 2631.25 459.861C2634.89 458.483 2638.56 457.04 2642.21 455.642C2648.51 451.944 2654.94 448.085 2661.34 444.261C2657.88 445.476 2654.42 446.689 2650.97 447.884ZM2679.71 430.307C2672.57 434.713 2665.5 439.042 2658.43 443.358C2662.01 442.102 2665.58 440.88 2669.17 439.602C2676.34 435.339 2683.47 431.117 2690.67 426.816C2687.01 427.996 2683.36 429.147 2679.71 430.307ZM2708.53 412.386C2700.94 417.121 2693.36 421.846 2685.84 426.495C2689.75 425.244 2693.68 423.932 2697.59 422.656C2704.91 418.255 2712.39 413.654 2719.83 409.099C2716.06 410.195 2712.29 411.313 2708.53 412.386ZM646.438 578.745C730.426 609.595 808.247 651.414 887.537 694.043C1178.44 850.447 1489.39 1017.48 2199.83 689.751M629.116 572.553C630.804 573.135 632.482 573.738 634.163 574.331C637.491 573.857 640.82 573.386 644.147 572.924C642.399 572.421 640.648 571.922 638.897 571.426C635.638 571.797 632.381 572.165 629.116 572.553ZM620.403 569.613C622.013 570.151 623.622 570.693 625.226 571.239C628.286 570.87 631.34 570.512 634.395 570.16C632.734 569.699 631.061 569.254 629.392 568.802C626.399 569.068 623.404 569.329 620.403 569.613ZM611.776 566.784C613.277 567.268 614.783 567.739 616.279 568.23C619.007 567.97 621.735 567.71 624.459 567.461C622.925 567.052 621.384 566.657 619.847 566.256C617.159 566.428 614.469 566.602 611.776 566.784ZM603.251 564.073C604.576 564.486 605.898 564.903 607.217 565.321C609.561 565.155 611.91 564.972 614.25 564.818C612.91 564.475 611.58 564.122 610.238 563.789C607.914 563.875 605.58 563.979 603.251 564.073ZM594.783 561.491C595.884 561.82 596.979 562.163 598.079 562.496L603.896 562.252C602.775 561.982 601.658 561.704 600.535 561.438L594.783 561.491ZM586.458 559.056L588.834 559.741C590.257 559.72 591.672 559.715 593.091 559.702L590.755 559.169C589.321 559.134 587.892 559.086 586.458 559.056ZM578.775 556.868L579.7 557.12L581.662 557.151L580.869 556.983C580.173 556.94 579.471 556.909 578.775 556.868ZM2491.51 539.205C2489.7 540.267 2487.87 541.352 2486.07 542.401L2486.55 542.17C2488.79 540.906 2491.01 539.671 2493.26 538.406L2491.51 539.205ZM2518.91 523.083C2515.02 525.372 2511.12 527.659 2507.21 529.965C2509.09 529.093 2511 528.167 2512.87 527.289C2516.62 525.148 2520.43 522.931 2524.22 520.748C2522.45 521.527 2520.68 522.31 2518.91 523.083ZM2546.05 506.872C2541.46 509.655 2536.84 512.465 2532.31 515.168C2534.55 514.174 2536.76 513.226 2539 512.222C2544.15 509.242 2549.24 506.337 2554.42 503.332C2551.64 504.496 2548.82 505.721 2546.05 506.872ZM2574.49 489.707L2557.13 500.185C2560.3 498.851 2563.48 497.498 2566.67 496.148C2572.2 492.9 2577.82 489.551 2583.42 486.225C2580.43 487.409 2577.47 488.537 2574.49 489.707ZM2602.8 472.385C2596.38 476.351 2589.97 480.316 2583.65 484.174C2586.97 482.86 2590.32 481.503 2593.65 480.169C2600.28 476.231 2606.82 472.409 2613.48 468.423C2609.92 469.745 2606.35 471.082 2602.8 472.385ZM2631.7 454.503C2624.65 458.867 2617.64 463.21 2610.63 467.54C2614.32 466.175 2618 464.824 2621.7 463.436C2628.52 459.336 2635.43 455.111 2642.33 450.907C2638.78 452.129 2635.24 453.301 2631.7 454.503ZM2660.87 436.229C2653.36 440.977 2645.87 445.697 2638.45 450.327C2642.22 449.038 2646.01 447.693 2649.79 446.383C2657.33 441.787 2664.81 437.265 2672.41 432.6C2668.57 433.811 2664.71 435.041 2660.87 436.229ZM2690.6 417.41C2682.63 422.468 2674.7 427.487 2666.79 432.486C2670.7 431.264 2674.62 430.036 2678.54 428.791C2686.26 424.034 2694.11 419.127 2701.93 414.24C2698.15 415.313 2694.37 416.358 2690.6 417.41ZM614.277 574.373C615.982 575.073 617.692 575.766 619.394 576.475C622.894 575.958 626.393 575.455 629.89 574.952C628.106 574.335 626.318 573.719 624.528 573.112C621.112 573.53 617.693 573.949 614.277 574.373ZM606.004 571.035C607.646 571.686 609.29 572.337 610.927 572.998C614.168 572.591 617.406 572.197 620.646 571.802C618.947 571.231 617.256 570.65 615.553 570.091C612.37 570.404 609.188 570.714 606.004 571.035ZM597.745 567.792C599.293 568.387 600.83 569.001 602.372 569.606C605.351 569.302 608.323 569.014 611.299 568.725C609.684 568.205 608.073 567.679 606.454 567.169C603.553 567.374 600.654 567.572 597.745 567.792ZM589.451 564.674C590.896 565.209 592.335 565.754 593.776 566.3C596.457 566.091 599.133 565.9 601.808 565.709C600.302 565.242 598.787 564.785 597.276 564.324C594.669 564.435 592.062 564.547 589.451 564.674ZM581.238 561.69C582.553 562.16 583.87 562.621 585.183 563.098C587.488 562.983 589.802 562.853 592.106 562.747C590.739 562.341 589.361 561.955 587.99 561.555C585.743 561.589 583.488 561.648 581.238 561.69ZM573.146 558.837C574.252 559.219 575.357 559.596 576.458 559.981C578.356 559.94 580.249 559.908 582.146 559.869C581.035 559.554 579.928 559.234 578.816 558.924C576.926 558.896 575.04 558.86 573.146 558.837ZM565.244 556.158C566.03 556.42 566.809 556.689 567.593 556.954C568.977 556.965 570.358 556.98 571.74 557C570.957 556.788 570.182 556.571 569.401 556.364C568.016 556.293 566.632 556.224 565.244 556.158ZM557.766 553.734L558.753 554.052L560.784 554.134L559.913 553.915L557.766 553.734ZM2442.84 565.149L2442.48 565.365L2442.91 565.114L2442.84 565.149ZM2469.02 549.462C2465.64 551.484 2462.24 553.536 2458.88 555.54C2460.32 554.854 2461.73 554.208 2463.17 553.518C2467.1 551.247 2470.95 549.083 2474.91 546.777C2472.95 547.659 2470.97 548.584 2469.02 549.462ZM2497.53 532.38C2492.74 535.273 2488.04 538.045 2483.26 540.926C2485.62 539.855 2487.96 538.791 2490.32 537.709C2494.9 535.027 2499.53 532.287 2504.13 529.58C2501.91 530.54 2499.74 531.429 2497.53 532.38ZM2525.43 515.276C2519.83 518.729 2514.21 522.203 2508.67 525.578C2511.65 524.281 2514.68 522.923 2517.67 521.613C2523.36 518.241 2529.01 514.916 2534.74 511.483C2531.63 512.763 2528.53 514.013 2525.43 515.276ZM2554.14 497.632C2547.75 501.579 2541.41 505.451 2535.01 509.391C2538.3 508.038 2541.55 506.754 2544.85 505.381C2551.24 501.545 2557.68 497.639 2564.12 493.745C2560.8 495.033 2557.45 496.364 2554.14 497.632ZM2583.08 479.504C2576.25 483.816 2569.39 488.16 2562.67 492.351C2566.2 490.983 2569.74 489.601 2573.28 488.215C2580.13 484.05 2586.97 479.902 2593.89 475.658C2590.27 476.968 2586.69 478.213 2583.08 479.504ZM2612.61 460.916C2605.1 465.657 2597.64 470.335 2590.14 475.061C2593.95 473.682 2597.78 472.282 2601.61 470.879C2608.95 466.362 2616.36 461.766 2623.77 457.167C2620.05 458.413 2616.32 459.689 2612.61 460.916ZM2642.4 441.85C2634.61 446.88 2626.79 451.942 2619.12 456.821C2622.92 455.551 2626.71 454.28 2630.52 452.99C2638.29 448.153 2646.07 443.305 2653.93 438.372C2650.08 439.553 2646.25 440.692 2642.4 441.85ZM2672.74 422.319C2664.43 427.688 2656.18 432.977 2647.89 438.32C2651.82 437.121 2655.76 435.935 2659.7 434.716C2667.82 429.604 2676.01 424.407 2684.2 419.197C2680.38 420.251 2676.56 421.284 2672.74 422.319ZM599.474 576.255C601.165 577.066 602.844 577.893 604.528 578.716C608.158 578.164 611.792 577.599 615.422 577.056C613.661 576.328 611.9 575.599 610.136 574.883C606.585 575.33 603.029 575.793 599.474 576.255ZM591.622 572.526C593.262 573.291 594.889 574.077 596.52 574.852C599.929 574.408 603.337 573.95 606.739 573.515C605.017 572.826 603.283 572.152 601.552 571.472C598.246 571.812 594.931 572.171 591.622 572.526ZM583.703 568.905C585.295 569.624 586.886 570.344 588.473 571.074C591.637 570.733 594.801 570.391 597.962 570.06C596.295 569.416 594.618 568.791 592.945 568.157C589.868 568.4 586.785 568.651 583.703 568.905ZM575.774 565.381C577.302 566.049 578.838 566.706 580.362 567.383C583.252 567.142 586.136 566.915 589.021 566.683C587.451 566.101 585.885 565.514 584.31 564.941C581.468 565.083 578.624 565.222 575.774 565.381ZM567.915 561.989C569.32 562.582 570.719 563.188 572.119 563.79C574.727 563.64 577.327 563.504 579.929 563.371C578.466 562.848 577.01 562.315 575.541 561.8C573.002 561.857 570.458 561.92 567.915 561.989ZM560.077 558.739C561.345 559.255 562.603 559.788 563.867 560.309C566.111 560.244 568.364 560.163 570.606 560.105C569.292 559.654 567.974 559.209 566.656 558.764C564.466 558.749 562.269 558.745 560.077 558.739ZM552.238 555.618C553.333 556.046 554.428 556.472 555.519 556.908C557.4 556.909 559.277 556.924 561.157 556.93C560.034 556.564 558.902 556.21 557.777 555.849C555.931 555.772 554.091 555.686 552.238 555.618ZM544.737 552.718C545.546 553.026 546.367 553.318 547.173 553.627C548.517 553.669 549.866 553.696 551.208 553.744C550.39 553.488 549.561 553.25 548.741 552.998C547.412 552.896 546.071 552.815 544.737 552.718ZM537.597 550.061L538.605 550.436C539.311 550.481 540.011 550.535 540.717 550.582C540.42 550.496 540.13 550.404 539.833 550.317L537.597 550.061ZM2391.73 592.705L2386.92 595.559L2387.3 595.371C2389.03 594.374 2390.81 593.318 2392.55 592.305L2391.73 592.705ZM2419.54 576.049C2416.59 577.852 2413.62 579.682 2410.71 581.433L2413.5 580.076C2416.81 578.146 2420.13 576.202 2423.42 574.291C2422.12 574.893 2420.84 575.451 2419.54 576.049ZM2447.56 558.976C2442.99 561.754 2438.41 564.56 2433.85 567.332C2436.42 566.131 2439.02 564.887 2441.61 563.676C2445.91 561.131 2450.3 558.477 2454.67 555.852C2452.29 556.908 2449.93 557.928 2447.56 558.976ZM2476.27 541.392C2470.62 544.892 2465.06 548.282 2459.45 551.726C2462.23 550.489 2465 549.241 2467.78 547.99C2473.48 544.578 2479.19 541.15 2484.89 537.738C2482.01 538.957 2479.13 540.188 2476.27 541.392ZM2504.55 523.724C2498.43 527.553 2492.3 531.398 2486.23 535.168C2489.59 533.743 2492.92 532.35 2496.29 530.903C2502.35 527.229 2508.5 523.453 2514.65 519.67C2511.28 521.024 2507.91 522.388 2504.55 523.724ZM2534.34 505.081C2527.31 509.523 2520.41 513.796 2513.41 518.191C2517 516.748 2520.62 515.25 2524.22 513.785C2531.03 509.608 2537.84 505.42 2544.67 501.217C2541.21 502.526 2537.79 503.793 2534.34 505.081ZM2563.39 486.508C2556.13 491.164 2548.86 495.833 2541.69 500.382C2545.44 498.968 2549.16 497.588 2552.91 496.148C2560.16 491.654 2567.49 487.055 2574.83 482.438C2571.02 483.786 2567.19 485.184 2563.39 486.508ZM2593.92 466.989C2585.96 472.116 2578.14 477.066 2570.21 482.152C2574.09 480.783 2577.99 479.388 2581.89 477.995C2589.61 473.147 2597.34 468.287 2605.1 463.386C2601.36 464.61 2597.65 465.787 2593.92 466.989ZM2623.98 447.365C2615.86 452.69 2607.71 458.042 2599.71 463.223C2603.61 461.955 2607.51 460.702 2611.42 459.408C2619.46 454.302 2627.59 449.096 2635.74 443.861C2631.82 445.036 2627.89 446.213 2623.98 447.365ZM2655.02 427.077C2646.36 432.755 2637.82 438.307 2629.18 443.97C2633.18 442.78 2637.21 441.541 2641.23 440.332C2649.68 434.898 2658.15 429.451 2666.67 423.949C2662.78 424.993 2658.9 426.054 2655.02 427.077ZM584.631 578.207C586.289 579.139 587.941 580.078 589.59 581.022C593.367 580.428 597.142 579.844 600.916 579.268C599.17 578.422 597.413 577.59 595.659 576.753C591.983 577.232 588.309 577.711 584.631 578.207ZM577.178 574.1C578.813 574.99 580.451 575.87 582.077 576.773C585.622 576.288 589.165 575.818 592.706 575.352C591.003 574.55 589.299 573.746 587.588 572.958C584.123 573.331 580.651 573.709 577.178 574.1ZM569.712 570.096C571.302 570.935 572.889 571.774 574.472 572.625C577.785 572.247 581.098 571.872 584.408 571.51C582.751 570.755 581.103 569.989 579.438 569.248C576.202 569.52 572.959 569.809 569.712 570.096ZM562.236 566.192C563.762 566.973 565.273 567.776 566.793 568.566C569.861 568.29 572.935 568.004 575.999 567.74C574.399 567.034 572.793 566.335 571.185 565.641C568.204 565.819 565.22 566.005 562.236 566.192ZM554.638 562.39C556.11 563.118 557.577 563.857 559.043 564.594C561.881 564.411 564.714 564.244 567.548 564.071C566.002 563.416 564.444 562.784 562.891 562.141C560.141 562.219 557.397 562.292 554.638 562.39ZM547.126 558.755C548.503 559.411 549.886 560.058 551.256 560.725C553.791 560.629 556.323 560.543 558.848 560.464C557.402 559.875 555.951 559.295 554.499 558.716C552.047 558.718 549.583 558.74 547.126 558.755ZM539.64 555.242C540.891 555.818 542.146 556.389 543.392 556.972C545.577 556.953 547.763 556.934 549.944 556.922C548.676 556.426 547.418 555.917 546.145 555.43C543.977 555.366 541.812 555.296 539.64 555.242ZM532.25 551.888C533.289 552.35 534.313 552.829 535.348 553.293C537.175 553.333 538.994 553.39 540.816 553.443C539.721 553.035 538.628 552.621 537.529 552.217C535.773 552.103 534.011 551.995 532.25 551.888ZM524.973 548.748L527.334 549.764C528.658 549.835 529.985 549.908 531.308 549.984L528.905 549.139L524.973 548.748ZM518.041 545.844L519.177 546.305L521.181 546.489L520.112 546.138L518.041 545.844ZM2369.7 603.145C2366.71 604.973 2363.74 606.787 2360.79 608.577L2363.9 607.029C2366.97 605.219 2370.09 603.347 2373.18 601.512C2372.01 602.065 2370.86 602.594 2369.7 603.145ZM2397.66 585.985C2393.06 588.804 2388.43 591.651 2383.83 594.47C2386.01 593.432 2388.24 592.318 2390.43 591.272C2395.21 588.413 2399.93 585.645 2404.73 582.776C2402.37 583.849 2400.01 584.922 2397.66 585.985ZM2425.9 568.494C2420.72 571.738 2415.54 574.986 2410.43 578.15C2413.08 576.935 2415.7 575.773 2418.37 574.545C2423.68 571.332 2429.09 568.014 2434.47 564.725C2431.62 565.967 2428.73 567.269 2425.9 568.494ZM2455.19 550.158C2449.03 554.021 2442.88 557.863 2436.74 561.71C2439.93 560.313 2443.14 558.901 2446.35 557.485C2452.51 553.719 2458.6 550.034 2464.77 546.258C2461.55 547.595 2458.39 548.84 2455.19 550.158ZM2484.44 531.595C2477.68 535.923 2470.89 540.279 2464.22 544.493C2467.8 543.005 2471.45 541.424 2475.05 539.911C2481.6 535.856 2488.27 531.661 2494.92 527.493C2491.42 528.871 2487.93 530.237 2484.44 531.595ZM2514.29 512.555C2506.95 517.27 2499.73 521.836 2492.44 526.495C2496.09 525.061 2499.7 523.675 2503.36 522.219C2510.75 517.596 2518.08 513.038 2525.48 508.397C2521.76 509.779 2518.01 511.195 2514.29 512.555ZM2544.39 493.014C2536.66 498.05 2528.91 503.097 2521.28 508.024C2525.22 506.57 2529.19 505.061 2533.15 503.582C2540.58 498.879 2548.17 493.994 2555.72 489.146C2551.93 490.454 2548.16 491.725 2544.39 493.014ZM2574.98 473.059C2566.81 478.425 2558.72 483.69 2550.62 488.965C2554.48 487.637 2558.32 486.353 2562.2 485C2570.39 479.758 2578.54 474.572 2586.75 469.301C2582.83 470.553 2578.89 471.831 2574.98 473.059ZM2605.97 452.576C2597.44 458.232 2588.93 463.868 2580.48 469.424C2584.56 468.131 2588.65 466.789 2592.74 465.471C2600.96 460.162 2609.34 454.658 2617.69 449.186C2613.78 450.324 2609.87 451.46 2605.97 452.576ZM2637.39 431.643C2628.55 437.565 2619.74 443.456 2611 449.254C2614.94 448.116 2618.87 446.992 2622.81 445.834C2631.61 440.081 2640.34 434.396 2649.17 428.608C2645.24 429.638 2641.31 430.635 2637.39 431.643ZM569.792 580.269C571.403 581.316 573.017 582.359 574.62 583.42C578.479 582.791 582.336 582.179 586.192 581.566C584.505 580.605 582.822 579.64 581.125 578.696C577.349 579.215 573.574 579.737 569.792 580.269ZM562.778 575.765C564.365 576.767 565.943 577.782 567.519 578.796C571.186 578.275 574.849 577.772 578.511 577.268C576.841 576.35 575.167 575.435 573.488 574.528C569.92 574.934 566.352 575.341 562.778 575.765ZM555.732 571.37C557.283 572.32 558.816 573.293 560.359 574.258C563.83 573.84 567.295 573.448 570.761 573.054C569.111 572.174 567.446 571.315 565.787 570.447C562.439 570.749 559.088 571.05 555.732 571.37ZM548.615 567.101C550.14 568.005 551.664 568.913 553.179 569.832C556.41 569.519 559.641 569.215 562.866 568.92C561.252 568.087 559.628 567.27 558.007 566.452C554.881 566.656 551.748 566.881 548.615 567.101ZM541.454 562.928C542.948 563.784 544.45 564.628 545.938 565.498C548.903 565.288 551.87 565.065 554.829 564.863C553.287 564.097 551.75 563.323 550.203 562.569C547.287 562.683 544.374 562.801 541.454 562.928ZM534.294 558.88C535.71 559.663 537.116 560.456 538.522 561.249C541.265 561.126 543.997 561.021 546.732 560.913C545.252 560.204 543.78 559.487 542.292 558.791C539.63 558.813 536.966 558.838 534.294 558.88ZM527.171 554.988C528.487 555.692 529.786 556.419 531.096 557.133C533.544 557.089 535.996 557.041 538.44 557.012C537.043 556.368 535.644 555.735 534.239 555.104C531.888 555.056 529.527 555.026 527.171 554.988ZM519.921 551.203C521.144 551.832 522.364 552.463 523.578 553.102C525.735 553.13 527.885 553.172 530.033 553.207C528.756 552.644 527.461 552.104 526.178 551.55C524.095 551.431 522.014 551.306 519.921 551.203ZM512.887 547.648C513.933 548.167 514.986 548.668 516.028 549.193C517.762 549.271 519.503 549.336 521.231 549.422C520.156 548.969 519.075 548.527 517.995 548.079C516.297 547.926 514.588 547.793 512.887 547.648ZM505.968 544.258C506.747 544.628 507.517 545.013 508.296 545.388C509.589 545.491 510.876 545.609 512.17 545.715C511.387 545.402 510.616 545.075 509.83 544.766C508.54 544.6 507.261 544.417 505.968 544.258ZM499.405 541.205L500.512 541.721L502.463 541.943L501.391 541.533C500.732 541.422 500.066 541.316 499.405 541.205ZM2319.06 631.005C2316.16 632.798 2313.22 634.625 2310.35 636.379C2311.57 635.762 2312.82 635.111 2314.05 634.493C2317.01 632.733 2320.03 630.901 2323.02 629.103L2319.06 631.005ZM2347.03 613.742L2334.21 621.659C2336.21 620.687 2338.17 619.768 2340.18 618.788C2344.77 616.022 2349.35 613.283 2353.95 610.504C2351.66 611.572 2349.32 612.685 2347.03 613.742ZM2375.6 595.901C2370.57 599.074 2365.51 602.276 2360.54 605.375C2363.26 604.103 2365.98 602.838 2368.72 601.551C2373.74 598.492 2378.83 595.346 2383.9 592.227C2381.12 593.471 2378.37 594.675 2375.6 595.901ZM2405.19 577.292C2398.98 581.217 2392.86 585.038 2386.68 588.933C2389.98 587.453 2393.33 585.906 2396.65 584.408C2402.7 580.679 2408.69 577.021 2414.78 573.236C2411.57 574.61 2408.39 575.935 2405.19 577.292ZM2434.3 558.672C2427.69 562.917 2421.06 567.177 2414.52 571.341C2417.97 569.865 2421.39 568.432 2424.85 566.935C2431.54 562.765 2438.29 558.531 2445.03 554.3C2441.45 555.755 2437.86 557.24 2434.3 558.672ZM2464.37 539.343C2457.13 544.026 2449.99 548.604 2442.81 553.218C2446.57 551.689 2450.33 550.17 2454.11 548.614C2461.15 544.176 2468.24 539.683 2475.36 535.148C2471.68 536.566 2468.03 537.95 2464.37 539.343ZM2494.65 519.605C2486.91 524.663 2479.18 529.705 2471.51 534.686C2475.43 533.182 2479.41 531.585 2483.35 530.052C2490.97 525.201 2498.59 520.338 2506.25 515.442C2502.37 516.846 2498.51 518.227 2494.65 519.605ZM2525.26 499.488C2517.22 504.806 2509.21 510.085 2501.25 515.297C2505.23 513.862 2509.19 512.478 2513.18 511.017C2521.05 505.952 2529.06 500.719 2537.05 495.517C2533.12 496.846 2529.18 498.183 2525.26 499.488ZM2556.54 478.752C2548.01 484.426 2539.54 490.028 2531.06 495.639C2535.12 494.28 2539.21 492.858 2543.28 491.47C2551.69 486.001 2560.03 480.608 2568.5 475.059C2564.51 476.304 2560.53 477.532 2556.54 478.752ZM2587.98 457.657C2579.24 463.552 2570.49 469.463 2561.88 475.215C2565.88 473.977 2569.86 472.772 2573.87 471.513C2582.45 465.877 2591.13 460.117 2599.82 454.355C2595.87 455.48 2591.93 456.555 2587.98 457.657ZM2620.02 436.054C2610.83 442.278 2601.79 448.341 2592.67 454.496C2596.72 453.358 2600.79 452.197 2604.85 451.035C2613.81 445.092 2622.78 439.119 2631.83 433.071C2627.89 434.076 2623.95 435.071 2620.02 436.054ZM554.935 582.416C556.477 583.572 558.004 584.745 559.534 585.919C563.488 585.258 567.444 584.585 571.394 583.935C569.755 582.858 568.108 581.796 566.46 580.733C562.623 581.281 558.779 581.85 554.935 582.416ZM548.348 577.54C549.878 578.657 551.396 579.786 552.914 580.919C556.675 580.365 560.437 579.8 564.192 579.261C562.566 578.221 560.928 577.203 559.294 576.178C555.65 576.621 552 577.083 548.348 577.54ZM541.681 572.764C543.206 573.842 544.733 574.917 546.247 576.009C549.8 575.561 553.351 575.123 556.903 574.685C555.304 573.695 553.703 572.707 552.096 571.73C548.628 572.069 545.157 572.408 541.681 572.764ZM534.989 568.104C536.485 569.127 537.985 570.151 539.468 571.192C542.827 570.843 546.178 570.519 549.527 570.194C547.957 569.251 546.396 568.301 544.816 567.373C541.546 567.609 538.272 567.847 534.989 568.104ZM528.285 563.565C529.745 564.531 531.189 565.519 532.638 566.5C535.778 566.252 538.915 566.007 542.048 565.778C540.495 564.877 538.934 563.982 537.369 563.097C534.348 563.237 531.313 563.407 528.285 563.565ZM521.481 559.131C522.906 560.041 524.317 560.974 525.731 561.9C528.645 561.743 531.559 561.588 534.469 561.445C532.965 560.604 531.442 559.792 529.93 558.965C527.115 559.016 524.305 559.059 521.481 559.131ZM514.668 554.857C516.03 555.7 517.392 556.538 518.744 557.391C521.415 557.32 524.074 557.27 526.733 557.218C525.287 556.44 523.831 555.677 522.378 554.912C519.814 554.88 517.24 554.871 514.668 554.857ZM507.817 550.696C509.119 551.47 510.425 552.235 511.718 553.023C514.075 553.028 516.435 553.028 518.787 553.047C517.46 552.361 516.141 551.665 514.806 550.99C512.477 550.892 510.154 550.782 507.817 550.696ZM501.061 546.719C502.21 547.378 503.346 548.058 504.487 548.727C506.57 548.796 508.641 548.885 510.714 548.972C509.484 548.365 508.26 547.754 507.024 547.156C505.042 546.999 503.049 546.862 501.061 546.719ZM494.26 542.904C495.269 543.46 496.267 544.03 497.271 544.592C498.972 544.708 500.678 544.822 502.377 544.943C501.326 544.449 500.27 543.96 499.216 543.47C497.563 543.283 495.917 543.086 494.26 542.904ZM487.638 539.332C488.4 539.736 489.166 540.137 489.924 540.545C491.179 540.676 492.434 540.803 493.684 540.938C492.868 540.574 492.041 540.221 491.222 539.859C490.034 539.673 488.83 539.511 487.638 539.332ZM481.393 536.059C481.787 536.26 482.187 536.449 482.58 536.653C483.232 536.745 483.879 536.846 484.531 536.938C484.141 536.775 483.747 536.621 483.357 536.457C482.702 536.325 482.049 536.188 481.393 536.059ZM2267.72 659.588C2264.99 661.278 2262.22 663.002 2259.51 664.673C2260.55 664.142 2261.56 663.648 2262.6 663.116C2265.55 661.349 2268.56 659.507 2271.53 657.706C2270.27 658.328 2268.98 658.971 2267.72 659.588ZM2296.1 642C2292.09 644.504 2288.15 646.921 2284.14 649.41C2286.13 648.429 2288.09 647.473 2290.08 646.486C2294.24 643.958 2298.36 641.487 2302.54 638.946C2300.4 639.957 2298.24 640.995 2296.1 642ZM2325.09 623.75C2320.01 626.959 2314.91 630.192 2309.87 633.356C2312.63 632.042 2315.42 630.687 2318.19 629.357C2323.14 626.319 2328.15 623.207 2333.14 620.127C2330.44 621.359 2327.78 622.532 2325.09 623.75ZM2354.53 605.099C2348.42 609.006 2342.38 612.816 2336.31 616.665C2339.54 615.188 2342.81 613.65 2346.06 612.153C2352.07 608.421 2358.06 604.707 2364.13 600.91C2360.93 602.315 2357.72 603.716 2354.53 605.099ZM2383.66 586.386C2377.22 590.532 2370.76 594.685 2364.36 598.79C2367.79 597.284 2371.18 595.832 2374.63 594.303C2381.22 590.167 2387.85 585.992 2394.47 581.82C2390.88 583.325 2387.24 584.906 2383.66 586.386ZM2414.01 566.726C2406.89 571.369 2399.81 575.983 2392.78 580.529C2396.56 578.946 2400.37 577.326 2404.17 575.716C2411 571.378 2417.93 566.931 2424.86 562.486C2421.22 563.937 2417.63 565.3 2414.01 566.726ZM2444.5 546.799C2436.81 551.84 2429.17 556.825 2421.51 561.822C2425.4 560.277 2429.32 558.697 2433.23 557.121C2440.89 552.211 2448.48 547.384 2456.18 542.415C2452.28 543.886 2448.38 545.355 2444.5 546.799ZM2475.16 526.504C2467.24 531.774 2459.3 537.069 2451.5 542.215C2455.43 540.739 2459.35 539.285 2463.31 537.783C2471.12 532.72 2479.03 527.54 2486.95 522.37C2483.01 523.761 2479.08 525.137 2475.16 526.504ZM2506.6 505.583C2498.06 511.297 2489.65 516.866 2481.19 522.499C2485.28 521.062 2489.43 519.532 2493.55 518.064C2501.84 512.639 2510.12 507.217 2518.49 501.698C2514.52 503.006 2510.56 504.301 2506.6 505.583ZM2538.11 484.333C2529.4 490.224 2520.7 496.098 2512.09 501.879C2516.12 500.564 2520.13 499.276 2524.17 497.933C2532.78 492.246 2541.42 486.516 2550.1 480.741C2546.1 481.959 2542.11 483.14 2538.11 484.333ZM2570.11 462.609C2561.04 468.797 2552.04 474.913 2543.07 480.989C2547.18 479.751 2551.31 478.468 2555.44 477.203C2564.28 471.303 2573.22 465.296 2582.18 459.262C2578.16 460.374 2574.12 461.521 2570.11 462.609ZM2602.64 440.341C2593.27 446.783 2583.97 453.135 2574.68 459.483C2578.74 458.373 2582.81 457.236 2586.87 456.101C2596.15 449.857 2605.35 443.692 2614.68 437.37C2610.67 438.367 2606.65 439.366 2602.64 440.341ZM539.997 584.642C541.468 585.917 542.934 587.197 544.392 588.487C548.43 587.79 552.463 587.108 556.494 586.429C554.926 585.24 553.357 584.053 551.779 582.879C547.855 583.456 543.929 584.041 539.997 584.642ZM533.842 579.402C535.312 580.64 536.795 581.865 538.255 583.118C542.093 582.53 545.928 581.952 549.759 581.385C548.207 580.235 546.659 579.077 545.092 577.946C541.347 578.422 537.595 578.907 533.842 579.402ZM527.64 574.263C529.1 575.452 530.557 576.646 532.004 577.854C535.655 577.371 539.305 576.888 542.949 576.421C541.398 575.31 539.85 574.199 538.29 573.106C534.747 573.477 531.19 573.876 527.64 574.263ZM521.382 569.216C522.827 570.356 524.255 571.524 525.687 572.683C529.152 572.299 532.617 571.921 536.075 571.551C534.54 570.486 532.992 569.441 531.447 568.393C528.096 568.659 524.744 568.928 521.382 569.216ZM515.048 564.307C516.466 565.394 517.88 566.492 519.29 567.594C522.568 567.308 525.833 567.052 529.097 566.79C527.577 565.77 526.042 564.767 524.51 563.763C521.36 563.933 518.206 564.118 515.048 564.307ZM508.657 559.516C510.066 560.558 511.479 561.589 512.879 562.647C515.908 562.457 518.938 562.266 521.957 562.097C520.478 561.138 519.001 560.18 517.511 559.238C514.565 559.322 511.612 559.416 508.657 559.516ZM502.224 554.845C503.589 555.821 504.959 556.795 506.315 557.785C509.132 557.685 511.94 557.601 514.749 557.519C513.318 556.624 511.893 555.722 510.451 554.842C507.713 554.835 504.972 554.831 502.224 554.845ZM495.808 550.326C497.108 551.22 498.39 552.14 499.681 553.048C502.254 553.029 504.826 553.01 507.392 553.007C506.002 552.174 504.608 551.351 503.207 550.53C500.747 550.453 498.278 550.391 495.808 550.326ZM489.269 545.935C490.503 546.751 491.726 547.581 492.95 548.409C495.28 548.461 497.598 548.536 499.921 548.601C498.604 547.844 497.267 547.112 495.942 546.368C493.721 546.216 491.5 546.069 489.269 545.935ZM482.776 541.736C483.915 542.462 485.06 543.176 486.192 543.911C488.178 544.021 490.176 544.117 492.155 544.239C490.966 543.587 489.77 542.947 488.575 542.303C486.646 542.108 484.714 541.921 482.776 541.736ZM476.339 537.711C477.315 538.309 478.297 538.9 479.268 539.503C480.922 539.652 482.562 539.826 484.208 539.987C483.194 539.454 482.193 538.906 481.175 538.382C479.566 538.153 477.955 537.928 476.339 537.711ZM470.086 533.949C470.821 534.379 471.543 534.829 472.274 535.263C473.467 535.418 474.664 535.566 475.855 535.725C475.092 535.345 474.336 534.957 473.572 534.582C472.409 534.369 471.251 534.156 470.086 533.949ZM463.982 530.459L465.111 531.101C465.708 531.201 466.311 531.292 466.906 531.395L465.728 530.843C465.151 530.708 464.563 530.592 463.982 530.459ZM2215.83 688.793C2213.58 690.184 2211.32 691.602 2209.07 692.994C2210.03 692.495 2210.98 692.012 2211.95 691.508C2214.36 690.054 2216.81 688.551 2219.23 687.081C2218.11 687.64 2216.95 688.237 2215.83 688.793ZM2245.28 670.428C2241.39 672.883 2237.54 675.288 2233.68 677.701C2235.59 676.742 2237.51 675.77 2239.43 674.803C2243.44 672.356 2247.35 670.011 2251.39 667.533C2249.33 668.521 2247.33 669.449 2245.28 670.428ZM2274.2 652.134C2269.01 655.411 2263.8 658.715 2258.62 661.987C2261.37 660.657 2264.2 659.229 2266.95 657.884C2272.01 654.756 2277.12 651.578 2282.19 648.435C2279.52 649.679 2276.86 650.903 2274.2 652.134ZM2303.29 633.559C2297.59 637.232 2291.88 640.915 2286.26 644.504C2289.27 643.096 2292.22 641.77 2295.24 640.345C2301.1 636.688 2307.01 632.958 2312.94 629.216C2309.73 630.652 2306.49 632.139 2303.29 633.559ZM2333.18 614.319C2326.68 618.516 2320.25 622.642 2313.78 626.808C2317.23 625.261 2320.67 623.714 2324.14 622.143C2330.59 618.067 2337.01 614.032 2343.49 609.92C2340.04 611.405 2336.61 612.858 2333.18 614.319ZM2363.3 594.655C2356.23 599.288 2349.16 603.939 2342.18 608.475C2345.94 606.858 2349.78 605.148 2353.56 603.506C2360.39 599.147 2367.31 594.68 2374.21 590.229C2370.56 591.731 2366.94 593.181 2363.3 594.655ZM2393.84 574.607C2386.27 579.607 2378.8 584.496 2371.29 589.423C2375.09 587.867 2378.83 586.391 2382.65 584.81C2390.23 579.915 2397.81 575.04 2405.47 570.064C2401.59 571.573 2397.69 573.124 2393.84 574.607ZM2424.75 554.049C2416.82 559.34 2408.89 564.619 2401.03 569.828C2404.99 568.289 2408.97 566.733 2412.96 565.163C2420.74 560.095 2428.57 554.976 2436.41 549.835C2432.5 551.273 2428.64 552.638 2424.75 554.049ZM2456.09 533.051C2447.72 538.692 2439.38 544.294 2431.11 549.821C2435.2 548.325 2439.33 546.768 2443.44 545.24C2451.59 539.878 2459.83 534.416 2468.08 528.932C2464.08 530.316 2460.08 531.696 2456.09 533.051ZM2487.91 511.572C2479.2 517.474 2470.55 523.299 2461.89 529.135C2465.95 527.742 2470 526.37 2474.08 524.948C2482.71 519.217 2491.28 513.554 2499.97 507.75C2495.94 509.046 2491.93 510.303 2487.91 511.572ZM2519.91 489.708C2510.95 495.858 2501.97 502.037 2493.14 508.038C2497.25 506.731 2501.39 505.365 2505.51 504.029C2514.28 498.151 2523.18 492.131 2532.06 486.118C2528.01 487.317 2523.95 488.535 2519.91 489.708ZM2552.62 467.256C2543.26 473.712 2534.02 480.03 2524.73 486.402C2528.82 485.203 2532.92 483.997 2537.02 482.773C2546.18 476.572 2555.33 470.384 2564.58 464.083C2560.59 465.157 2556.6 466.203 2552.62 467.256ZM2585.46 444.445C2575.9 451.105 2566.37 457.735 2556.93 464.261C2560.95 463.188 2564.97 462.148 2569.01 461.056C2578.41 454.638 2587.87 448.164 2597.37 441.631C2593.4 442.591 2589.43 443.505 2585.46 444.445ZM525.01 586.97C526.407 588.363 527.801 589.75 529.188 591.157C533.284 590.427 537.375 589.711 541.468 589.001C539.986 587.694 538.508 586.388 537.014 585.104C533.015 585.718 529.015 586.335 525.01 586.97ZM519.298 581.348C520.689 582.696 522.074 584.056 523.452 585.419C527.383 584.795 531.307 584.19 535.23 583.589C533.743 582.321 532.249 581.067 530.751 579.814C526.937 580.317 523.121 580.82 519.298 581.348ZM513.556 575.85C514.937 577.146 516.297 578.473 517.666 579.786C521.421 579.264 525.166 578.764 528.914 578.265C527.425 577.032 525.918 575.827 524.416 574.613C520.801 575.013 517.179 575.428 513.556 575.85ZM507.691 570.457C509.076 571.718 510.458 572.985 511.832 574.262C515.378 573.843 518.926 573.427 522.463 573.032C520.988 571.848 519.504 570.674 518.014 569.505C514.578 569.812 511.135 570.134 507.691 570.457ZM501.75 565.156C503.14 566.378 504.538 567.588 505.915 568.827C509.263 568.511 512.604 568.206 515.945 567.901C514.491 566.775 513.046 565.637 511.579 564.527C508.305 564.728 505.035 564.927 501.75 565.156ZM495.815 560.012C497.171 561.165 498.521 562.328 499.865 563.498C503.032 563.274 506.191 563.069 509.345 562.869C507.894 561.781 506.438 560.703 504.976 559.633C501.931 559.745 498.872 559.882 495.815 560.012ZM489.802 554.965C491.138 556.059 492.449 557.187 493.773 558.297C496.722 558.168 499.677 558.029 502.62 557.913C501.2 556.889 499.765 555.889 498.334 554.883C495.493 554.905 492.655 554.92 489.802 554.965ZM483.702 550.083C484.998 551.107 486.288 552.14 487.575 553.182C490.322 553.134 493.058 553.112 495.793 553.086C494.394 552.118 492.979 551.163 491.568 550.209C488.955 550.151 486.326 550.12 483.702 550.083ZM477.528 545.307C478.803 546.276 480.09 547.231 481.354 548.217C483.821 548.246 486.292 548.271 488.749 548.315C487.434 547.439 486.12 546.558 484.793 545.695C482.374 545.562 479.959 545.42 477.528 545.307ZM471.411 540.733C472.594 541.598 473.77 542.465 474.942 543.342C477.172 543.438 479.392 543.549 481.61 543.667C480.348 542.861 479.093 542.044 477.822 541.252C475.696 541.064 473.549 540.909 471.411 540.733ZM465.238 536.285C466.324 537.05 467.393 537.842 468.474 538.617C470.408 538.765 472.337 538.926 474.268 539.084C473.12 538.386 471.967 537.69 470.811 537.003C468.953 536.762 467.106 536.508 465.238 536.285ZM459.1 532.095C460.04 532.728 460.976 533.366 461.909 534.008C463.493 534.189 465.082 534.354 466.658 534.545C465.655 533.962 464.638 533.398 463.628 532.824C462.123 532.573 460.61 532.336 459.1 532.095ZM453.026 528.087C453.766 528.565 454.512 529.03 455.25 529.512C456.441 529.695 457.617 529.896 458.803 530.086C458.01 529.65 457.202 529.235 456.407 528.807C455.28 528.567 454.158 528.32 453.026 528.087ZM447.47 524.528C447.827 524.748 448.171 524.981 448.527 525.204L450.296 525.549C449.936 525.363 449.582 525.165 449.224 524.98L447.47 524.528ZM2164.92 717.659L2158.11 721.898L2160.58 720.595C2162.88 719.198 2165.21 717.771 2167.51 716.373C2166.64 716.812 2165.79 717.222 2164.92 717.659ZM2193.79 699.503C2189.94 701.946 2186.06 704.419 2182.24 706.818C2184.22 705.81 2186.25 704.744 2188.24 703.728C2192.06 701.378 2195.92 698.99 2199.78 696.591C2197.78 697.574 2195.79 698.53 2193.79 699.503ZM2222.95 681.03C2217.88 684.26 2212.91 687.379 2207.87 690.58C2210.31 689.381 2212.67 688.267 2215.12 687.056C2220.36 683.796 2225.59 680.561 2230.85 677.282C2228.22 678.527 2225.57 679.798 2222.95 681.03ZM2251.74 662.497C2246.23 666.048 2240.71 669.624 2235.25 673.128C2238.32 671.664 2241.38 670.229 2244.47 668.747C2250.02 665.258 2255.65 661.674 2261.26 658.12C2258.1 659.565 2254.88 661.071 2251.74 662.497ZM2282.12 642.832C2275.65 647.05 2269.25 651.191 2262.85 655.338C2266.3 653.756 2269.81 652.113 2273.29 650.505C2279.59 646.502 2285.86 642.541 2292.21 638.476C2288.82 639.962 2285.5 641.363 2282.12 642.832ZM2312.29 623.071C2305.23 627.701 2298.18 632.326 2291.17 636.907C2294.86 635.282 2298.59 633.62 2302.31 631.968C2309.27 627.504 2316.27 622.984 2323.27 618.467C2319.6 620.013 2315.94 621.55 2312.29 623.071ZM2342.59 603.035C2335.29 607.896 2327.99 612.754 2320.78 617.505C2324.59 615.904 2328.36 614.351 2332.19 612.723C2339.5 607.987 2346.89 603.152 2354.29 598.305C2350.4 599.864 2346.46 601.502 2342.59 603.035ZM2374.08 582.083C2366.07 587.441 2358.16 592.677 2350.2 597.971C2354.2 596.371 2358.25 594.709 2362.27 593.078C2370.08 587.962 2377.84 582.914 2385.7 577.737C2381.8 579.223 2377.96 580.625 2374.08 582.083ZM2405.24 561.057C2397.01 566.63 2388.77 572.217 2380.65 577.669C2384.68 576.14 2388.71 574.615 2392.77 573.056C2400.89 567.691 2409.12 562.197 2417.33 556.713C2413.3 558.163 2409.26 559.638 2405.24 561.057ZM2437.2 539.391C2428.54 545.294 2419.97 551.1 2411.39 556.906C2415.48 555.443 2419.58 553.98 2423.69 552.488C2432.16 546.838 2440.64 541.174 2449.2 535.421C2445.18 536.774 2441.2 538.065 2437.2 539.391ZM2469.35 517.369C2460.38 523.532 2451.44 529.657 2442.56 535.721C2446.69 534.341 2450.85 532.915 2454.99 531.506C2463.82 525.564 2472.68 519.58 2481.59 513.547C2477.51 514.825 2473.42 516.118 2469.35 517.369ZM2502 494.818C2492.77 501.221 2483.55 507.606 2474.44 513.878C2478.56 512.602 2482.68 511.32 2486.82 510.014C2495.81 503.907 2504.91 497.669 2514.03 491.425C2510 492.584 2506.01 493.682 2502 494.818ZM2535.08 471.841C2525.5 478.522 2516.04 485.072 2506.54 491.667C2510.62 490.502 2514.7 489.345 2518.8 488.152C2528.26 481.672 2537.66 475.267 2547.2 468.691C2543.16 469.751 2539.11 470.804 2535.08 471.841ZM2568.34 448.456C2558.59 455.336 2548.82 462.235 2539.22 468.948C2543.31 467.89 2547.41 466.776 2551.51 465.696C2561.04 459.114 2570.7 452.383 2580.37 445.647C2576.36 446.588 2572.35 447.533 2568.34 448.456ZM509.994 589.409C511.297 590.906 512.588 592.42 513.879 593.935C518.038 593.173 522.201 592.402 526.356 591.653C524.951 590.229 523.529 588.828 522.111 587.421C518.077 588.069 514.034 588.745 509.994 589.409ZM504.72 583.423C506.025 584.881 507.316 586.362 508.61 587.839C512.595 587.184 516.581 586.521 520.563 585.879C519.159 584.498 517.741 583.134 516.325 581.772C512.459 582.315 508.592 582.862 504.72 583.423ZM499.342 577.544C500.662 578.965 501.977 580.393 503.28 581.835C507.09 581.28 510.893 580.744 514.695 580.211C513.294 578.872 511.89 577.536 510.476 576.216C506.768 576.649 503.061 577.085 499.342 577.544ZM493.938 571.8C495.252 573.175 496.569 574.544 497.871 575.937C501.504 575.486 505.128 575.054 508.75 574.626C507.345 573.329 505.947 572.025 504.531 570.748C501.006 571.084 497.472 571.442 493.938 571.8ZM488.456 566.145C489.769 567.475 491.072 568.817 492.372 570.167C495.818 569.815 499.268 569.455 502.705 569.123C501.303 567.872 499.891 566.632 498.476 565.398C495.14 565.64 491.801 565.885 488.456 566.145ZM482.925 560.625C484.222 561.893 485.497 563.187 486.782 564.475C490.06 564.216 493.326 563.978 496.594 563.743C495.194 562.533 493.771 561.354 492.358 560.165C489.221 560.307 486.076 560.458 482.925 560.625ZM477.279 555.236C478.574 556.456 479.869 557.682 481.151 558.921C484.211 558.756 487.269 558.591 490.318 558.448C488.937 557.302 487.55 556.162 486.156 555.031C483.202 555.089 480.243 555.16 477.279 555.236ZM471.573 549.968C472.857 551.131 474.145 552.28 475.416 553.462C478.266 553.383 481.108 553.326 483.949 553.266C482.603 552.186 481.261 551.092 479.903 550.031C477.132 549.999 474.356 549.976 471.573 549.968ZM465.843 544.849C467.088 545.937 468.324 547.036 469.556 548.138C472.19 548.14 474.826 548.141 477.449 548.165C476.127 547.149 474.809 546.138 473.477 545.14C470.934 545.038 468.394 544.937 465.843 544.849ZM460.067 539.884C461.251 540.878 462.415 541.902 463.592 542.912C466.023 542.989 468.44 543.09 470.859 543.188C469.571 542.238 468.263 541.311 466.962 540.375C464.671 540.2 462.37 540.04 460.067 539.884ZM454.178 535.071C455.321 535.992 456.461 536.917 457.594 537.853C459.74 537.99 461.896 538.11 464.032 538.264C462.827 537.411 461.599 536.588 460.384 535.752C458.315 535.523 456.254 535.287 454.178 535.071ZM448.323 530.459C449.37 531.267 450.432 532.058 451.472 532.88C453.337 533.063 455.189 533.27 457.043 533.474C455.92 532.719 454.797 531.963 453.665 531.218C451.893 530.949 450.101 530.713 448.323 530.459ZM442.489 526.023C443.405 526.701 444.315 527.39 445.226 528.079C446.743 528.287 448.254 528.501 449.767 528.715C448.819 528.109 447.884 527.49 446.931 526.893C445.447 526.606 443.977 526.3 442.489 526.023ZM436.81 521.916C437.494 522.401 438.168 522.899 438.848 523.389C439.932 523.582 441.029 523.755 442.108 523.956C441.383 523.517 440.66 523.077 439.934 522.645C438.898 522.394 437.85 522.16 436.81 521.916ZM431.21 518.045L432.343 518.815C432.907 518.939 433.461 519.079 434.026 519.208L432.829 518.532C432.287 518.375 431.753 518.203 431.21 518.045ZM2113.76 746.935C2111.25 748.518 2108.81 750.019 2106.32 751.584L2107.94 750.721L2115.93 745.838L2113.76 746.935ZM2141.94 729.069C2138.09 731.509 2134.21 733.982 2130.36 736.419C2132.16 735.489 2133.93 734.593 2135.74 733.656C2139.69 731.212 2143.71 728.691 2147.7 726.212C2145.78 727.163 2143.85 728.129 2141.94 729.069ZM2170.75 710.7C2166.21 713.628 2161.68 716.54 2157.19 719.406C2159.58 718.215 2161.92 717.066 2164.32 715.863C2169.23 712.795 2174.07 709.796 2179.02 706.683C2176.28 707.998 2173.47 709.399 2170.75 710.7ZM2200.62 691.441C2195.01 695.062 2189.41 698.67 2183.81 702.276C2186.88 700.795 2189.97 699.287 2193.05 697.785C2198.45 694.37 2203.9 690.906 2209.31 687.476C2206.38 688.838 2203.54 690.093 2200.62 691.441ZM2230.59 671.895C2224.21 676.085 2217.8 680.304 2211.51 684.397C2215 682.767 2218.6 681.016 2222.11 679.363C2228.25 675.441 2234.48 671.419 2240.7 667.401C2237.31 668.919 2233.96 670.398 2230.59 671.895ZM2260.97 651.969C2254 656.569 2247.15 661.036 2240.23 665.579C2243.78 663.982 2247.27 662.478 2250.85 660.857C2257.93 656.29 2264.94 651.798 2272.07 647.177C2268.37 648.767 2264.64 650.404 2260.97 651.969ZM2291.47 631.673C2284.16 636.551 2276.84 641.432 2269.6 646.226C2273.45 644.571 2277.3 642.911 2281.17 641.229C2288.33 636.562 2295.58 631.794 2302.82 627.038C2299.02 628.604 2295.25 630.135 2291.47 631.673ZM2322.77 610.724C2314.84 616.066 2306.96 621.348 2299.11 626.589C2303.14 624.934 2307.25 623.164 2311.3 621.479C2318.99 616.421 2326.7 611.337 2334.47 606.184C2330.55 607.725 2326.67 609.213 2322.77 610.724ZM2354.14 589.541C2345.94 595.088 2337.78 600.596 2329.65 606.079C2333.64 604.518 2337.58 603.034 2341.59 601.444C2349.81 595.99 2358.05 590.506 2366.32 584.985C2362.27 586.495 2358.17 588.061 2354.14 589.541ZM2386.11 567.728C2377.58 573.574 2369.03 579.444 2360.63 585.157C2364.75 583.632 2368.89 582.073 2373.03 580.519C2381.29 574.983 2389.69 569.294 2398.07 563.625C2394.05 565.032 2390.1 566.348 2386.11 567.728ZM2418.48 545.534C2409.5 551.72 2400.65 557.76 2391.76 563.856C2395.89 562.417 2400.03 560.965 2404.18 559.495C2413.03 553.511 2421.84 547.578 2430.77 541.501C2426.67 542.847 2422.56 544.217 2418.48 545.534ZM2451.1 522.888C2441.93 529.27 2432.76 535.654 2423.7 541.908C2427.84 540.561 2431.97 539.207 2436.13 537.831C2445.07 531.73 2454.13 525.512 2463.18 519.288C2459.14 520.523 2455.13 521.68 2451.1 522.888ZM2484.1 499.855C2474.64 506.489 2465.22 513.066 2455.87 519.579C2459.99 518.335 2464.12 517.082 2468.26 515.809C2477.57 509.406 2486.95 502.932 2496.37 496.404C2492.29 497.55 2488.18 498.734 2484.1 499.855ZM2517.67 476.248C2507.9 483.136 2498.19 489.964 2488.52 496.744C2492.64 495.603 2496.78 494.42 2500.91 493.252C2510.51 486.599 2520.12 479.926 2529.81 473.175C2525.76 474.206 2521.71 475.238 2517.67 476.248ZM2551.45 452.268C2541.52 459.348 2531.56 466.447 2521.77 473.367C2525.84 472.341 2529.91 471.321 2533.99 470.274C2543.69 463.492 2553.58 456.516 2563.44 449.564C2559.44 450.474 2555.45 451.377 2551.45 452.268ZM2516.59 474.675C2526.51 467.671 2536.57 460.511 2546.63 453.359C2176.55 535.355 1826.17 535.285 1476.21 535.218C1263.69 535.177 1051.33 535.144 834.799 553.499C1021.89 543.792 1204.88 549.18 1388.92 554.607C1747.95 565.188 2111.06 575.865 2516.59 474.675ZM2483.04 498.276C2492.79 491.443 2502.63 484.515 2512.49 477.559C2108.45 577.619 1746.48 566.94 1388.53 556.39C1194.47 550.67 1001.59 545.001 803.845 557.036C976.554 552.56 1144.58 562.928 1314.21 573.408C1676.12 595.773 2045.35 618.6 2483.04 498.276ZM2199.83 689.751C2206.55 685.394 2213.3 681.002 2220.1 676.556C1546.73 972.554 1224.72 824.045 922.343 684.465C835.158 644.219 749.598 604.74 657.684 576.92M494.892 591.936C496.102 593.542 497.301 595.165 498.497 596.792C502.715 595.995 506.931 595.215 511.146 594.437C509.833 592.905 508.518 591.38 507.192 589.868C503.097 590.546 498.995 591.235 494.892 591.936ZM490.035 585.604C491.259 587.181 492.485 588.749 493.694 590.344C497.735 589.652 501.775 588.969 505.81 588.299C504.494 586.805 503.185 585.305 501.854 583.833C497.919 584.408 493.976 585.009 490.035 585.604ZM485.113 579.368C486.343 580.906 487.575 582.441 488.794 583.999C492.664 583.41 496.536 582.814 500.398 582.245C499.079 580.795 497.761 579.346 496.43 577.918C492.662 578.393 488.89 578.873 485.113 579.368ZM480.135 573.248C481.367 574.732 482.584 576.236 483.803 577.743C487.519 577.254 491.231 576.783 494.94 576.313C493.61 574.898 492.262 573.507 490.917 572.11C487.327 572.478 483.736 572.853 480.135 573.248ZM475.087 567.254C476.32 568.689 477.534 570.15 478.754 571.609C482.294 571.218 485.826 570.842 489.356 570.477C488.014 569.1 486.662 567.739 485.308 566.38C481.909 566.656 478.495 566.959 475.087 567.254ZM469.911 561.355C471.158 562.759 472.405 564.159 473.64 565.582C476.979 565.29 480.318 564.993 483.648 564.72C482.329 563.41 481.008 562.097 479.675 560.807C476.426 560.98 473.175 561.153 469.911 561.355ZM464.719 555.629C465.953 556.968 467.19 558.298 468.411 559.654C471.575 559.455 474.73 559.279 477.885 559.104C476.562 557.836 475.246 556.561 473.909 555.313C470.855 555.402 467.785 555.518 464.719 555.629ZM459.422 549.98C460.653 551.266 461.872 552.569 463.093 553.874C466.06 553.763 469.031 553.643 471.989 553.552C470.68 552.347 469.363 551.156 468.043 549.971C465.172 549.967 462.306 549.955 459.422 549.98ZM454.105 544.531C455.303 545.731 456.481 546.963 457.665 548.18C460.461 548.151 463.246 548.144 466.027 548.143C464.712 546.98 463.372 545.851 462.043 544.707C459.41 544.63 456.753 544.588 454.105 544.531ZM448.627 539.175C449.82 540.326 451.013 541.475 452.194 542.643C454.747 542.691 457.297 542.745 459.842 542.809C458.58 541.739 457.311 540.679 456.036 539.625C453.572 539.469 451.108 539.31 448.627 539.175ZM443.154 534.023C444.307 535.086 445.469 536.136 446.609 537.216C448.928 537.333 451.241 537.458 453.546 537.596C452.331 536.61 451.129 535.607 449.901 534.636C447.66 534.42 445.407 534.221 443.154 534.023ZM437.636 529.012C438.718 529.969 439.789 530.942 440.86 531.914C442.948 532.088 445.022 532.289 447.102 532.481C445.941 531.583 444.782 530.68 443.613 529.794C441.627 529.523 439.633 529.264 437.636 529.012ZM432.085 524.202C433.081 525.045 434.063 525.915 435.05 526.771C436.838 526.987 438.637 527.185 440.42 527.415C439.359 526.63 438.286 525.864 437.216 525.092C435.505 524.794 433.801 524.488 432.085 524.202ZM426.522 519.62C427.382 520.317 428.246 521.015 429.101 521.723C430.607 521.963 432.101 522.222 433.597 522.48C432.627 521.799 431.634 521.151 430.658 520.481C429.288 520.179 427.896 519.912 426.522 519.62ZM421.036 515.267C421.736 515.808 422.453 516.331 423.147 516.878C424.214 517.095 425.273 517.323 426.334 517.542C425.616 517.066 424.891 516.595 424.167 516.121C423.12 515.842 422.087 515.541 421.036 515.267ZM415.948 511.38C416.282 511.628 416.606 511.888 416.937 512.137C417.456 512.267 417.982 512.389 418.501 512.52C418.151 512.303 417.81 512.074 417.459 511.858L415.948 511.38ZM2597.63 425.454C2593.67 426.246 2589.71 427.053 2585.75 427.829C2575.47 435.195 2565.37 442.356 2555.21 449.589C2559.23 448.688 2563.24 447.795 2567.26 446.869C2577.37 439.751 2587.42 432.694 2597.63 425.454ZM2614.05 422.135C2610.11 422.944 2606.17 423.74 2602.23 424.534C2592.15 431.69 2582.2 438.691 2572.2 445.74C2576.25 444.802 2580.31 443.825 2584.37 442.869C2594.23 435.994 2604.09 429.119 2614.05 422.135ZM2630.6 418.68C2626.66 419.514 2622.73 420.328 2618.79 421.142C2608.96 428.041 2599.19 434.88 2589.46 441.666C2593.49 440.707 2597.51 439.749 2601.55 438.769C2611.16 432.153 2620.88 425.415 2630.6 418.68ZM2647.29 415.089C2643.33 415.952 2639.36 416.829 2635.4 417.675C2625.87 424.291 2616.28 430.967 2606.84 437.466C2610.87 436.481 2614.89 435.492 2618.93 434.485C2628.29 428.128 2637.82 421.569 2647.29 415.089ZM2664.08 411.4C2660.14 412.28 2656.2 413.145 2652.26 414.008C2642.89 420.427 2633.49 426.883 2624.22 433.177C2628.24 432.168 2632.26 431.11 2636.28 430.08C2645.5 423.911 2654.76 417.697 2664.08 411.4ZM2680.84 407.604C2676.98 408.49 2673.12 409.356 2669.26 410.226C2660.05 416.454 2650.95 422.543 2641.84 428.65C2645.85 427.613 2649.86 426.59 2653.87 425.533C2662.76 419.677 2671.84 413.585 2680.84 407.604ZM2697.89 403.622C2693.96 404.55 2690.03 405.493 2686.11 406.403C2677.37 412.219 2668.47 418.23 2659.83 423.936C2663.75 422.892 2667.67 421.837 2671.6 420.774C2680.3 415.141 2689.09 409.376 2697.89 403.622ZM2715 399.541C2711.11 400.485 2707.22 401.413 2703.33 402.338C2694.78 407.945 2686.14 413.652 2677.68 419.143C2681.6 418.072 2685.53 416.961 2689.46 415.869C2697.93 410.477 2706.43 405.049 2715 399.541ZM2732.25 395.31C2728.39 396.272 2724.53 397.209 2720.67 398.152C2712.37 403.495 2704.06 408.849 2695.85 414.084C2699.7 413.004 2703.53 411.95 2707.38 410.853C2715.66 405.689 2723.89 400.583 2732.25 395.31ZM2749.68 390.895C2745.82 391.882 2741.97 392.877 2738.11 393.845C2730.09 398.916 2722.11 403.915 2714.17 408.879C2718 407.776 2721.84 406.656 2725.68 405.532C2733.69 400.641 2741.59 395.885 2749.68 390.895ZM2766.95 386.43C2763.22 387.408 2759.49 388.384 2755.76 389.346C2748 394.145 2740.34 398.801 2732.66 403.504C2736.46 402.377 2740.28 401.208 2744.09 400.064C2751.71 395.52 2759.27 391.057 2766.95 386.43ZM2784.24 381.849C2780.69 382.808 2777.14 383.73 2773.59 384.672C2766.18 389.145 2758.92 393.411 2751.58 397.8C2755.24 396.686 2758.9 395.6 2762.57 394.47C2769.77 390.29 2776.98 386.106 2784.24 381.849ZM2801.77 377.046C2798.29 378.009 2794.8 378.971 2791.32 379.917C2784.4 383.984 2777.6 387.902 2770.72 391.908C2774.32 390.786 2777.92 389.656 2781.53 388.515C2788.24 384.742 2795.01 380.891 2801.77 377.046ZM2819.28 372.145C2815.92 373.099 2812.56 374.066 2809.2 375.005C2802.81 378.649 2796.48 382.217 2790.13 385.807C2793.63 384.686 2797.15 383.514 2800.66 382.376C2806.82 379.032 2813.07 375.557 2819.28 372.145ZM2836.69 367.173C2833.58 368.076 2830.47 368.948 2827.37 369.84C2821.63 373.001 2815.91 376.149 2810.22 379.263C2813.37 378.226 2816.53 377.198 2819.69 376.147C2825.32 373.205 2831.02 370.167 2836.69 367.173ZM2854.27 361.975C2851.41 362.829 2848.54 363.669 2845.68 364.513C2840.76 367.128 2835.81 369.779 2830.9 372.359C2833.59 371.452 2836.27 370.553 2838.95 369.638C2844.05 367.093 2849.14 364.561 2854.27 361.975ZM2871.24 356.849C2868.87 357.572 2866.51 358.307 2864.14 359.022C2860.25 361 2856.32 363.039 2852.44 364.992C2854.46 364.294 2856.47 363.58 2858.49 362.875C2862.74 360.863 2866.97 358.889 2871.24 356.849ZM2886.72 352.103C2885.46 352.497 2884.2 352.875 2882.95 353.263C2880.43 354.478 2877.89 355.734 2875.38 356.937C2876.32 356.599 2877.27 356.247 2878.21 355.909L2886.72 352.103ZM517.68 602.214C513.244 603.107 508.81 604.006 504.37 604.92C542.133 658.096 573.622 720.477 605.695 784.063C668.101 907.784 732.788 1036.02 850.551 1109.2C1023.19 1216.48 1310.36 1205.48 1872.39 889.009C1331.53 1181.66 1051.92 1181.7 877.945 1072.68C765.917 1002.48 697.818 887.096 631.964 775.513C595.541 713.798 559.795 653.26 517.68 602.214ZM533.516 599.039C529.132 599.905 524.744 600.796 520.358 601.678C562.31 652.711 597.976 713.104 634.31 774.671C700.065 886.087 768.066 1001.3 879.736 1071.28C1058.75 1183.46 1350.41 1179.41 1925.8 857.534C1369.86 1156.12 1085.18 1148.21 904.085 1033.69C799.11 967.307 729.047 865.141 661.123 766.09C620.206 706.422 580.059 647.891 533.516 599.039ZM549.281 595.991C544.95 596.82 540.62 597.654 536.286 598.502C582.613 647.324 622.635 705.683 663.424 765.163C731.26 864.084 801.227 966.112 905.89 1032.3C1092.25 1150.14 1389.05 1154.4 1980.7 825.454C1406.18 1131.84 1115.73 1114.2 926.278 993.219C829.532 931.44 759.216 842.761 690.851 756.537C645.222 698.99 600.453 642.562 549.281 595.991ZM564.989 593.011C560.703 593.814 556.417 594.621 552.129 595.441C603.03 641.973 647.635 698.202 693.09 755.531C761.377 841.652 831.608 930.228 928.083 991.833C1122.03 1115.68 1422.4 1130.73 2027.6 798.053L2030.28 796.41C1437.17 1109.19 1141.74 1078.83 943.076 950.617C856.186 894.542 787.86 819.775 721.211 746.842C670.635 691.497 621.018 637.223 564.989 593.011ZM580.598 590.11C576.379 590.884 572.156 591.678 567.934 592.465C623.627 636.629 673.029 690.66 723.375 745.754C789.949 818.605 858.197 893.287 944.891 949.237C1145.84 1078.92 1446.36 1107.96 2056.22 780.549C2058.87 778.917 2061.45 777.364 2064.12 775.717C1457.61 1088.28 1160.18 1040.57 951.996 904.666C877.301 855.905 814.132 795.823 752.275 736.986C696.483 683.916 641.751 631.871 580.598 590.11ZM596.152 587.325C592.004 588.062 587.857 588.796 583.706 589.55C644.435 631.259 698.876 683.036 754.371 735.819C816.17 794.602 879.278 854.628 953.824 903.291C1163.64 1040.26 1464.52 1087.31 2083.57 763.613C2087.47 761.184 2091.41 758.722 2095.31 756.293C1301.48 1154.68 1033.14 932.884 784.157 726.958C722.853 676.254 662.707 626.538 596.152 587.325ZM611.655 584.598C607.576 585.306 603.496 586.021 599.414 586.741C665.455 625.9 725.233 675.319 786.157 725.708C1036.44 932.711 1306.39 1155.72 2113.3 745.069C2117.54 742.403 2121.87 739.638 2126.16 736.909C1362.81 1108.99 1080.08 905.773 816.956 716.717C749.809 668.472 683.938 621.156 611.655 584.598ZM627.04 581.96C623.064 582.636 619.086 583.32 615.109 584.006C686.763 620.511 752.181 667.493 818.85 715.395C1083.14 905.287 1367.4 1109.32 2141.34 727.28C2146.93 723.729 2152.44 720.261 2158.07 716.672C1424.43 1063.34 1127.67 878.664 850.8 706.247C777.421 660.551 705.429 615.743 627.04 581.96ZM642.414 579.407C638.536 580.042 634.659 580.674 630.78 581.324C708.404 615.064 779.817 659.527 852.592 704.849C1130.43 877.864 1428.27 1063.33 2170.01 708.984C2176.3 704.951 2182.65 700.837 2188.99 696.743C1485.64 1017.78 1175.8 851.398 885.867 695.514C805.838 652.486 727.314 610.285 642.414 579.407ZM672.914 574.515C669.324 575.079 665.74 575.643 662.151 576.213C752.946 604.03 837.62 643.113 923.882 682.931C1227.19 822.944 1550.35 971.904 2229.72 670.248C2236.89 665.554 2244.07 660.849 2251.28 656.113C1607.74 927.577 1274.54 796.577 960.466 673.058C865.559 635.733 772.393 599.107 672.914 574.515ZM688.087 572.185C684.656 572.701 681.227 573.213 677.794 573.745C775.96 598.372 868.072 634.576 961.876 671.47C1276.91 795.364 1611.22 926.763 2260.03 650.361C2267.61 645.357 2275.31 640.202 2283 635.073C1668.94 882.731 1325.51 768.985 1000.54 661.231C897.239 626.977 795.794 593.353 688.087 572.185ZM703.163 569.91C699.998 570.378 696.831 570.866 693.665 571.342C799.773 592.597 899.894 625.792 1001.82 659.59C1327.69 767.644 1672.12 881.792 2290.53 630.059C2298.64 624.65 2306.72 619.269 2314.91 613.771C1730.18 838.268 1377.84 741.22 1042.95 648.903C930.445 617.89 819.908 587.425 703.163 569.91ZM718.238 567.728C715.325 568.151 712.415 568.566 709.502 568.991C824.326 586.662 933.262 616.672 1044.09 647.224C1379.9 739.793 1733.29 837.111 2321.79 609.131C2330.09 603.54 2338.47 597.871 2346.86 592.188C1791.51 794.069 1431.79 713.22 1088.17 635.976C965.537 608.409 844.947 581.318 718.238 567.728ZM733.236 565.601C730.682 565.955 728.129 566.305 725.573 566.667C849.97 580.504 968.586 607.16 1089.18 634.27C1433.74 711.724 1794.5 792.83 2353.11 587.97C2361.81 582.062 2370.61 576.054 2379.43 570.017C1853.35 750.089 1487.84 684.95 1136.85 622.333C1002.92 598.44 871.085 574.935 733.236 565.601ZM748.159 563.532C746.114 563.81 744.066 564.102 742.021 564.382C877.009 574.099 1006.36 597.162 1137.73 620.597C1489.67 683.386 1856.22 748.714 2385.08 566.148C2394.08 559.985 2403.07 553.848 2412.15 547.601C1915.58 706.541 1546.47 656.319 1189.83 607.813C1043.16 587.865 898.605 568.211 748.159 563.532ZM763.162 561.532L758.925 562.092C905.776 567.338 1047.17 586.554 1190.57 606.057C1548.21 654.699 1918.44 705.019 2417.42 543.971C2426.61 537.631 2435.96 531.108 2445.28 524.62C1978.64 663.16 1608.38 627.213 1248.24 592.194C1087.11 576.526 927.99 561.056 763.162 561.532ZM777.951 559.594L776.795 559.739C936.999 560.11 1091.98 575.168 1248.87 590.421C1610.02 625.538 1981.36 661.587 2450.04 521.31C2459.58 514.682 2469.12 508.033 2478.75 501.292C2042.78 620.204 1674.6 597.487 1313.7 575.187C1135.77 564.195 959.603 553.31 777.951 559.594ZM1582.27 510.789C1345.93 516.936 1107.87 523.133 866.336 549.168C1072.08 533.358 1274.22 533.39 1476.5 533.432C1827.57 533.497 2179.05 533.541 2550.39 450.68C2560.65 443.381 2570.86 436.143 2581.25 428.699C2248.36 493.457 1917.05 502.083 1582.27 510.789ZM733.429 563.786L737.415 563.233L735.945 563.191C734.513 563.351 733.08 563.504 731.646 563.668L733.429 563.786ZM718.489 565.902C720.505 565.614 722.526 565.313 724.542 565.027C723.548 564.964 722.557 564.891 721.562 564.83L715.319 565.562L718.489 565.902ZM703.515 568.07C706.058 567.695 708.599 567.335 711.141 566.966C709.729 566.819 708.313 566.687 706.898 566.548C704.409 566.846 701.914 567.165 699.423 567.47C700.789 567.669 702.154 567.865 703.515 568.07ZM688.506 570.332L697.127 569.026L692.379 568.342C689.51 568.697 686.641 569.044 683.767 569.411C685.346 569.718 686.927 570.021 688.506 570.332ZM673.401 572.646C676.57 572.151 679.74 571.662 682.907 571.178C681.203 570.85 679.504 570.512 677.796 570.193C674.666 570.601 671.534 571.006 668.403 571.42C670.072 571.823 671.736 572.236 673.401 572.646ZM658.249 575.038C661.663 574.492 665.076 573.959 668.487 573.421C666.673 572.981 664.85 572.555 663.031 572.122C659.708 572.569 656.382 573.031 653.059 573.487C654.788 574.004 656.522 574.516 658.249 575.038ZM643.067 577.506C646.632 576.921 650.199 576.321 653.764 575.744C651.965 575.209 650.172 574.658 648.368 574.131C644.836 574.615 641.303 575.099 637.766 575.602C639.537 576.23 641.301 576.866 643.067 577.506ZM627.766 580.036C631.522 579.404 635.272 578.788 639.026 578.172C637.186 577.512 635.339 576.871 633.492 576.222C629.847 576.746 626.203 577.273 622.557 577.808C624.297 578.546 626.032 579.29 627.766 580.036ZM612.484 582.66C616.337 581.995 620.19 581.332 624.042 580.676C622.24 579.906 620.445 579.133 618.635 578.377C614.86 578.937 611.08 579.516 607.302 580.088C609.032 580.94 610.763 581.792 612.484 582.66ZM597.068 585.362C601.044 584.655 605.018 583.952 608.991 583.258C607.229 582.376 605.458 581.509 603.689 580.639C599.813 581.227 595.937 581.815 592.059 582.424C593.735 583.392 595.4 584.38 597.068 585.362ZM581.612 588.126C585.68 587.385 589.743 586.667 593.808 585.946C592.099 584.947 590.382 583.952 588.66 582.967C584.699 583.597 580.737 584.226 576.775 584.87C578.388 585.953 580.004 587.033 581.612 588.126ZM566.1 591.004C570.234 590.232 574.371 589.459 578.503 588.699C576.863 587.589 575.225 586.479 573.577 585.38C569.541 586.041 565.496 586.72 561.455 587.394C563.008 588.59 564.558 589.791 566.1 591.004ZM550.488 593.953C554.711 593.144 558.932 592.343 563.152 591.554C561.581 590.322 559.999 589.114 558.414 587.905C554.314 588.59 550.213 589.278 546.107 589.986C547.576 591.297 549.03 592.63 550.488 593.953ZM534.826 596.982C539.1 596.144 543.372 595.323 547.643 594.504C546.159 593.162 544.676 591.823 543.179 590.499C539.014 591.223 534.849 591.953 530.677 592.695C532.066 594.118 533.45 595.543 534.826 596.982ZM519.089 600.125C523.407 599.255 527.73 598.376 532.045 597.52C530.653 596.07 529.261 594.625 527.86 593.189C523.642 593.945 519.422 594.724 515.204 595.497C516.505 597.03 517.801 598.57 519.089 600.125ZM503.245 603.344C507.636 602.439 512.027 601.548 516.413 600.663C515.108 599.091 513.788 597.547 512.467 595.997C508.203 596.78 503.939 597.568 499.669 598.374C500.87 600.02 502.057 601.681 503.245 603.344ZM38.3408 737.507C194.407 678.379 348.356 635.426 500.62 603.892C499.42 602.215 498.21 600.546 496.993 598.887C347.189 627.315 194.482 668.418 37.5413 727.878L36.5571 726.322C193.447 666.88 346.09 625.761 495.824 597.307C494.614 595.665 493.41 594.023 492.187 592.403C344.949 617.688 193.561 656.902 35.7574 716.689L34.7724 715.131C192.504 655.371 343.811 616.141 490.961 590.816C489.736 589.209 488.504 587.613 487.266 586.026C342.656 608.111 192.639 645.387 33.973 705.503L32.9887 703.946C191.574 643.863 341.506 606.553 486.026 584.417C484.785 582.84 483.521 581.29 482.265 579.733C340.34 598.551 191.726 633.872 32.19 694.319L31.2048 692.76C190.631 632.359 339.142 596.996 480.957 578.106C479.718 576.586 478.472 575.08 477.218 573.579C338.025 589.059 190.847 622.344 30.4051 683.131L29.421 681.575C189.717 620.841 336.771 587.513 475.841 571.937C474.594 570.456 473.351 568.972 472.089 567.512C335.683 579.593 189.977 610.807 28.6212 671.941L27.6364 670.384C188.802 609.323 334.359 578.042 470.617 565.842C469.365 564.409 468.114 562.975 466.848 561.564C333.295 570.179 189.113 599.273 26.838 660.755L25.8525 659.198C187.903 597.801 331.924 568.626 465.323 559.866C464.062 558.476 462.786 557.114 461.509 555.745C330.876 560.819 188.259 587.736 25.0532 649.572L24.0689 648.015C186.994 586.285 329.425 559.257 459.887 553.992C458.629 552.656 457.354 551.345 456.08 550.032C328.426 551.495 187.419 576.188 23.2685 638.38L22.2843 636.824C186.083 574.764 326.868 549.938 454.328 548.233C453.085 546.966 451.84 545.698 450.58 544.452C325.965 542.229 186.606 564.635 21.4854 627.196L20.5004 625.638C185.163 563.253 324.258 540.65 448.643 542.563C447.424 541.376 446.218 540.176 444.986 539.006C323.474 533.012 185.811 553.074 19.7015 616.01L18.7166 614.453C184.265 551.73 321.616 531.441 442.876 537.042C441.66 535.906 440.433 534.78 439.202 533.662C320.886 523.842 184.985 541.525 17.9173 604.821L16.9329 603.268C183.335 540.222 318.889 522.251 436.938 531.591C435.764 530.543 434.564 529.53 433.377 528.5C318.308 514.75 184.213 529.952 16.1325 593.634L15.1483 592.078C182.364 528.724 316.037 513.137 430.797 526.26C429.677 525.309 428.547 524.371 427.414 523.436C315.674 505.689 183.436 518.385 14.3488 582.449L13.3644 580.891C181.354 517.246 313.069 504.081 424.458 521.021C423.443 520.202 422.439 519.363 421.414 518.553C313.059 496.699 182.718 506.798 12.5655 571.263L11.5806 569.706C180.236 505.806 309.916 495.046 417.834 515.815C416.959 515.144 416.089 514.465 415.208 513.806C310.33 487.778 181.971 495.213 10.7811 560.073L9.79611 558.516C179.007 494.407 306.54 486.077 410.9 510.654C410.199 510.148 409.492 509.646 408.788 509.145C307.487 478.9 181.172 483.653 8.99714 548.887L8.01221 547.33C177.578 483.088 302.824 477.172 403.523 505.482C403.149 505.23 402.768 504.983 402.394 504.733C304.718 470.107 180.493 472.05 7.21336 537.702L6.22841 536.145C174.51 472.389 296.731 468.337 393.302 499.416C299.683 461.37 178.239 461.042 5.42921 526.514L4.44462 524.96C169.179 462.546 287.468 459.502 379.473 491.833C290.447 452.506 172.917 451.194 3.64495 515.326L2.66013 513.77C163.724 452.75 278.159 450.573 365.811 483.87C281.158 443.557 167.465 441.396 1.86115 504.141L0.876216 502.584C183.582 433.36 303.476 442.488 390.852 494.62C395.766 497.004 400.568 499.535 405.311 502.147C410.386 504.412 415.402 506.761 420.315 509.247C425.499 511.366 430.595 513.613 435.632 515.938C441.111 517.972 446.531 520.094 451.867 522.331C457.416 524.193 462.897 526.153 468.318 528.2C474.225 529.967 480.062 531.836 485.843 533.792C491.81 535.376 497.73 537.031 503.587 538.782C509.919 540.244 516.182 541.816 522.409 543.446C528.998 544.756 535.547 546.137 542.038 547.604C548.651 548.71 555.225 549.883 561.753 551.13C568.772 552.083 575.739 553.129 582.676 554.222C590.049 555.004 597.379 555.856 604.675 556.774C612.254 557.36 619.807 557.997 627.322 558.707C635.054 559.092 642.762 559.52 650.44 560.015C658.481 560.196 666.498 560.421 674.49 560.709C682.817 560.677 691.127 560.691 699.411 560.755C708.053 560.504 716.681 560.289 725.291 560.131C733.952 559.667 742.597 559.252 751.229 558.868C760.52 558.151 769.797 557.483 779.063 556.848C788.482 555.911 797.892 555.012 807.295 554.149C1069.21 522.36 1326.84 515.65 1582.47 509C1918.35 500.267 2250.75 491.621 2584.68 426.231C2756.42 303.119 2944.3 161.903 3150.11 0.515603L3151.89 1.62139C2947.21 162.129 2760.25 302.663 2589.22 425.322C2593.2 424.539 2597.18 423.738 2601.16 422.937C2768.63 304.087 2951.6 167.722 3151.9 11.6979L3153.68 12.8111C2954.53 167.942 2772.5 303.623 2605.76 422.017C2609.74 421.208 2613.72 420.378 2617.71 419.555C2780.89 304.991 2958.93 173.502 3153.69 22.8833L3155.46 24.0041C2961.92 173.69 2784.86 304.479 2622.45 418.566C2626.41 417.739 2630.37 416.931 2634.33 416.087C2793.22 305.837 2966.31 179.238 3155.48 34.0668L3157.24 35.1899C2969.34 179.386 2797.28 305.271 2639.21 415.027C2643.2 414.171 2647.19 413.297 2651.18 412.423C2805.71 306.541 2973.81 184.868 3157.26 45.2499L3159.02 46.3819C2976.87 185.005 2809.82 305.963 2656.16 411.342C2660.16 410.456 2664.17 409.551 2668.17 408.65C2818.28 307.176 2981.39 190.417 3159.05 56.4299L3160.8 57.5703C2984.53 190.505 2822.53 306.537 2673.35 407.476C2677.23 406.596 2681.1 405.733 2684.98 404.837C2830.79 307.729 2988.82 196.063 3160.84 67.6145L3162.58 68.7653C2992 196.135 2835.17 307.006 2690.34 403.574C2694.29 402.65 2698.25 401.716 2702.21 400.775C2843.57 308.134 2996.49 201.51 3162.63 78.7949L3164.36 79.9535C2999.69 201.582 2848.01 307.396 2707.66 399.491C2711.62 398.54 2715.59 397.561 2719.55 396.592C2856.44 308.449 3004.22 206.901 3164.42 89.9755L3166.13 91.144C3007.49 206.933 2861.03 307.627 2725.22 395.202C2729.14 394.234 2733.06 393.276 2736.99 392.292C2869.38 308.678 3012 212.236 3166.21 101.16L3167.91 102.338C3015.35 212.224 2874.16 307.759 2742.93 390.779C2746.84 389.79 2750.75 388.798 2754.65 387.791C2882.5 308.751 3019.88 217.48 3168 112.341L3169.68 113.529C3023.27 217.455 2887.38 307.794 2760.76 386.224C2764.67 385.206 2768.58 384.151 2772.5 383.117C2895.76 308.694 3027.85 222.646 3169.8 123.524L3171.46 124.721C3031.33 222.57 2900.84 307.632 2778.91 381.417C2782.68 380.409 2786.45 379.395 2790.21 378.371C2908.96 308.552 3035.74 227.833 3171.59 134.7L3173.24 135.914C3039.49 227.603 2914.48 307.329 2797.3 376.423C2800.9 375.434 2804.5 374.46 2808.1 373.454C2922.3 308.286 3043.72 232.933 3173.39 145.881L3175.01 147.112C3047.64 232.624 2928.18 306.905 2815.73 371.3C2819.25 370.306 2822.77 369.298 2826.29 368.289C2935.86 307.829 3051.84 237.917 3175.18 157.06L3176.78 158.302C3055.89 237.553 2942.04 306.332 2834.37 365.985C2837.78 364.998 2841.19 363.973 2844.6 362.971C2949.52 307.258 3060.03 242.82 3176.98 168.234L3178.55 169.502C3064.36 242.322 2956.3 305.492 2853.59 360.312C2856.75 359.371 2859.92 358.432 2863.08 357.476C2963.31 306.558 3068.31 247.637 3178.79 179.413L3180.31 180.701C3073.03 246.951 2970.92 304.427 2873.3 354.347C2876.16 353.469 2879.03 352.604 2881.89 351.716C2977.35 305.654 3076.73 252.319 3180.59 190.584L3182.08 191.901C3081.98 251.399 2986.06 303.062 2893.77 347.984C2896.22 347.214 2898.66 346.441 2901.1 345.662C2991.7 304.522 3085.33 256.871 3182.4 201.757L3183.83 203.102C3091.42 255.572 3002.15 301.224 2915.62 341.003C2917.04 340.54 2918.47 340.065 2919.9 339.598C3005.8 303.358 3093.79 261.454 3184.22 212.926L3185.58 214.304C3102.61 258.83 3021.69 297.773 2942.55 331.906C3022.53 300.951 3103.63 265.289 3186.04 224.092L3187.33 225.518C3116.67 260.835 3046.98 292.086 2978.14 319.811C3047.89 295.201 3117.78 267.195 3187.88 235.257L3189.06 236.725C3105.73 274.697 3022.69 307.138 2939.85 334.897C2926.42 340.073 2913.02 345.138 2899.66 350.053C2885.49 355.896 2871.41 361.531 2857.35 367.081C2842.87 373.375 2828.46 379.534 2814.14 385.501C2799.01 392.392 2783.97 399.136 2769.05 405.644C2753.82 412.828 2738.74 419.763 2723.74 426.573C2708.54 433.956 2693.46 441.165 2678.49 448.185C2662.54 456.16 2646.71 463.955 2631.05 471.509C2614.51 479.966 2598.18 488.135 2581.98 496.132C2566.3 504.298 2550.77 512.266 2535.39 520.022C2519.76 528.316 2504.26 536.432 2488.94 544.32C2470.37 554.365 2452.1 564.019 2434 573.459C2417.86 582.276 2401.89 590.88 2386.1 599.248C2370.16 608.07 2354.4 616.676 2338.8 625.074C2320.32 635.434 2302.05 645.543 2284.04 655.337C2266.85 665.067 2249.87 674.55 2233.12 683.76C2215.77 693.677 2198.62 703.358 2181.72 712.741C2164.03 722.941 2146.53 732.911 2129.32 742.556C2112.1 752.548 2095.06 762.332 2078.29 771.813C2061.38 781.7 2044.67 791.367 2028.19 800.761C2011.24 810.754 1994.54 820.466 1978.04 829.958C1345.08 1205.9 1032.54 1224.8 848.767 1110.6C730.584 1037.15 665.804 908.733 603.308 784.831C571.174 721.127 539.632 658.64 501.746 605.468C349.42 636.98 195.421 679.923 39.3251 739.064L38.3408 737.507Z" fill="url(#paint0_linear_0_196)"/>
<defs>
<linearGradient id="paint0_linear_0_196" x1="2333.7" y1="1711.3" x2="1007.63" y2="-155.44" gradientUnits="userSpaceOnUse">
<stop stop-color="#F1607D"/>
<stop offset="1" stop-color="#B01030"/>
</linearGradient>
</defs>
</svg>
